<svg width="12" height="12" viewBox="0 0 12 12" fill="none" xmlns="http://www.w3.org/2000/svg">
<path d="M6.00002 1.28635L4.58581 2.70057C4.32654 2.95984 4.32654 3.3841 4.58581 3.64338C4.84508 3.90265 5.26935 3.90265 5.52862 3.64338L6.94283 2.22916C7.72065 1.45135 8.99344 1.45135 9.77126 2.22916C10.5491 3.00698 10.5491 4.27977 9.77126 5.05759L8.35705 6.4718C8.09777 6.73108 8.09777 7.15534 8.35705 7.41461C8.61632 7.67389 9.04058 7.67389 9.29985 7.41461L10.7141 6.0004C12.0151 4.69932 12.0151 2.58743 10.7141 1.28635C9.41299 -0.0147227 7.3011 -0.0147224 6.00002 1.28635ZM4.1144 7.88602C4.37368 8.14529 4.79794 8.14529 5.05721 7.88602L7.88564 5.05759C8.14491 4.79832 8.14491 4.37405 7.88564 4.11478C7.62637 3.85551 7.2021 3.85551 6.94283 4.11478L4.1144 6.94321C3.85513 7.20248 3.85513 7.62674 4.1144 7.88602ZM6.47143 8.35742L5.05721 9.77164C4.2794 10.5495 3.0066 10.5495 2.22879 9.77164C1.45097 8.99382 1.45097 7.72103 2.22879 6.94321L3.643 5.52899C3.90227 5.26972 3.90227 4.84546 3.643 4.58619C3.38373 4.32691 2.95946 4.32691 2.70019 4.58619L1.28598 6.0004C-0.0150988 7.30148 -0.0150988 9.41337 1.28598 10.7144C2.58705 12.0155 4.69895 12.0155 6.00002 10.7144L7.41424 9.30023C7.67351 9.04096 7.67351 8.61669 7.41424 8.35742C7.15496 8.09815 6.7307 8.09815 6.47143 8.35742Z" fill="#666666"/>
</svg>
