<svg width="24" height="24" viewBox="0 0 24 24" fill="none" xmlns="http://www.w3.org/2000/svg">
<path d="M8.40001 17.5491L13.7 11.9941L8.40001 6.43806C8.1428 6.16466 7.99959 5.80343 7.99959 5.42806C7.99959 5.05269 8.1428 4.69146 8.40001 4.41806C8.52332 4.28595 8.67249 4.1806 8.83824 4.10858C9.00399 4.03656 9.18278 3.99939 9.36351 3.99939C9.54423 3.99939 9.72302 4.03656 9.88877 4.10858C10.0545 4.1806 10.2037 4.28595 10.327 4.41806L16.6 10.9911C16.8569 11.2644 17 11.6254 17 12.0006C17 12.3757 16.8569 12.7367 16.6 13.0101L10.324 19.5821C10.2007 19.7142 10.0515 19.8195 9.88577 19.8915C9.72002 19.9636 9.54123 20.0007 9.36051 20.0007C9.17978 20.0007 9.00099 19.9636 8.83524 19.8915C8.66949 19.8195 8.52032 19.7142 8.39701 19.5821C8.14326 19.3043 8.00256 18.9417 8.00256 18.5656C8.00256 18.1894 8.14326 17.8268 8.39701 17.5491H8.40001Z" fill="#666666"/>
</svg>
