<svg width="16" height="16" viewBox="0 0 16 16" fill="none" xmlns="http://www.w3.org/2000/svg">
<path d="M7.99997 2.10843L6.2322 3.8762C5.90811 4.20029 5.90811 4.73062 6.2322 5.05471C6.55629 5.3788 7.08662 5.3788 7.41071 5.05471L9.17848 3.28694C10.1508 2.31467 11.7417 2.31467 12.714 3.28694C13.6863 4.25921 13.6863 5.8502 12.714 6.82248L10.9462 8.59024C10.6222 8.91433 10.6222 9.44466 10.9462 9.76875C11.2703 10.0928 11.8007 10.0928 12.1248 9.76875L13.8925 8.00099C15.5189 6.37464 15.5189 3.73478 13.8925 2.10843C12.2662 0.482085 9.62631 0.482085 7.99997 2.10843ZM5.64295 10.358C5.96704 10.6821 6.49737 10.6821 6.82146 10.358L10.357 6.82248C10.6811 6.49839 10.6811 5.96806 10.357 5.64396C10.0329 5.31987 9.50257 5.31987 9.17848 5.64396L5.64295 9.1795C5.31885 9.50359 5.31885 10.0339 5.64295 10.358ZM8.58922 10.9473L6.82146 12.715C5.84918 13.6873 4.25819 13.6873 3.28592 12.715C2.31365 11.7428 2.31365 10.1518 3.28592 9.1795L5.05369 7.41173C5.37778 7.08764 5.37778 6.55731 5.05369 6.23322C4.7296 5.90913 4.19927 5.90913 3.87518 6.23322L2.10741 8.00099C0.481066 9.62733 0.481066 12.2672 2.10741 13.8935C3.73376 15.5199 6.37362 15.5199 7.99997 13.8935L9.76774 12.1258C10.0918 11.8017 10.0918 11.2714 9.76774 10.9473C9.44364 10.6232 8.91331 10.6232 8.58922 10.9473Z" fill="white"/>
</svg>
