<svg width="24" height="25" viewBox="0 0 24 25" fill="none" xmlns="http://www.w3.org/2000/svg">
<path d="M7.39967 4.92117C7.14291 5.19479 7 5.55594 7 5.93117C7 6.3064 7.14291 6.66754 7.39967 6.94117L12.6997 12.5012L7.39967 18.0612C7.14291 18.3348 7 18.6959 7 19.0712C7 19.4464 7.14291 19.8075 7.39967 20.0812C7.52291 20.2134 7.67205 20.3189 7.83782 20.391C8.00358 20.4631 8.18241 20.5003 8.36317 20.5003C8.54394 20.5003 8.72277 20.4631 8.88853 20.391C9.0543 20.3189 9.20344 20.2134 9.32667 20.0812L15.5997 13.5042C15.8564 13.2305 15.9993 12.8694 15.9993 12.4942C15.9993 12.1189 15.8564 11.7578 15.5997 11.4842L9.32667 4.90717C9.20157 4.77738 9.05138 4.6744 8.88522 4.6045C8.71907 4.53459 8.54043 4.49921 8.36017 4.50052C8.17991 4.50183 8.0018 4.5398 7.83668 4.61211C7.67156 4.68443 7.52288 4.78958 7.39967 4.92117Z" fill="currentColor"/>
</svg>
