<svg width="131" height="87" viewBox="0 0 131 87" fill="none" xmlns="http://www.w3.org/2000/svg">
<g id="alert-success-with-star-icon 1" clip-path="url(#clip0_85_11956)">
<g id="alert-success-with-star-icon">
<path id="Path 4370" d="M26.1427 35.1989C25.9906 35.2517 25.8278 35.2656 25.669 35.2393L19.922 34.2473L16.0039 38.5673C15.8781 38.7078 15.7138 38.8082 15.5314 38.8562C15.349 38.9041 15.1565 38.8975 14.9779 38.837C14.7933 38.7738 14.6294 38.6616 14.5036 38.5126C14.3777 38.3635 14.2947 38.1831 14.2633 37.9905L13.2802 32.0637L8.0118 29.4241C7.84414 29.3355 7.70253 29.2046 7.601 29.0444C7.49947 28.8842 7.44153 28.7003 7.43292 28.5108C7.42457 28.3196 7.47034 28.1299 7.56498 27.9636C7.65962 27.7972 7.79927 27.6609 7.9679 27.5704L13.0845 24.8853L13.705 18.9626C13.7203 18.7722 13.7908 18.5903 13.9079 18.4393C14.025 18.2883 14.1835 18.1748 14.3642 18.1125C14.5449 18.0503 14.7397 18.0422 14.925 18.0891C15.1102 18.136 15.2777 18.2359 15.407 18.3766L19.5706 22.6393L25.2556 21.6051C25.4442 21.5726 25.6382 21.594 25.8152 21.6668C25.9922 21.7397 26.145 21.861 26.2562 22.0168C26.3659 22.1715 26.4334 22.3522 26.4518 22.541C26.4703 22.7298 26.4391 22.9201 26.3614 23.0932L23.8289 28.4177L26.7031 33.6934C26.8013 33.866 26.85 34.0624 26.8437 34.2609C26.8374 34.4594 26.7764 34.6523 26.6674 34.8183C26.5412 35.002 26.3556 35.1365 26.1417 35.1992L26.1427 35.1989Z" fill="#FFB300"/>
<path id="Path 4371" d="M108.705 21.1325C108.827 21.1726 108.958 21.1813 109.085 21.1577L113.682 20.3672L116.817 23.8199C116.918 23.932 117.049 24.0121 117.195 24.0502C117.341 24.0882 117.495 24.0825 117.638 24.0339C117.785 23.9826 117.916 23.8924 118.016 23.7728C118.116 23.6532 118.181 23.5088 118.206 23.3548L118.992 18.6135L123.21 16.5081C123.345 16.4372 123.458 16.3325 123.539 16.2042C123.621 16.076 123.667 15.9288 123.674 15.7771C123.68 15.6242 123.644 15.4726 123.568 15.3395C123.493 15.2064 123.381 15.0974 123.246 15.025L119.153 12.8753L118.657 8.1375C118.645 7.98453 118.589 7.83833 118.495 7.71692C118.401 7.59552 118.274 7.50421 118.129 7.45426C117.984 7.40431 117.827 7.39791 117.679 7.43584C117.53 7.47377 117.396 7.55437 117.292 7.66771L113.964 11.08L109.415 10.2541C109.264 10.2281 109.109 10.2453 108.968 10.3036C108.826 10.3619 108.704 10.459 108.615 10.5836C108.527 10.7073 108.473 10.8518 108.458 11.0029C108.443 11.154 108.468 11.3063 108.53 11.4448L110.554 15.7028L108.257 19.9206C108.178 20.0588 108.139 20.2161 108.144 20.3751C108.15 20.534 108.199 20.6885 108.286 20.8213C108.387 20.9694 108.537 21.0777 108.709 21.1278L108.705 21.1325Z" fill="#FFB300"/>
<path id="alert-success-icon" d="M70.9234 4.84717C62.8143 4.84717 54.8874 7.25178 48.145 11.7569C41.4026 16.2621 36.1475 22.6654 33.0443 30.1571C29.9411 37.6489 29.1292 45.8926 30.7112 53.8459C32.2932 61.7991 36.198 69.1046 41.932 74.8385C47.6659 80.5725 54.9714 84.4774 62.9247 86.0594C70.8779 87.6414 79.1216 86.8294 86.6134 83.7262C94.1052 80.623 100.508 75.368 105.014 68.6255C109.519 61.8831 111.923 53.9562 111.923 45.8472C111.923 34.9733 107.604 24.5448 99.9147 16.8558C92.2257 9.1668 81.7972 4.84717 70.9234 4.84717V4.84717ZM88.5534 36.0472L69.8164 60.6472C69.4347 61.1412 68.9457 61.5419 68.3862 61.8189C67.8268 62.0959 67.2116 62.2419 66.5873 62.2458C65.9631 62.2498 65.3461 62.1116 64.7832 61.8417C64.2203 61.5718 63.7262 61.1773 63.3384 60.6882L53.3384 47.9372C53.0072 47.5118 52.7631 47.0254 52.62 46.5057C52.4768 45.986 52.4374 45.4432 52.5041 44.9083C52.5707 44.3734 52.742 43.8569 53.0083 43.3882C53.2745 42.9195 53.6305 42.5078 54.0559 42.1767C54.9149 41.5079 56.0044 41.2078 57.0847 41.3424C57.6196 41.409 58.1362 41.5803 58.6049 41.8466C59.0736 42.1129 59.4852 42.4688 59.8164 42.8942L66.4994 51.4222L81.9994 30.9222C82.6712 30.0774 83.6473 29.5297 84.7183 29.3964C85.7894 29.263 86.87 29.5548 87.7284 30.2091C88.5868 30.8633 89.1545 31.828 89.3099 32.896C89.4652 33.9641 89.1958 35.0505 88.5594 35.9222L88.5534 36.0472Z" fill="#2DA34F"/>
<path id="Path 4367" d="M44.0911 81.072C43.9077 81.1322 43.7121 81.1455 43.5222 81.1107L36.6481 79.7999L31.8573 84.9008C31.7028 85.0662 31.5031 85.1825 31.283 85.2353C31.063 85.2881 30.8323 85.2751 30.6196 85.1979C30.4002 85.1172 30.2068 84.9785 30.0599 84.7967C29.9131 84.6148 29.8183 84.3965 29.7856 84.1651L28.7305 77.0346L22.46 73.7635C22.2614 73.6539 22.0948 73.4946 21.9765 73.3011C21.8581 73.1077 21.7921 72.8868 21.785 72.6601C21.7788 72.4305 21.8374 72.2037 21.9544 72.0059C22.0713 71.8082 22.2416 71.6474 22.4459 71.5422L28.6399 68.4236L29.5096 61.3311C29.5306 61.1016 29.6184 60.8834 29.7622 60.7033C29.906 60.5233 30.0995 60.3894 30.3186 60.3182C30.5378 60.247 30.773 60.2416 30.9951 60.3027C31.2173 60.3639 31.4166 60.4888 31.5685 60.6621L36.4712 65.8654L43.3141 64.7438C43.5412 64.7089 43.7735 64.7388 43.9843 64.8301C44.1952 64.9213 44.3759 65.0703 44.5058 65.2598C44.6345 65.4476 44.7119 65.6658 44.7303 65.8927C44.7487 66.1197 44.7075 66.3475 44.6108 66.5536L41.4584 72.8917L44.7959 79.2806C44.9103 79.4898 44.9646 79.7267 44.9527 79.9649C44.9409 80.2031 44.8634 80.4334 44.7288 80.6303C44.5735 80.8483 44.3476 81.006 44.0895 81.0767L44.0911 81.072Z" fill="#FFB300"/>
<path id="Path 4368" d="M115.272 73.2184C115.024 73.1483 114.798 73.0172 114.614 72.8371L107.992 66.2624L98.894 68.3296C98.5999 68.3977 98.2922 68.3778 98.0093 68.2725C97.7264 68.1671 97.4807 67.9809 97.3027 67.737C97.1204 67.4843 97.01 67.1869 96.9833 66.8764C96.9565 66.566 97.0144 66.2541 97.1508 65.9739L101.301 57.3041L96.8093 49.0106C96.671 48.7406 96.6056 48.4391 96.6195 48.136C96.6334 47.833 96.7262 47.5388 96.8887 47.2826C97.0532 47.024 97.2874 46.8171 97.5643 46.6858C97.8412 46.5544 98.1496 46.504 98.4539 46.5402L107.626 47.7138L113.872 40.5238C114.066 40.2862 114.326 40.1108 114.619 40.0192C114.912 39.9276 115.225 39.9239 115.52 40.0085C115.816 40.0931 116.079 40.2624 116.279 40.4953C116.479 40.7283 116.607 41.0148 116.646 41.3193L118.185 50.7271L126.585 54.5922C126.863 54.7227 127.097 54.9289 127.263 55.187C127.428 55.4452 127.517 55.7447 127.519 56.0512C127.521 56.3546 127.444 56.6532 127.295 56.9176C127.147 57.182 126.931 57.403 126.671 57.5587L118.465 62.211L117.39 71.7629C117.36 72.0793 117.244 72.3813 117.053 72.6357C116.863 72.89 116.606 73.0867 116.31 73.204C115.976 73.3281 115.609 73.3332 115.272 73.2184V73.2184Z" fill="#FFB300"/>
</g>
</g>
<defs>
<clipPath id="clip0_85_11956">
<rect width="130.847" height="86.847" fill="white" transform="translate(0.0766602)"/>
</clipPath>
</defs>
</svg>
