<svg width="24" height="24" viewBox="0 0 24 24" fill="none" xmlns="http://www.w3.org/2000/svg">
<path d="M4.92068 16.0998C5.1943 16.3566 5.55545 16.4995 5.93068 16.4995C6.30591 16.4995 6.66705 16.3566 6.94068 16.0998L12.5007 10.7998L18.0607 16.0998C18.3343 16.3566 18.6954 16.4995 19.0707 16.4995C19.4459 16.4995 19.8071 16.3566 20.0807 16.0998C20.2129 15.9766 20.3184 15.8275 20.3905 15.6617C20.4626 15.4959 20.4998 15.3171 20.4998 15.1363C20.4998 14.9556 20.4626 14.7767 20.3905 14.611C20.3184 14.4452 20.2129 14.2961 20.0807 14.1728L13.5037 7.89984C13.2301 7.64307 12.8689 7.50016 12.4937 7.50016C12.1184 7.50016 11.7573 7.64307 11.4837 7.89984L4.90668 14.1728C4.77689 14.2979 4.67391 14.4481 4.60401 14.6143C4.5341 14.7804 4.49873 14.9591 4.50004 15.1393C4.50134 15.3196 4.53931 15.4977 4.61163 15.6628C4.68394 15.828 4.78909 15.9766 4.92068 16.0998Z" fill="#0771CD"/>
</svg>
