<svg width="24" height="24" viewBox="0 0 24 24" fill="none" xmlns="http://www.w3.org/2000/svg">
<path id="this" d="M22 12.001C22 6.47813 17.5228 2.00098 12 2.00098C6.47715 2.00098 2 6.47813 2 12.001C2 17.5238 6.47715 22.001 12 22.001C17.5228 22.001 22 17.5238 22 12.001Z" fill="#0771CD"/>
<path d="M17.037 10.675H6.96199C6.22966 10.675 5.63599 11.2687 5.63599 12.001C5.63599 12.7334 6.22966 13.327 6.96199 13.327H17.037C17.7693 13.327 18.363 12.7334 18.363 12.001C18.363 11.2687 17.7693 10.675 17.037 10.675Z" fill="white"/>
<path d="M10.6741 6.96301V17.038C10.6741 17.7703 11.2677 18.364 12.0001 18.364C12.7324 18.364 13.3261 17.7703 13.3261 17.038V6.96301C13.3261 6.23068 12.7324 5.63701 12.0001 5.63701C11.2677 5.63701 10.6741 6.23068 10.6741 6.96301Z" fill="white"/>
</svg>
