<svg width="24" height="24" viewBox="0 0 24 24" fill="none" xmlns="http://www.w3.org/2000/svg">
<path d="M19.0793 8.39967C18.8057 8.14291 18.4446 8 18.0693 8C17.6941 8 17.3329 8.14291 17.0593 8.39967L11.4993 13.6997L5.93932 8.39967C5.6657 8.14291 5.30455 8 4.92932 8C4.55409 8 4.19295 8.14291 3.91932 8.39967C3.78708 8.52291 3.68162 8.67205 3.60951 8.83781C3.5374 9.00358 3.50018 9.18241 3.50018 9.36317C3.50018 9.54394 3.5374 9.72277 3.60951 9.88853C3.68162 10.0543 3.78708 10.2034 3.91932 10.3267L10.4963 16.5997C10.7699 16.8564 11.1311 16.9993 11.5063 16.9993C11.8816 16.9993 12.2427 16.8564 12.5163 16.5997L19.0933 10.3267C19.2231 10.2016 19.3261 10.0514 19.396 9.88522C19.4659 9.71907 19.5013 9.54043 19.5 9.36017C19.4987 9.17991 19.4607 9.0018 19.3884 8.83668C19.3161 8.67156 19.2109 8.52288 19.0793 8.39967Z" fill="#0771CD"/>
</svg>
