<svg width="24" height="24" viewBox="0 0 24 24" fill="none" xmlns="http://www.w3.org/2000/svg">
<rect x="5.42871" y="2.95544" width="14.9524" height="19.0476" rx="0.380952" fill="#FF6E01"/>
<path fill-rule="evenodd" clip-rule="evenodd" d="M4.38095 2.00305C4.17056 2.00305 4 2.17361 4 2.384V20.6697C4 20.8801 4.17056 21.0507 4.38095 21.0507H15.5238L18.9524 17.2412V2.384C18.9524 2.17361 18.7818 2.00305 18.5714 2.00305H4.38095ZM18.6104 21.0487C18.5976 21.05 18.5846 21.0507 18.5714 21.0507H18.5714" fill="#FFCA28"/>
<path d="M15.5234 17.622C15.5234 17.4116 15.694 17.2411 15.9044 17.2411H18.952L15.5234 21.0506V17.622Z" fill="#FFB300"/>
<path d="M7.56917 7.8934L6.40792 9.41803C6.38427 9.44865 6.35395 9.47348 6.31928 9.49065C6.28461 9.50781 6.24648 9.51686 6.20779 9.51711C6.1691 9.51735 6.13087 9.50879 6.09598 9.49206C6.06109 9.47533 6.03047 9.45089 6.00643 9.42057L5.38667 8.6303C5.36614 8.60394 5.35101 8.5738 5.34214 8.54159C5.33327 8.50938 5.33083 8.47574 5.33496 8.44259C5.33909 8.40943 5.34971 8.37742 5.36621 8.34837C5.38271 8.31932 5.40477 8.29381 5.43113 8.27329C5.48437 8.23184 5.5519 8.21324 5.61885 8.22158C5.652 8.22571 5.68402 8.23633 5.71307 8.25283C5.74211 8.26933 5.76763 8.29139 5.78815 8.31776L6.20234 8.84629L7.16298 7.57577C7.20461 7.52342 7.26511 7.48947 7.33149 7.48121C7.39787 7.47294 7.46484 7.49103 7.51804 7.53158C7.57124 7.57212 7.60643 7.63191 7.61606 7.6981C7.62569 7.7643 7.60899 7.83163 7.56954 7.88565L7.56917 7.8934Z" fill="#989898"/>
<path d="M7.56917 11.1314L6.40792 12.6561C6.38427 12.6867 6.35395 12.7115 6.31928 12.7287C6.28461 12.7459 6.24648 12.7549 6.20779 12.7551C6.1691 12.7554 6.13087 12.7468 6.09598 12.7301C6.06109 12.7134 6.03047 12.6889 6.00643 12.6586L5.38667 11.8683C5.36614 11.842 5.35101 11.8118 5.34214 11.7796C5.33327 11.7474 5.33083 11.7138 5.33496 11.6806C5.33909 11.6475 5.34971 11.6155 5.36621 11.5864C5.38271 11.5574 5.40477 11.5318 5.43113 11.5113C5.48437 11.4699 5.5519 11.4513 5.61885 11.4596C5.652 11.4637 5.68402 11.4744 5.71307 11.4909C5.74211 11.5074 5.76763 11.5294 5.78815 11.5558L6.20234 12.0843L7.16298 10.8138C7.20461 10.7615 7.26511 10.7275 7.33149 10.7192C7.39787 10.711 7.46484 10.7291 7.51804 10.7696C7.57124 10.8102 7.60643 10.8699 7.61606 10.9361C7.62569 11.0023 7.60899 11.0697 7.56954 11.1237L7.56917 11.1314Z" fill="#989898"/>
<path d="M7.56917 14.3696L6.40792 15.8942C6.38427 15.9248 6.35395 15.9497 6.31928 15.9668C6.28461 15.984 6.24648 15.9931 6.20779 15.9933C6.1691 15.9935 6.13087 15.985 6.09598 15.9683C6.06109 15.9515 6.03047 15.9271 6.00643 15.8968L5.38667 15.1065C5.36614 15.0801 5.35101 15.05 5.34214 15.0178C5.33327 14.9856 5.33083 14.9519 5.33496 14.9188C5.33909 14.8856 5.34971 14.8536 5.36621 14.8246C5.38271 14.7955 5.40477 14.77 5.43113 14.7495C5.48437 14.708 5.5519 14.6894 5.61885 14.6978C5.652 14.7019 5.68402 14.7125 5.71307 14.729C5.74211 14.7455 5.76763 14.7676 5.78815 14.794L6.20234 15.3225L7.16298 14.052C7.20461 13.9996 7.26511 13.9657 7.33149 13.9574C7.39787 13.9491 7.46484 13.9672 7.51804 14.0078C7.57124 14.0483 7.60643 14.1081 7.61606 14.1743C7.62569 14.2405 7.60899 14.3078 7.56954 14.3619L7.56917 14.3696Z" fill="#989898"/>
<rect x="8.61914" y="8.00305" width="7.61905" height="0.952381" rx="0.47619" fill="white"/>
<rect x="8.61914" y="11.2412" width="7.61905" height="0.952381" rx="0.47619" fill="white"/>
<rect x="8.61914" y="14.4792" width="7.61905" height="0.952381" rx="0.47619" fill="white"/>
</svg>
