<svg width="24" height="24" viewBox="0 0 24 24" fill="none" xmlns="http://www.w3.org/2000/svg">
<path d="M19.644 4.366C19.5318 4.25343 19.3984 4.16411 19.2516 4.10317C19.1048 4.04223 18.9474 4.01086 18.7885 4.01086C18.6295 4.01086 18.4722 4.04223 18.3254 4.10317C18.1786 4.16411 18.0452 4.25343 17.933 4.366L11.999 10.291L6.064 4.353C5.95177 4.24043 5.81844 4.15111 5.67164 4.09017C5.52483 4.02923 5.36745 3.99786 5.2085 3.99786C5.04955 3.99786 4.89216 4.02923 4.74535 4.09017C4.59855 4.15111 4.46522 4.24043 4.353 4.353C4.24043 4.46522 4.15111 4.59855 4.09017 4.74535C4.02923 4.89216 3.99786 5.04955 3.99786 5.2085C3.99786 5.36745 4.02923 5.52483 4.09017 5.67164C4.15111 5.81844 4.24043 5.95177 4.353 6.064L10.291 11.999L4.353 17.933C4.24043 18.0452 4.15111 18.1786 4.09017 18.3254C4.02923 18.4722 3.99786 18.6295 3.99786 18.7885C3.99786 18.9474 4.02923 19.1048 4.09017 19.2516C4.15111 19.3984 4.24043 19.5318 4.353 19.644C4.46522 19.7566 4.59855 19.8459 4.74535 19.9068C4.89216 19.9678 5.04955 19.9991 5.2085 19.9991C5.36745 19.9991 5.52483 19.9678 5.67164 19.9068C5.81844 19.8459 5.95177 19.7566 6.064 19.644L11.998 13.71L17.932 19.644C18.0442 19.7566 18.1776 19.8459 18.3244 19.9068C18.4712 19.9678 18.6285 19.9991 18.7875 19.9991C18.9464 19.9991 19.1038 19.9678 19.2506 19.9068C19.3974 19.8459 19.5308 19.7566 19.643 19.644C19.7556 19.5318 19.8449 19.3984 19.9058 19.2516C19.9668 19.1048 19.9981 18.9474 19.9981 18.7885C19.9981 18.6295 19.9668 18.4722 19.9058 18.3254C19.8449 18.1786 19.7556 18.0452 19.643 17.933L13.709 11.999L19.643 6.065C19.8649 5.83797 19.9892 5.53317 19.9894 5.2157C19.9896 4.89823 19.8656 4.59328 19.644 4.366Z" fill="#666666"/>
</svg>
