<svg width="24" height="24" viewBox="0 0 24 24" fill="none" xmlns="http://www.w3.org/2000/svg">
<path d="M12 22C17.5228 22 22 17.5228 22 12C22 6.47715 17.5228 2 12 2C6.47715 2 2 6.47715 2 12C2 17.5228 6.47715 22 12 22Z" fill="#666666"/>
<path d="M14.63 7.40801L12 10.038L9.37003 7.40801C9.24271 7.2726 9.08948 7.16414 8.91945 7.08907C8.74942 7.014 8.56604 6.97385 8.38019 6.97099C8.19435 6.96813 8.00982 7.00263 7.83756 7.07243C7.6653 7.14224 7.50881 7.24593 7.37738 7.37736C7.24596 7.50879 7.14226 7.66528 7.07246 7.83754C7.00265 8.0098 6.96815 8.19432 6.97101 8.38017C6.97387 8.56602 7.01403 8.74939 7.0891 8.91943C7.16417 9.08946 7.27262 9.24268 7.40803 9.37001L10.038 12L7.40803 14.63C7.27256 14.7573 7.16403 14.9104 7.08887 15.0804C7.01371 15.2504 6.97346 15.4338 6.97051 15.6196C6.96756 15.8055 7.00196 15.99 7.07168 16.1623C7.1414 16.3346 7.24501 16.4911 7.37637 16.6226C7.50773 16.7541 7.66417 16.8579 7.83639 16.9278C8.00862 16.9977 8.19313 17.0323 8.37897 17.0295C8.56482 17.0268 8.74822 16.9867 8.91829 16.9117C9.08836 16.8367 9.24164 16.7283 9.36903 16.593L11.999 13.963L14.63 16.593C14.7574 16.7284 14.9106 16.8369 15.0806 16.9119C15.2506 16.987 15.434 17.0272 15.6199 17.03C15.8057 17.0329 15.9902 16.9984 16.1625 16.9286C16.3348 16.8588 16.4913 16.7551 16.6227 16.6237C16.7541 16.4922 16.8578 16.3357 16.9276 16.1635C16.9974 15.9912 17.0319 15.8067 17.0291 15.6208C17.0262 15.435 16.986 15.2516 16.911 15.0816C16.8359 14.9116 16.7274 14.7583 16.592 14.631L13.962 12.001L16.592 9.37001C16.721 9.24127 16.8233 9.08836 16.8932 8.92003C16.963 8.7517 16.9989 8.57125 16.9989 8.38901C16.9989 8.20677 16.963 8.02632 16.8932 7.85799C16.8233 7.68966 16.721 7.53674 16.592 7.40801C16.3288 7.15371 15.9771 7.01158 15.611 7.01158C15.245 7.01158 14.8933 7.15371 14.63 7.40801Z" fill="white"/>
</svg>
