<svg width="16" height="16" viewBox="0 0 16 16" fill="none" xmlns="http://www.w3.org/2000/svg">
<path fill-rule="evenodd" clip-rule="evenodd" d="M8 14.6666C11.6819 14.6666 14.6667 11.6819 14.6667 7.99998C14.6667 4.31808 11.6819 1.33331 8 1.33331C4.3181 1.33331 1.33333 4.31808 1.33333 7.99998C1.33333 11.6819 4.3181 14.6666 8 14.6666ZM8.66666 3.33331C8.66666 2.96512 8.36818 2.66665 7.99999 2.66665C7.6318 2.66665 7.33333 2.96512 7.33333 3.33331V7.86191C7.33333 8.12712 7.43868 8.38148 7.62622 8.56901L9.86192 10.8047C10.1223 11.0651 10.5444 11.0651 10.8047 10.8047C11.0651 10.5444 11.0651 10.1223 10.8047 9.86191L8.66666 7.72384V3.33331Z" fill="#00429C"/>
</svg>
