<svg width="13" height="10" viewBox="0 0 13 10" fill="none" xmlns="http://www.w3.org/2000/svg">
<path d="M4.4998 6.88749L10.3998 0.987494C10.5831 0.80416 10.8165 0.712494 11.0998 0.712494C11.3831 0.712494 11.6165 0.80416 11.7998 0.987494C11.9831 1.17083 12.0748 1.40416 12.0748 1.68749C12.0748 1.97083 11.9831 2.20416 11.7998 2.38749L5.1998 8.98749C4.9998 9.18749 4.76647 9.28749 4.4998 9.28749C4.23314 9.28749 3.9998 9.18749 3.7998 8.98749L1.1998 6.38749C1.01647 6.20416 0.924805 5.97083 0.924805 5.68749C0.924805 5.40416 1.01647 5.17083 1.1998 4.98749C1.38314 4.80416 1.61647 4.71249 1.8998 4.71249C2.18314 4.71249 2.41647 4.80416 2.5998 4.98749L4.4998 6.88749Z" fill="white"/>
</svg>
