<svg width="25" height="24" viewBox="0 0 25 24" fill="none" xmlns="http://www.w3.org/2000/svg">
<path d="M12.75 15.2916C14.1307 15.2916 15.25 14.1723 15.25 12.7916C15.25 11.4109 14.1307 10.2916 12.75 10.2916C11.3693 10.2916 10.25 11.4109 10.25 12.7916C10.25 14.1723 11.3693 15.2916 12.75 15.2916Z" fill="#666666"/>
<path d="M20.75 4.94417H17.5833L16.34 3.63167C16.151 3.43167 15.9231 3.27245 15.6703 3.16382C15.4175 3.05519 15.1452 2.99944 14.87 3H10.63C10.3535 3.00036 10.0799 3.05648 9.82563 3.16502C9.57133 3.27355 9.34154 3.43227 9.15 3.63167L7.91667 4.94417H4.75C4.2273 4.93837 3.72354 5.13968 3.3488 5.50412C2.97405 5.86857 2.75878 6.36651 2.75 6.88917V18.5558C2.75899 19.0784 2.97437 19.5761 3.34909 19.9403C3.72381 20.3046 4.22744 20.5058 4.75 20.5H20.75C21.2726 20.5058 21.7762 20.3046 22.1509 19.9403C22.5256 19.5761 22.741 19.0784 22.75 18.5558V6.88917C22.7412 6.36651 22.5259 5.86857 22.1512 5.50412C21.7765 5.13968 21.2727 4.93837 20.75 4.94417ZM12.75 17.5833C11.4426 17.6009 10.1817 17.0989 9.24423 16.1875C8.30674 15.2761 7.76931 14.0299 7.75 12.7225C7.76931 11.4152 8.30674 10.1689 9.24423 9.25752C10.1817 8.34612 11.4426 7.84408 12.75 7.86167C14.0574 7.84408 15.3183 8.34612 16.2558 9.25752C17.1933 10.1689 17.7307 11.4152 17.75 12.7225C17.7307 14.0299 17.1933 15.2761 16.2558 16.1875C15.3183 17.0989 14.0574 17.6009 12.75 17.5833Z" fill="#666666"/>
</svg>
