<svg width="81" height="80" viewBox="0 0 81 80" fill="none" xmlns="http://www.w3.org/2000/svg">
<g id="clock" clip-path="url(#clip0_222_22442)">
<g id="Group 33551">
<path id="Rectangle 37" d="M81 39.5762C81 17.4848 63.0914 -0.423828 41 -0.423828C18.9086 -0.423828 1 17.4848 1 39.5762C1 61.6676 18.9086 79.5762 41 79.5762C63.0914 79.5762 81 61.6676 81 39.5762Z" fill="#BD5100"/>
<g id="Group 29775">
<path id="Rectangle 6005" d="M42.9987 20.956C42.9987 17.8881 40.5116 15.401 37.4437 15.401C34.3757 15.401 31.8887 17.8881 31.8887 20.956V45.401C31.8887 48.4689 34.3757 50.956 37.4437 50.956C40.5116 50.956 42.9987 48.4689 42.9987 45.401V20.956Z" fill="white"/>
<path id="Rectangle 6006" d="M40.8141 41.2607C38.3017 39.4999 34.8377 40.1092 33.0769 42.6215C31.3161 45.1339 31.9253 48.5979 34.4377 50.3587L47.1757 59.2862C49.6881 61.047 53.1521 60.4378 54.9129 57.9254C56.6737 55.4131 56.0644 51.949 53.5521 50.1882L40.8141 41.2607Z" fill="white"/>
</g>
</g>
</g>
<defs>
<clipPath id="clip0_222_22442">
<rect width="80" height="80" fill="white" transform="translate(0.5)"/>
</clipPath>
</defs>
</svg>
