<svg width="24" height="24" viewBox="0 0 24 24" fill="none" xmlns="http://www.w3.org/2000/svg">
<rect x="1.19922" y="6.17694" width="17.348" height="12.926" rx="1.36063" fill="#0360BB"/>
<rect x="7.15234" y="19.1033" width="5.44252" height="1.36063" fill="#0360BB"/>
<path d="M5.11133 21.8245C5.11133 21.073 5.7205 20.4639 6.47196 20.4639H13.2751C14.0266 20.4639 14.6357 21.073 14.6357 21.8245V22.5048H5.11133V21.8245Z" fill="#00429C"/>
<rect x="2.56055" y="7.53809" width="14.6268" height="10.2047" rx="0.680315" fill="white"/>
<circle cx="17.6961" cy="6.60236" r="5.10236" fill="#D01E53"/>
<rect x="17.0156" y="3.88242" width="1.36063" height="5.44252" rx="0.0930345" fill="white"/>
<rect x="20.418" y="5.92383" width="1.36063" height="5.44252" rx="0.0930345" transform="rotate(90 20.418 5.92383)" fill="white"/>
<path d="M12.9759 11.7564L13.8146 8.62636L16.1059 10.9177L12.9759 11.7564Z" fill="#D01E53"/>
<path fill-rule="evenodd" clip-rule="evenodd" d="M5.063 8.42212C4.38531 8.42212 3.83594 8.97149 3.83594 9.64918V11.2004C3.83594 12.7781 5.10872 14.0587 6.68356 14.0711V14.0712C6.68743 14.0712 6.69131 14.0712 6.69518 14.0712C6.69905 14.0712 6.70292 14.0712 6.7068 14.0712V14.0711C8.28163 14.0587 9.55442 12.7781 9.55442 11.2004V9.64918C9.55442 8.97149 9.00504 8.42212 8.32736 8.42212V9.16299C8.59587 9.16299 8.81355 9.38066 8.81355 9.64918V11.2004C8.81355 12.3729 7.86619 13.3241 6.69518 13.3303C5.52416 13.3241 4.5768 12.3729 4.5768 11.2004V9.64918C4.5768 9.38066 4.79448 9.16299 5.063 9.16299V8.42212Z" fill="#B9DCF9"/>
<path d="M6.68359 14.0002V15.806C6.68359 16.4198 7.18114 16.9173 7.79489 16.9173H8.21163C8.82538 16.9173 9.32293 16.4198 9.32293 15.806V15.6671C9.32293 15.0534 9.82048 14.5558 10.4342 14.5558H12.4948" stroke="#0771CD" stroke-width="0.740867"/>
<path d="M5.0625 8.04999H5.71076C6.06878 8.04999 6.35902 8.34022 6.35902 8.69825C6.35902 9.05627 6.06878 9.3465 5.71076 9.3465H5.0625V8.04999Z" fill="#0771CD"/>
<path d="M7.05469 8.69825C7.05469 8.34022 7.34492 8.04999 7.70295 8.04999H8.3512V9.3465H7.70295C7.34492 9.3465 7.05469 9.05627 7.05469 8.69825Z" fill="#0771CD"/>
<circle cx="12.4726" cy="14.5326" r="1.1113" fill="#D7D7D7"/>
<circle cx="12.4717" cy="14.5324" r="0.55565" fill="#00429C"/>
</svg>
