<svg width="24" height="24" viewBox="0 0 24 24" fill="none" xmlns="http://www.w3.org/2000/svg">
<path d="M19.6442 4.36606C19.532 4.25349 19.3986 4.16418 19.2518 4.10323C19.105 4.04229 18.9476 4.01092 18.7887 4.01092C18.6297 4.01092 18.4723 4.04229 18.3255 4.10323C18.1787 4.16418 18.0454 4.25349 17.9332 4.36606L11.9992 10.2911L6.06418 4.35306C5.95196 4.24049 5.81862 4.15118 5.67182 4.09023C5.52502 4.02929 5.36763 3.99792 5.20868 3.99792C5.04973 3.99792 4.89234 4.02929 4.74554 4.09023C4.59873 4.15118 4.4654 4.24049 4.35318 4.35306C4.24061 4.46528 4.1513 4.59861 4.09036 4.74542C4.02942 4.89222 3.99805 5.04961 3.99805 5.20856C3.99805 5.36751 4.02942 5.52489 4.09036 5.6717C4.1513 5.8185 4.24061 5.95184 4.35318 6.06406L10.2912 11.9991L4.35318 17.9331C4.24061 18.0453 4.1513 18.1786 4.09036 18.3254C4.02942 18.4722 3.99805 18.6296 3.99805 18.7886C3.99805 18.9475 4.02942 19.1049 4.09036 19.2517C4.1513 19.3985 4.24061 19.5318 4.35318 19.6441C4.4654 19.7566 4.59873 19.8459 4.74554 19.9069C4.89234 19.9678 5.04973 19.9992 5.20868 19.9992C5.36763 19.9992 5.52502 19.9678 5.67182 19.9069C5.81862 19.8459 5.95196 19.7566 6.06418 19.6441L11.9982 13.7101L17.9322 19.6441C18.0444 19.7566 18.1777 19.8459 18.3245 19.9069C18.4713 19.9678 18.6287 19.9992 18.7877 19.9992C18.9466 19.9992 19.104 19.9678 19.2508 19.9069C19.3976 19.8459 19.531 19.7566 19.6432 19.6441C19.7557 19.5318 19.8451 19.3985 19.906 19.2517C19.9669 19.1049 19.9983 18.9475 19.9983 18.7886C19.9983 18.6296 19.9669 18.4722 19.906 18.3254C19.8451 18.1786 19.7557 18.0453 19.6432 17.9331L13.7092 11.9991L19.6432 6.06506C19.8651 5.83804 19.9894 5.53323 19.9896 5.21576C19.9898 4.89829 19.8658 4.59334 19.6442 4.36606Z" fill="#666666"/>
</svg>
