<svg width="24" height="24" viewBox="0 0 24 24" fill="none" xmlns="http://www.w3.org/2000/svg">
<g id="cancel payment">
<g id="Group 33994">
<path id="Subtract" fill-rule="evenodd" clip-rule="evenodd" d="M3.50376 4C2.67326 4 2 4.67326 2 5.50376V6.34933H20.1391V5.50376C20.1391 4.67326 19.4658 4 18.6353 4H3.50376ZM2 15.6541V7.7591H20.1391V11.9477C19.5296 11.701 18.8633 11.5651 18.1653 11.5651C15.2586 11.5651 12.9022 13.9215 12.9022 16.8283C12.9022 16.939 12.9056 17.0489 12.9123 17.1579H3.50376C2.67326 17.1579 2 16.4846 2 15.6541ZM4.41969 13.9866C4.52859 14.1026 4.68288 14.1607 4.88255 14.1607C5.09129 14.1607 5.24784 14.1026 5.35221 13.9866C5.45658 13.8657 5.50877 13.6988 5.50877 13.4861V12.1876H5.88314C5.99205 12.1876 6.08734 12.2094 6.16902 12.2529C6.25524 12.2916 6.32558 12.3641 6.38003 12.4705L6.99945 13.6819C7.08567 13.8463 7.18323 13.9672 7.29214 14.0446C7.40558 14.122 7.55079 14.1607 7.72777 14.1607C7.90475 14.1607 8.03861 14.1196 8.12937 14.0373C8.22466 13.9503 8.27458 13.8415 8.27912 13.7109C8.28365 13.5755 8.24962 13.4377 8.17701 13.2975L7.83668 12.6446C7.73684 12.4415 7.61205 12.2916 7.46231 12.1949C7.39158 12.1469 7.3158 12.1103 7.23495 12.085C7.32572 12.0578 7.41058 12.0243 7.48953 11.9845C7.74365 11.8539 7.93651 11.6702 8.06811 11.4332C8.20424 11.1914 8.27231 10.9085 8.27231 10.5845C8.27231 10.0816 8.12256 9.68986 7.82306 9.40938C7.5281 9.12406 7.10835 8.9814 6.56381 8.9814H4.88935C4.68969 8.9814 4.53313 9.03943 4.41969 9.15549C4.31078 9.27155 4.25632 9.43839 4.25632 9.65601V13.4861C4.25632 13.6988 4.31078 13.8657 4.41969 13.9866ZM6.33919 11.2446H5.50877V10.0042H6.33919C6.5797 10.0042 6.76348 10.0574 6.89054 10.1638C7.0176 10.2653 7.08113 10.4177 7.08113 10.6208C7.08113 10.8336 7.0176 10.9907 6.89054 11.0923C6.76348 11.1938 6.5797 11.2446 6.33919 11.2446ZM8.73276 15.2995C8.83713 15.4107 8.98461 15.4664 9.1752 15.4664C9.37033 15.4664 9.52008 15.4107 9.62445 15.2995C9.73335 15.1883 9.78781 15.0263 9.78781 14.8135V13.6701C9.86296 13.7941 9.96959 13.8996 10.1077 13.9866C10.3074 14.1123 10.532 14.1752 10.7816 14.1752C11.072 14.1752 11.3261 14.1002 11.544 13.9503C11.7663 13.8004 11.9387 13.5852 12.0613 13.3047C12.1838 13.0242 12.245 12.693 12.245 12.3109C12.245 11.9192 12.1838 11.5855 12.0613 11.3099C11.9387 11.0342 11.7663 10.8215 11.544 10.6716C11.3261 10.5216 11.072 10.4467 10.7816 10.4467C10.5229 10.4467 10.2915 10.5144 10.0873 10.6498C9.9438 10.7436 9.83545 10.86 9.76227 10.9988C9.74682 10.8427 9.69634 10.7192 9.61083 10.628C9.511 10.5168 9.36352 10.4612 9.16839 10.4612C8.9778 10.4612 8.83032 10.5168 8.72595 10.628C8.62612 10.7393 8.57621 10.8988 8.57621 11.1068V14.8135C8.57621 15.0263 8.62839 15.1883 8.73276 15.2995ZM10.7203 13.1306C10.6296 13.1935 10.5229 13.2249 10.4004 13.2249C10.2144 13.2249 10.0623 13.1524 9.94436 13.0073C9.82638 12.8622 9.76739 12.6301 9.76739 12.3109C9.76739 12.0933 9.79462 11.9192 9.84907 11.7886C9.90352 11.6532 9.9784 11.5541 10.0737 11.4912C10.169 11.4284 10.2779 11.3969 10.4004 11.3969C10.5819 11.3969 10.7317 11.4695 10.8497 11.6146C10.9676 11.7548 11.0266 11.9869 11.0266 12.3109C11.0266 12.5237 10.9994 12.6978 10.945 12.8332C10.8905 12.9638 10.8156 13.0629 10.7203 13.1306Z" fill="#666666"/>
<path id="Subtract_2" fill-rule="evenodd" clip-rule="evenodd" d="M22.0173 16.831C22.0173 18.9592 20.2921 20.6844 18.1639 20.6844C16.0358 20.6844 14.3105 18.9592 14.3105 16.831C14.3105 14.7029 16.0358 12.9777 18.1639 12.9777C20.2921 12.9777 22.0173 14.7029 22.0173 16.831ZM19.3558 14.8323C19.576 14.6121 19.9331 14.6121 20.1533 14.8323C20.3735 15.0525 20.3735 15.4096 20.1533 15.6298L18.9565 16.8266L20.1527 18.0228C20.3729 18.243 20.3729 18.6 20.1527 18.8203C19.9324 19.0405 19.5754 19.0405 19.3552 18.8203L18.159 17.6241L16.9633 18.8198C16.7431 19.04 16.3861 19.04 16.1659 18.8198C15.9456 18.5995 15.9456 18.2425 16.1659 18.0223L17.3615 16.8266L16.1652 15.6303C15.945 15.4101 15.945 15.053 16.1652 14.8328C16.3854 14.6126 16.7425 14.6126 16.9627 14.8328L18.159 16.0291L19.3558 14.8323Z" fill="#666666"/>
</g>
</g>
</svg>
