<svg width="24" height="24" viewBox="0 0 24 24" fill="none" xmlns="http://www.w3.org/2000/svg">
<path d="M4.73232 5.49113H2.43545C2.12982 5.49113 1.88232 5.24363 1.88232 4.938V3.58425C1.88232 3.27863 2.12982 3.03113 2.43545 3.03113H4.73232C5.03795 3.03113 5.28545 3.27863 5.28545 3.58425V4.938C5.28496 5.08455 5.22652 5.22495 5.1229 5.32858C5.01927 5.4322 4.87887 5.49063 4.73232 5.49113Z" fill="#90A4AE"/>
<path d="M0.75 9.17175H23.25V20.448H0.75V9.17175Z" fill="#212121"/>
<path d="M0.75 20.1929V20.7047C0.75 21.076 1.05188 21.3779 1.42313 21.3779H22.5788C22.95 21.3779 23.2519 21.076 23.2519 20.7047V20.1929H0.75Z" fill="#B0BEC5"/>
<path d="M22.8244 4.53296H1.50938C1.08938 4.53296 0.75 4.87233 0.75 5.29233V9.36483H23.25V4.95858C23.25 4.72233 23.0588 4.53296 22.8244 4.53296Z" fill="#B0BEC5"/>
<path d="M21.0922 8.48543H17.6891C17.5936 8.48543 17.5021 8.4475 17.4345 8.37999C17.367 8.31248 17.3291 8.22091 17.3291 8.12543V5.75355C17.3291 5.5548 17.4904 5.39355 17.6891 5.39355H21.0922C21.291 5.39355 21.4522 5.5548 21.4522 5.75355V8.12731C21.4522 8.32418 21.2929 8.48543 21.0922 8.48543Z" fill="#78909C"/>
<path d="M18.0828 5.95789H20.6984V7.92101H18.0828V5.95789Z" fill="#212121"/>
<path d="M11.3965 7.58168C11.3552 7.58168 11.3196 7.54793 11.3196 7.5048V5.56418C11.3196 5.52293 11.3533 5.4873 11.3965 5.4873H15.7502C15.7915 5.4873 15.8271 5.52105 15.8271 5.56418V7.5048C15.8271 7.54605 15.7933 7.58168 15.7502 7.58168H11.3965Z" fill="#FCEBCD"/>
<path d="M12.1013 7.2197C11.9588 7.2197 11.8425 7.10345 11.8425 6.96095V6.1097C11.8425 5.9672 11.9588 5.85095 12.1013 5.85095C12.2438 5.85095 12.36 5.9672 12.36 6.1097V6.96095C12.36 7.10345 12.2438 7.2197 12.1013 7.2197ZM12.8344 7.2197C12.7257 7.2197 12.6375 7.13158 12.6375 7.02283V6.04783C12.6375 5.99561 12.6583 5.94554 12.6952 5.90862C12.7321 5.87169 12.7822 5.85095 12.8344 5.85095C12.8866 5.85095 12.9367 5.87169 12.9736 5.90862C13.0105 5.94554 13.0313 5.99561 13.0313 6.04783V7.02283C13.0313 7.13158 12.9432 7.2197 12.8344 7.2197ZM13.4794 7.2197C13.4411 7.2197 13.4044 7.20449 13.3773 7.17742C13.3502 7.15034 13.335 7.11362 13.335 7.07533V5.9972C13.335 5.95891 13.3502 5.92219 13.3773 5.89511C13.4044 5.86804 13.4411 5.85283 13.4794 5.85283C13.5177 5.85283 13.5544 5.86804 13.5815 5.89511C13.6086 5.92219 13.6238 5.95891 13.6238 5.9972V7.07533C13.6238 7.15408 13.56 7.2197 13.4794 7.2197Z" fill="white"/>
<path d="M13.5734 20.8341C16.9689 20.8341 19.7215 18.0815 19.7215 14.686C19.7215 11.2905 16.9689 8.53784 13.5734 8.53784C10.1779 8.53784 7.42529 11.2905 7.42529 14.686C7.42529 18.0815 10.1779 20.8341 13.5734 20.8341Z" fill="#616161"/>
<path d="M13.5735 20.0241C16.5216 20.0241 18.9116 17.6342 18.9116 14.686C18.9116 11.7379 16.5216 9.3479 13.5735 9.3479C10.6253 9.3479 8.23535 11.7379 8.23535 14.686C8.23535 17.6342 10.6253 20.0241 13.5735 20.0241Z" fill="#E0E0E0"/>
<path d="M13.5729 18.498C15.6781 18.498 17.3847 16.7914 17.3847 14.6861C17.3847 12.5809 15.6781 10.8743 13.5729 10.8743C11.4676 10.8743 9.76099 12.5809 9.76099 14.6861C9.76099 16.7914 11.4676 18.498 13.5729 18.498Z" fill="#2F7889"/>
<path d="M13.5732 19.5911C16.2822 19.5911 18.4782 17.3951 18.4782 14.6861C18.4782 11.9772 16.2822 9.78113 13.5732 9.78113C10.8643 9.78113 8.66821 11.9772 8.66821 14.6861C8.66821 17.3951 10.8643 19.5911 13.5732 19.5911Z" fill="#2F7889"/>
<path opacity="0.25" d="M13.5728 16.3548C14.4944 16.3548 15.2416 15.6077 15.2416 14.6861C15.2416 13.7645 14.4944 13.0173 13.5728 13.0173C12.6512 13.0173 11.9041 13.7645 11.9041 14.6861C11.9041 15.6077 12.6512 16.3548 13.5728 16.3548Z" fill="black"/>
</svg>
