<svg width="24" height="24" viewBox="0 0 24 24" fill="none" xmlns="http://www.w3.org/2000/svg">
	<path
		d="M20 21.5C20 22.0523 19.5523 22.5 19 22.5H5C4.44772 22.5 4 22.0523 4 21.5V2.5C4 1.94772 4.44772 1.5 5 1.5H14.5858C14.851 1.5 15.1054 1.60536 15.2929 1.79289L19.7071 6.20711C19.8946 6.39464 20 6.649 20 6.91421V21.5Z"
		fill="#90CAF9"
	/>
	<path d="M19.25 7H15C14.7239 7 14.5 6.77614 14.5 6.5V2.25L19.25 7Z" fill="#E1F5FE" />
	<path
		d="M8 11C8 10.7239 8.22386 10.5 8.5 10.5H16C16.2761 10.5 16.5 10.7239 16.5 11C16.5 11.2761 16.2761 11.5 16 11.5H8.5C8.22386 11.5 8 11.2761 8 11ZM8 13C8 12.7239 8.22386 12.5 8.5 12.5H14C14.2761 12.5 14.5 12.7239 14.5 13C14.5 13.2761 14.2761 13.5 14 13.5H8.5C8.22386 13.5 8 13.2761 8 13ZM8 15C8 14.7239 8.22386 14.5 8.5 14.5H16C16.2761 14.5 16.5 14.7239 16.5 15C16.5 15.2761 16.2761 15.5 16 15.5H8.5C8.22386 15.5 8 15.2761 8 15ZM8 17C8 16.7239 8.22386 16.5 8.5 16.5H14C14.2761 16.5 14.5 16.7239 14.5 17C14.5 17.2761 14.2761 17.5 14 17.5H8.5C8.22386 17.5 8 17.2761 8 17Z"
		fill="#1976D2"
	/>
</svg>
