<svg width="240" height="240" viewBox="0 0 240 240" fill="none" xmlns="http://www.w3.org/2000/svg">
<g id="Frame 34042">
<g id="Group 34024">
<path id="Vector 6" d="M20.2964 143.505C17.484 181.943 42.0187 206.819 102.175 209.944C168.191 209.944 197.173 186.959 213.113 147.834C256.081 42.3666 91.39 -6.46218 91.39 58.7396C91.39 85.5138 23.1087 105.068 20.2964 143.505Z" fill="#E2F1FC"/>
<g id="Group 34023">
<rect id="Rectangle 6675" x="49.0498" y="94.3303" width="122.931" height="91.5957" rx="9.64165" fill="#0771CD"/>
<rect id="Rectangle 6676" x="91.2319" y="185.929" width="38.5666" height="9.64165" fill="#0360BB"/>
<path id="Rectangle 6677" d="M76.77 205.211C76.77 199.887 81.0867 195.57 86.4117 195.57H134.62C139.945 195.57 144.262 199.887 144.262 205.211V210.032H76.77V205.211Z" fill="#00429C"/>
<rect id="Rectangle 6674" x="58.6918" y="103.976" width="103.648" height="72.3124" rx="4.82083" fill="white"/>
<g id="Group 34013">
<path id="Union" fill-rule="evenodd" clip-rule="evenodd" d="M76.4249 110.24C71.6227 110.24 67.7297 114.133 67.7297 118.935V129.927C67.7297 141.108 76.7487 150.181 87.9081 150.27V150.271C87.9356 150.271 87.9631 150.271 87.9906 150.271C88.0181 150.271 88.0456 150.271 88.0731 150.271V150.27C99.2325 150.181 108.251 141.108 108.251 129.927V118.935C108.251 114.133 104.359 110.24 99.5563 110.24V115.49C101.459 115.49 103.002 117.033 103.002 118.935V129.927C103.002 138.236 96.2885 144.976 87.9906 145.021C79.6927 144.976 72.9796 138.236 72.9796 129.927V118.935C72.9796 117.033 74.5221 115.49 76.4249 115.49V110.24Z" fill="#B9DCF9"/>
<path id="Vector 5" d="M87.9094 149.767V162.564C87.9094 166.913 91.4351 170.439 95.7843 170.439H98.7373C103.087 170.439 106.612 166.913 106.612 162.564V161.579C106.612 157.23 110.138 153.705 114.487 153.705H129.088" stroke="#666666" stroke-width="5.2499"/>
<path id="Rectangle 6678" d="M76.4255 107.603H81.0192C83.5562 107.603 85.6129 109.66 85.6129 112.197C85.6129 114.734 83.5562 116.79 81.0192 116.79H76.4255V107.603Z" fill="#0771CD"/>
<path id="Rectangle 6679" d="M90.5349 112.197C90.5349 109.66 92.5916 107.603 95.1286 107.603H99.7222V116.79H95.1286C92.5916 116.79 90.5349 114.734 90.5349 112.197Z" fill="#0771CD"/>
<circle id="Ellipse 1628" cx="128.925" cy="153.54" r="7.87486" fill="#D7D7D7"/>
<circle id="Ellipse 1629" cx="128.924" cy="153.538" r="3.93743" fill="#00429C"/>
</g>
<g id="clock">
<circle id="Ellipse 1643" cx="162.447" cy="108.498" r="39.1783" fill="#D01E53"/>
<circle id="Ellipse 1644" cx="162.445" cy="108.496" r="31.3426" fill="#F3F3F3"/>
<rect id="Rectangle 6683" x="159.635" y="81.0744" width="5.68182" height="27.4248" rx="2.84091" fill="#666666"/>
<rect id="Rectangle 6684" x="180.531" y="115.989" width="5.68182" height="20.8951" rx="2.84091" transform="rotate(120 180.531 115.989)" fill="#666666"/>
<circle id="Ellipse 1645" cx="162.455" cy="108.634" r="5.22377" fill="#989898"/>
</g>
</g>
</g>
</g>
</svg>
