<svg width="32" height="32" viewBox="0 0 32 32" fill="none" xmlns="http://www.w3.org/2000/svg">
<rect x="4.44434" y="5.49353" width="11.3778" height="2.44331" fill="#989898"/>
<rect x="2.31055" y="0.800781" width="15.6444" height="4.69116" rx="1.17279" fill="#666666"/>
<rect x="1.59961" y="7.91272" width="17.0667" height="19.2" rx="1.56372" fill="#EBEBEB"/>
<rect x="1.59961" y="10.7565" width="17.0667" height="11.3778" fill="#0771CD"/>
<rect x="9.06641" y="12.1816" width="2.13333" height="8.53333" rx="0.355556" fill="white"/>
<rect x="14.3994" y="15.3822" width="2.13333" height="8.53333" rx="0.355556" transform="rotate(90 14.3994 15.3822)" fill="white"/>
<path d="M14.9541 19.1992C14.9541 16.9901 16.745 15.1992 18.9541 15.1992C21.1632 15.1992 22.9541 16.9901 22.9541 19.1992V21.5992H14.9541V19.1992Z" fill="#B91D4B"/>
<path d="M14.9541 23.9987C14.9541 26.2078 16.745 27.9987 18.9541 27.9987C21.1632 27.9987 22.9541 26.2078 22.9541 23.9987V21.5987H14.9541V23.9987Z" fill="#CDE6F9"/>
<path d="M22.2224 19.2294C23.7844 17.6673 26.3171 17.6673 27.8792 19.2294C29.4413 20.7915 29.4413 23.3242 27.8792 24.8863L26.1822 26.5833L20.5253 20.9265L22.2224 19.2294Z" fill="#D01E53"/>
<path d="M18.8284 22.6247C17.2663 24.1868 17.2663 26.7195 18.8284 28.2816C20.3905 29.8436 22.9232 29.8436 24.4853 28.2816L26.1823 26.5845L20.5255 20.9276L18.8284 22.6247Z" fill="#E2F1FC"/>
</svg>
