<svg width="153" height="39" viewBox="0 0 153 39" fill="none" xmlns="http://www.w3.org/2000/svg">
<path d="M16.62 22.624C16.62 23.1909 16.3835 23.7346 15.9626 24.1355C15.5417 24.5364 14.9708 24.7616 14.3755 24.7616C13.7802 24.7616 13.2093 24.5364 12.7884 24.1355C12.3675 23.7346 12.131 23.1909 12.131 22.624V22.4268C11.5902 23.1957 10.8553 23.8228 9.99372 24.2506C9.13213 24.6785 8.17149 24.8933 7.2 24.8754C3.51 24.8754 0 22.1135 0 17.0754V17.0192C0 11.9782 3.454 9.21919 7.2 9.21919C8.14954 9.20162 9.09019 9.39621 9.94651 9.78736C10.8028 10.1785 11.551 10.7553 12.131 11.4716V6.00872C12.131 5.44179 12.3675 4.89807 12.7884 4.49719C13.2093 4.09631 13.7802 3.87109 14.3755 3.87109C14.9708 3.87109 15.5417 4.09631 15.9626 4.49719C16.3835 4.89807 16.62 5.44179 16.62 6.00872V22.6211V22.624ZM4.486 17.0201V17.0763C4.486 19.583 6.257 21.244 8.353 21.244C10.449 21.244 12.191 19.583 12.191 17.0763V17.0201C12.191 14.5135 10.449 12.8525 8.353 12.8525C6.257 12.8525 4.486 14.4859 4.486 17.0201Z" fill="white"/>
<path d="M19.1573 6.01557C19.1573 5.44889 19.3937 4.90542 19.8144 4.50472C20.2351 4.10402 20.8058 3.87891 21.4008 3.87891C21.9958 3.87891 22.5665 4.10402 22.9872 4.50472C23.4079 4.90542 23.6443 5.44889 23.6443 6.01557V15.3632L29.2553 10.2946C29.4975 10.0138 29.7985 9.78405 30.139 9.62008C30.4796 9.45611 30.8522 9.36149 31.2333 9.34224C31.4961 9.34065 31.7566 9.38928 31.9994 9.48524C32.2422 9.5812 32.4623 9.72256 32.6467 9.90094C32.8311 10.0793 32.9761 10.2911 33.0731 10.5238C33.17 10.7565 33.2171 11.0053 33.2113 11.2556C33.1868 11.6177 33.0819 11.9708 32.9035 12.2914C32.7251 12.612 32.4772 12.893 32.1763 13.1156L28.6323 16.0156L32.8543 21.4499C33.1991 21.837 33.3967 22.3235 33.4153 22.8308C33.4158 23.091 33.3614 23.3486 33.2553 23.5884C33.1492 23.8281 32.9936 24.0451 32.7977 24.2264C32.6018 24.4078 32.3696 24.5497 32.115 24.6439C31.8603 24.7381 31.5884 24.7825 31.3153 24.7746C30.927 24.7948 30.5403 24.7135 30.197 24.5397C29.8537 24.3658 29.5668 24.1058 29.3673 23.7879L25.4413 18.6356L23.6413 20.1832V22.6337C23.6413 23.2003 23.4049 23.7438 22.9842 24.1445C22.5635 24.5452 21.9928 24.7703 21.3978 24.7703C20.8028 24.7703 20.2321 24.5452 19.8114 24.1445C19.3907 23.7438 19.1543 23.2003 19.1543 22.6337L19.1573 6.01557Z" fill="white"/>
<path d="M33.9766 17.1332V17.077C33.9842 16.0196 34.2142 14.9744 34.653 14.0031C35.0919 13.0318 35.7306 12.1541 36.5315 11.4218C37.3324 10.6895 38.2792 10.1174 39.3161 9.7394C40.353 9.36138 41.4589 9.18504 42.5686 9.22082C43.6719 9.17972 44.7726 9.35092 45.8048 9.72419C46.8371 10.0975 47.7797 10.6651 48.5764 11.3933C49.373 12.1214 50.0073 12.995 50.4414 13.962C50.8754 14.9289 51.1003 15.9692 51.1026 17.0208V17.077C51.0949 18.1344 50.8649 19.1796 50.4261 20.1509C49.9873 21.1222 49.3485 21.9999 48.5476 22.7322C47.7467 23.4645 46.7999 24.0366 45.763 24.4146C44.7261 24.7927 43.6202 24.969 42.5106 24.9332C41.4072 24.9743 40.3065 24.8031 39.2743 24.4298C38.242 24.0566 37.2994 23.4889 36.5027 22.7608C35.7061 22.0326 35.0718 21.159 34.6377 20.1921C34.2037 19.2251 33.9788 18.1848 33.9766 17.1332ZM46.6766 17.1332V17.077C46.6989 16.541 46.6081 16.0062 46.4095 15.5043C46.2109 15.0024 45.9086 14.5435 45.5204 14.1548C45.1322 13.7662 44.666 13.4557 44.1496 13.2418C43.6331 13.0279 43.0768 12.9148 42.5136 12.9094C41.9568 12.9099 41.4059 13.0181 40.8943 13.2276C40.3828 13.437 39.9213 13.7433 39.5379 14.1278C39.1544 14.5123 38.857 14.967 38.6638 15.4644C38.4705 15.9617 38.3854 16.4912 38.4136 17.0208V17.077C38.3912 17.613 38.482 18.1478 38.6806 18.6497C38.8792 19.1517 39.1815 19.6106 39.5697 19.9992C39.9579 20.3878 40.4241 20.6983 40.9406 20.9122C41.4571 21.1262 42.0134 21.2392 42.5766 21.2446C43.1334 21.2442 43.6843 21.1359 44.1958 20.9265C44.7073 20.717 45.1688 20.4107 45.5522 20.0262C45.9357 19.6417 46.2331 19.187 46.4263 18.6897C46.6196 18.1923 46.7047 17.6628 46.6766 17.1332Z" fill="white"/>
<path d="M52.8701 11.4702C52.8701 10.9035 53.1065 10.36 53.5273 9.95932C53.948 9.55862 54.5186 9.33351 55.1136 9.33351C55.7087 9.33351 56.2793 9.55862 56.7 9.95932C57.1208 10.36 57.3571 10.9035 57.3571 11.4702V11.6397C57.8603 10.9035 58.5468 10.2973 59.3554 9.8749C60.1641 9.45252 61.0699 9.22711 61.9922 9.21875C65.3862 9.21875 67.3651 11.3587 67.3651 14.8226V22.6226C67.3651 23.1892 67.1288 23.7327 66.708 24.1334C66.2873 24.5341 65.7167 24.7592 65.1216 24.7592C64.5266 24.7592 63.956 24.5341 63.5352 24.1334C63.1145 23.7327 62.8781 23.1892 62.8781 22.6226V16.173C62.8781 14.1464 61.8781 13.1054 60.1621 13.1054C58.4461 13.1054 57.3561 14.1464 57.3561 16.173V22.6178C57.3561 23.1845 57.1198 23.7279 56.699 24.1286C56.2783 24.5293 55.7077 24.7545 55.1126 24.7545C54.5176 24.7545 53.947 24.5293 53.5262 24.1286C53.1055 23.7279 52.8691 23.1845 52.8691 22.6178V11.4749L52.8701 11.4702Z" fill="white"/>
<path d="M69.372 23.1563C69.1087 23.0034 68.8914 22.7883 68.7413 22.5318C68.5911 22.2753 68.5131 21.9861 68.5149 21.6925C68.5106 21.4698 68.5535 21.2485 68.6409 21.0419C68.7283 20.8353 68.8586 20.6476 69.0239 20.49C69.1892 20.3324 69.3862 20.2081 69.603 20.1246C69.8198 20.0411 70.0521 20 70.286 20.0039C70.5973 20.0009 70.9035 20.0786 71.172 20.2287C72.4411 21.0452 73.922 21.5125 75.452 21.5791C76.72 21.5791 77.342 21.1296 77.342 20.4534V20.3972C77.342 19.4668 75.807 19.1592 74.063 18.6506C71.848 18.0315 69.338 17.0449 69.338 14.1173V14.0601C69.338 10.9925 71.938 9.27344 75.126 9.27344C76.8307 9.29579 78.5072 9.69105 80.026 10.4287C80.347 10.5701 80.6183 10.7969 80.8071 11.0818C80.9958 11.3667 81.0941 11.6975 81.09 12.0344C81.0911 12.2587 81.0451 12.481 80.9547 12.6881C80.8643 12.8952 80.7314 13.0831 80.5637 13.2406C80.396 13.3981 80.1969 13.522 79.9782 13.6052C79.7594 13.6884 79.5255 13.7291 79.29 13.7249C79.0012 13.7293 78.7163 13.6613 78.464 13.5277C77.4066 12.9814 76.2389 12.6567 75.039 12.5753C73.946 12.5753 73.385 13.0268 73.385 13.6172V13.6734C73.385 14.5192 74.891 14.9115 76.604 15.4753C78.819 16.1792 81.387 17.1896 81.387 19.9515V20.0087C81.387 23.3591 78.7589 24.8782 75.3339 24.8782C73.2142 24.8647 71.1436 24.2695 69.37 23.1639L69.372 23.1563Z" fill="white"/>
<path d="M97.5087 22.6259C97.5087 23.1929 97.2722 23.7366 96.8513 24.1375C96.4304 24.5383 95.8595 24.7636 95.2642 24.7636C94.6689 24.7636 94.098 24.5383 93.6771 24.1375C93.2562 23.7366 93.0197 23.1929 93.0197 22.6259V22.4564C92.5166 23.1926 91.8301 23.7988 91.0214 24.2212C90.2128 24.6436 89.307 24.869 88.3847 24.8774C84.9847 24.8774 83.0117 22.7383 83.0117 19.2736V11.4736C83.0117 10.9069 83.2481 10.3634 83.6688 9.9627C84.0896 9.562 84.6602 9.33689 85.2552 9.33689C85.8502 9.33689 86.4209 9.562 86.8416 9.9627C87.2624 10.3634 87.4987 10.9069 87.4987 11.4736V17.9231C87.4987 19.9497 88.4987 20.9926 90.2147 20.9926C91.9307 20.9926 93.0207 19.9507 93.0207 17.9231V11.4736C93.0207 10.9066 93.2572 10.3629 93.6781 9.96203C94.099 9.56115 94.6699 9.33594 95.2652 9.33594C95.8605 9.33594 96.4314 9.56115 96.8523 9.96203C97.2732 10.3629 97.5097 10.9066 97.5097 11.4736V22.624L97.5087 22.6259Z" fill="white"/>
<path d="M100.251 6.01429C100.245 5.72991 100.299 5.44718 100.408 5.18269C100.518 4.9182 100.683 4.67728 100.892 4.47403C101.101 4.27078 101.35 4.1093 101.625 3.99906C101.901 3.88882 102.196 3.83203 102.495 3.83203C102.794 3.83203 103.089 3.88882 103.365 3.99906C103.64 4.1093 103.889 4.27078 104.098 4.47403C104.307 4.67728 104.472 4.9182 104.582 5.18269C104.691 5.44718 104.745 5.72991 104.738 6.01429V22.6267C104.745 22.9111 104.691 23.1938 104.582 23.4583C104.472 23.7228 104.307 23.9637 104.098 24.1669C103.889 24.3702 103.64 24.5317 103.365 24.6419C103.089 24.7521 102.794 24.8089 102.495 24.8089C102.196 24.8089 101.901 24.7521 101.625 24.6419C101.35 24.5317 101.101 24.3702 100.892 24.1669C100.683 23.9637 100.518 23.7228 100.408 23.4583C100.299 23.1938 100.245 22.9111 100.251 22.6267V6.01429Z" fill="white"/>
<path d="M130.989 24.763C130.539 24.7425 130.115 24.5579 129.805 24.2476C129.494 23.9373 129.321 23.525 129.321 23.0963C129.321 22.6676 129.494 22.2553 129.805 21.945C130.115 21.6346 130.539 21.4501 130.989 21.4296C132.189 21.4276 133.339 20.9724 134.186 20.164C135.034 19.3555 135.511 18.2598 135.511 17.1172V7.65439C135.511 6.51182 135.034 5.4161 134.186 4.60764C133.339 3.79919 132.189 3.34402 130.989 3.34201H130.722C129.733 3.34408 128.771 3.65416 127.984 4.225C127.197 4.79585 126.627 5.59614 126.362 6.50391C126.238 6.93015 125.942 7.29212 125.538 7.5102C125.134 7.72828 124.656 7.7846 124.208 7.66677C123.761 7.54894 123.381 7.2666 123.152 6.88189C122.923 6.49717 122.863 6.04157 122.987 5.61533C123.457 4.00457 124.467 2.58429 125.863 1.57115C127.259 0.558007 128.965 0.00760566 130.72 0.00390625H130.987C133.116 0.00743745 135.156 0.815035 136.66 2.24949C138.164 3.68395 139.009 5.6281 139.01 7.65534V17.1144C139.009 19.1416 138.164 21.0858 136.66 22.5202C135.156 23.9547 133.116 24.7623 130.987 24.7658L130.989 24.763Z" fill="white"/>
<path d="M130.989 24.7681H121.07C118.941 24.7646 116.901 23.957 115.397 22.5225C113.893 21.088 113.048 19.1439 113.047 17.1166V16.8624C113.048 14.8351 113.893 12.891 115.397 11.4565C116.901 10.0221 118.941 9.21447 121.07 9.21094H128.297C128.747 9.23142 129.171 9.41595 129.481 9.72627C129.792 10.0366 129.965 10.4489 129.965 10.8776C129.965 11.3063 129.792 11.7186 129.481 12.0289C129.171 12.3393 128.747 12.5238 128.297 12.5443H121.075C119.875 12.5463 118.725 13.0015 117.878 13.8099C117.03 14.6184 116.553 15.7141 116.553 16.8567V17.1109C116.553 18.2535 117.03 19.3492 117.878 20.1577C118.725 20.9661 119.875 21.4213 121.075 21.4233H130.994C131.443 21.4438 131.868 21.6283 132.178 21.9387C132.489 22.249 132.662 22.6612 132.662 23.09C132.662 23.5187 132.489 23.931 132.178 24.2413C131.868 24.5516 131.443 24.7362 130.994 24.7566L130.989 24.7681Z" fill="white"/>
<path d="M135.317 38.0978H135.05C132.922 38.0943 130.882 37.2867 129.377 35.8523C127.873 34.4178 127.028 32.4737 127.027 30.4464V20.9874C127.028 18.9601 127.873 17.016 129.377 15.5815C130.882 14.1471 132.922 13.3395 135.05 13.3359C135.5 13.3564 135.924 13.541 136.235 13.8513C136.545 14.1616 136.719 14.5739 136.719 15.0026C136.719 15.4313 136.545 15.8436 136.235 16.1539C135.924 16.4643 135.5 16.6488 135.05 16.6693C133.851 16.6713 132.701 17.1265 131.853 17.9349C131.005 18.7434 130.529 19.8391 130.528 20.9817V30.4407C130.529 31.5833 131.005 32.679 131.853 33.4875C132.701 34.2959 133.851 34.7511 135.05 34.7531H135.317C136.307 34.751 137.268 34.4409 138.055 33.8701C138.843 33.2992 139.412 32.4989 139.677 31.5912C139.739 31.3802 139.843 31.1828 139.984 31.0102C140.126 30.8375 140.301 30.6932 140.501 30.5852C140.701 30.4773 140.922 30.4079 141.15 30.3811C141.378 30.3542 141.609 30.3705 141.831 30.4288C142.052 30.4872 142.26 30.5865 142.441 30.7211C142.622 30.8558 142.774 31.0231 142.887 31.2135C143 31.404 143.073 31.6138 143.102 31.8311C143.13 32.0483 143.113 32.2688 143.051 32.4797C142.582 34.0905 141.572 35.5108 140.176 36.5239C138.779 37.5371 137.074 38.0875 135.318 38.0912L135.317 38.0978Z" fill="white"/>
<path d="M144.971 28.8923H137.749C137.299 28.8718 136.875 28.6873 136.565 28.377C136.254 28.0667 136.081 27.6544 136.081 27.2256C136.081 26.7969 136.254 26.3846 136.565 26.0743C136.875 25.764 137.299 25.5795 137.749 25.559H144.971C146.171 25.5565 147.321 25.1007 148.168 24.2917C149.016 23.4826 149.491 22.3865 149.491 21.2437V20.9895C149.491 19.8469 149.014 18.7512 148.167 17.9427C147.319 17.1343 146.169 16.6791 144.969 16.6771H135.05C134.601 16.6566 134.176 16.4721 133.866 16.1617C133.555 15.8514 133.382 15.4392 133.382 15.0104C133.382 14.5817 133.555 14.1694 133.866 13.8591C134.176 13.5488 134.601 13.3642 135.05 13.3438H144.969C147.098 13.3473 149.138 14.1549 150.642 15.5893C152.146 17.0238 152.991 18.9679 152.992 20.9952V21.2495C152.991 23.2767 152.146 25.2208 150.642 26.6553C149.138 28.0898 147.098 28.8974 144.969 28.9009L144.971 28.8923Z" fill="white"/>
<path d="M148.173 9.1981C150.836 9.1981 152.995 7.13903 152.995 4.59905C152.995 2.05906 150.836 0 148.173 0C145.509 0 143.351 2.05906 143.351 4.59905C143.351 7.13903 145.509 9.1981 148.173 9.1981Z" fill="white"/>
</svg>
