<svg width="40" height="40" viewBox="0 0 40 40" fill="none" xmlns="http://www.w3.org/2000/svg">
<circle cx="20" cy="20.0031" r="20" fill="#FCE3EA"/>
<rect x="10.5361" y="8.14758" width="18.6905" height="23.8095" rx="0.476191" fill="#018DFF"/>
<path fill-rule="evenodd" clip-rule="evenodd" d="M9.22619 6.95618C8.9632 6.95618 8.75 7.16938 8.75 7.43237V30.2895C8.75 30.5525 8.9632 30.7657 9.22619 30.7657H23.155L27.4405 26.0041V7.43237C27.4405 7.16937 27.2273 6.95618 26.9643 6.95618H9.22619Z" fill="white"/>
<path d="M23.1553 26.4802C23.1553 26.2172 23.3685 26.004 23.6315 26.004H27.441L23.1553 30.7659V26.4802Z" fill="#008CFF"/>
<path d="M13.2122 14.3196L11.7606 16.2254C11.7311 16.2636 11.6932 16.2947 11.6498 16.3161C11.6065 16.3376 11.5588 16.3489 11.5105 16.3492C11.4621 16.3495 11.4143 16.3388 11.3707 16.3179C11.3271 16.297 11.2888 16.2664 11.2588 16.2285L10.4841 15.2407C10.4584 15.2077 10.4395 15.1701 10.4284 15.1298C10.4173 15.0895 10.4143 15.0475 10.4194 15.0061C10.4246 14.9646 10.4379 14.9246 10.4585 14.8883C10.4791 14.852 10.5067 14.8201 10.5396 14.7944C10.6062 14.7426 10.6906 14.7194 10.7743 14.7298C10.8157 14.735 10.8558 14.7482 10.8921 14.7689C10.9284 14.7895 10.9603 14.8171 10.9859 14.85L11.5037 15.5107L12.7045 13.9225C12.7565 13.8571 12.8321 13.8147 12.9151 13.8043C12.9981 13.794 13.0818 13.8166 13.1483 13.8673C13.2148 13.918 13.2588 13.9927 13.2708 14.0754C13.2828 14.1582 13.262 14.2424 13.2127 14.3099L13.2122 14.3196Z" fill="#B9DCF9"/>
<path d="M13.2122 18.3674L11.7606 20.2732C11.7311 20.3115 11.6932 20.3425 11.6498 20.364C11.6065 20.3854 11.5588 20.3967 11.5105 20.3971C11.4621 20.3974 11.4143 20.3867 11.3707 20.3657C11.3271 20.3448 11.2888 20.3143 11.2588 20.2764L10.4841 19.2886C10.4584 19.2556 10.4395 19.2179 10.4284 19.1777C10.4173 19.1374 10.4143 19.0953 10.4194 19.0539C10.4246 19.0125 10.4379 18.9724 10.4585 18.9361C10.4791 18.8998 10.5067 18.8679 10.5396 18.8423C10.6062 18.7905 10.6906 18.7672 10.7743 18.7776C10.8157 18.7828 10.8558 18.7961 10.8921 18.8167C10.9284 18.8373 10.9603 18.8649 10.9859 18.8979L11.5037 19.5585L12.7045 17.9704C12.7565 17.9049 12.8321 17.8625 12.9151 17.8522C12.9981 17.8419 13.0818 17.8645 13.1483 17.9151C13.2148 17.9658 13.2588 18.0406 13.2708 18.1233C13.2828 18.206 13.262 18.2902 13.2127 18.3577L13.2122 18.3674Z" fill="#B9DCF9"/>
<path d="M13.2122 22.4153L11.7606 24.3211C11.7311 24.3593 11.6932 24.3904 11.6498 24.4118C11.6065 24.4333 11.5588 24.4446 11.5105 24.4449C11.4621 24.4452 11.4143 24.4345 11.3707 24.4136C11.3271 24.3927 11.2888 24.3621 11.2588 24.3242L10.4841 23.3364C10.4584 23.3035 10.4395 23.2658 10.4284 23.2255C10.4173 23.1852 10.4143 23.1432 10.4194 23.1018C10.4246 23.0603 10.4379 23.0203 10.4585 22.984C10.4791 22.9477 10.5067 22.9158 10.5396 22.8901C10.6062 22.8383 10.6906 22.8151 10.7743 22.8255C10.8157 22.8307 10.8558 22.8439 10.8921 22.8646C10.9284 22.8852 10.9603 22.9128 10.9859 22.9457L11.5037 23.6064L12.7045 22.0182C12.7565 21.9528 12.8321 21.9104 12.9151 21.9C12.9981 21.8897 13.0818 21.9123 13.1483 21.963C13.2148 22.0137 13.2588 22.0884 13.2708 22.1712C13.2828 22.2539 13.262 22.3381 13.2127 22.4056L13.2122 22.4153Z" fill="#B9DCF9"/>
<rect x="14.5234" y="14.4562" width="9.52381" height="1.19048" rx="0.595238" fill="#0771CD"/>
<rect x="14.5234" y="18.504" width="9.52381" height="1.19048" rx="0.595238" fill="#0771CD"/>
<rect x="14.5234" y="22.5519" width="9.52381" height="1.19048" rx="0.595238" fill="#0771CD"/>
<circle cx="27.7775" cy="29.9114" r="5.92593" fill="#BB1A4F"/>
<rect x="30.0312" y="26.6095" width="1.48148" height="7.90123" rx="0.740741" transform="rotate(45 30.0312 26.6095)" fill="white"/>
<rect x="31.1426" y="32.1642" width="1.48148" height="7.90123" rx="0.740741" transform="rotate(135 31.1426 32.1642)" fill="white"/>
</svg>
