<svg width="145" height="144" viewBox="0 0 145 144" fill="none" xmlns="http://www.w3.org/2000/svg">
<path d="M10.2239 58.9859H86.4764C84.2132 58.9579 82.0433 58.0795 80.3981 56.5251C78.7528 54.9708 77.7526 52.8543 77.5963 50.5963L76.2474 27.8697H0L1.34377 50.5963C1.50013 52.8543 2.50033 54.9708 4.14558 56.5251C5.79082 58.0795 7.96068 58.9579 10.2239 58.9859Z" fill="#D01E53"/>
<path opacity="0.6" d="M10.2239 58.9859H86.4764C84.2132 58.9579 82.0433 58.0795 80.3981 56.5251C78.7528 54.9708 77.7526 52.8543 77.5963 50.5963L76.2474 27.8697H0L1.34377 50.5963C1.50013 52.8543 2.50033 54.9708 4.14558 56.5251C5.79082 58.0795 7.96068 58.9579 10.2239 58.9859Z" fill="white"/>
<path d="M92.1288 12.7515H24.2506C23.1685 12.7387 22.0955 12.9508 21.0996 13.3742C20.1037 13.7977 19.2066 14.4233 18.465 15.2114C17.7235 15.9996 17.1536 16.9331 16.7916 17.953C16.4295 18.9728 16.2831 20.0567 16.3617 21.136L18.1194 50.6018C18.1995 51.6815 18.0542 52.766 17.6928 53.7866C17.3313 54.8071 16.7615 55.7413 16.0196 56.5298C15.2777 57.3182 14.38 57.9438 13.3833 58.3667C12.3867 58.7896 11.313 59.0006 10.2305 58.9863H86.4779C87.5604 59.0006 88.6341 58.7896 89.6307 58.3667C90.6273 57.9438 91.5251 57.3182 92.267 56.5298C93.0089 55.7413 93.5787 54.8071 93.9402 53.7866C94.3016 52.766 94.4469 51.6815 94.3667 50.6018L94.5558 53.7901L92.6245 21.1564C92.5413 20.0751 92.6844 18.9883 93.0445 17.9654C93.4046 16.9424 93.9739 16.0057 94.7161 15.215C95.4583 14.4242 96.3571 13.7968 97.3553 13.3726C98.3534 12.9485 99.4289 12.7369 100.513 12.7515H92.1288Z" fill="#D01E53"/>
<path d="M100.511 12.752H24.2484C26.5115 12.7774 28.682 13.6544 30.3276 15.2082C31.9732 16.762 32.9732 18.8785 33.1285 21.1365L39.4252 127.317C39.5762 129.864 41.6856 131.852 44.2368 131.852H110.828C113.602 131.852 115.803 129.516 115.639 126.747L109.391 21.1569C109.239 18.8962 108.24 16.7759 106.594 15.2184C104.949 13.6608 102.777 12.7802 100.511 12.752Z" fill="#D01E53"/>
<path opacity="0.8" d="M100.511 12.752H24.2484C26.5115 12.7774 28.682 13.6544 30.3276 15.2082C31.9732 16.762 32.9732 18.8785 33.1285 21.1365L39.4252 127.317C39.5762 129.864 41.6856 131.852 44.2368 131.852H110.828C113.602 131.852 115.803 129.516 115.639 126.747L109.391 21.1569C109.239 18.8962 108.24 16.7759 106.594 15.2184C104.949 13.6608 102.777 12.7802 100.511 12.752Z" fill="white"/>
<path d="M58.8187 44.266H44.6861L43.8328 30.1232H57.9705L58.8187 44.266Z" fill="white"/>
<path d="M60.7921 77.5336H46.6442L45.8063 63.3857H59.9542L60.7921 77.5336Z" fill="white"/>
<path d="M62.7579 110.801H48.61L47.7516 96.6529H61.8995L62.7579 110.801Z" fill="white"/>
<path d="M98.2545 30.1186H65.7281V31.7842H98.2545V30.1186Z" fill="white"/>
<path d="M94.8006 36.3617H66.0961V38.0274H94.8006V36.3617Z" fill="white"/>
<path d="M98.9904 42.6008H66.4641V44.2664H98.9904V42.6008Z" fill="white"/>
<path d="M100.219 63.3857H67.6922V65.0514H100.219V63.3857Z" fill="white"/>
<path d="M87.1563 69.6289H68.0625V71.2946H87.1563V69.6289Z" fill="white"/>
<path d="M78.2888 75.868H68.4328V77.5336H78.2888V75.868Z" fill="white"/>
<path d="M100.962 75.868H84.6984V77.5336H100.962V75.868Z" fill="white"/>
<path d="M102.187 96.6529H69.6609V98.3186H102.187V96.6529Z" fill="white"/>
<path d="M102.56 102.896H70.0336V104.562H102.56V102.896Z" fill="white"/>
<path d="M88.3917 109.135H70.4016V110.801H88.3917V109.135Z" fill="white"/>
<path d="M113.853 74.7985L108.138 79.0815L123.88 100.087L129.595 95.8038L113.853 74.7985Z" fill="#0771CD"/>
<path d="M125.271 90.879L120.372 94.5511C119.338 95.326 119.128 96.7924 119.903 97.8263L134.555 117.378C135.33 118.411 136.797 118.621 137.831 117.847L142.73 114.174C143.764 113.4 143.974 111.933 143.199 110.899L128.547 91.348C127.772 90.3141 126.305 90.1041 125.271 90.879Z" fill="#0360BB"/>
<g opacity="0.2">
<path d="M115.776 35.2648C119.194 39.8272 121.182 45.3007 121.49 50.9931C121.797 56.6856 120.41 62.3414 117.503 67.2454C114.596 72.1493 110.3 76.0812 105.159 78.5438C100.017 81.0064 94.261 81.8891 88.6179 81.0804C82.9748 80.2716 77.6982 77.8077 73.4554 74.0001C69.2126 70.1926 66.1941 65.2124 64.7816 59.6894C63.3691 54.1664 63.6261 48.3486 65.5199 42.9716C67.4138 37.5946 70.8596 32.8999 75.4215 29.4812C78.4507 27.2106 81.8975 25.559 85.5652 24.6207C89.2328 23.6825 93.0493 23.476 96.7967 24.0131C100.544 24.5502 104.149 25.8203 107.406 27.7509C110.662 29.6815 113.506 32.2347 115.776 35.2648Z" fill="white"/>
<path d="M119.698 42.4183C122.363 49.5352 122.113 57.4165 119.002 64.3504C115.891 71.2843 110.17 76.7109 103.082 79.4516L119.698 42.4183Z" fill="#EBEBEB"/>
<path d="M97.1269 24.0671L74.3659 74.7869C70.5643 71.65 67.6291 67.5921 65.8398 62.9997L82.6308 25.5522C87.2559 23.8241 92.2474 23.3127 97.1269 24.0671Z" fill="#EBEBEB"/>
<path d="M113.953 33.0565L92.274 81.3695C90.3844 81.3373 88.5024 81.1211 86.6547 80.724L109.737 29.2804C111.267 30.3928 112.679 31.658 113.953 33.0565Z" fill="#EBEBEB"/>
<path d="M100.972 24.9409L77.5767 77.086C77.2782 76.9032 76.9834 76.7129 76.6961 76.5226L99.9646 24.6573C100.3 24.7431 100.64 24.8327 100.972 24.9409Z" fill="#EBEBEB"/>
<path d="M74.2862 30.3808L63.9019 53.5149C63.8683 52.653 63.8795 51.7873 63.9318 50.9254L72.3757 32.1009C72.9802 31.5076 73.6145 30.933 74.2862 30.3808Z" fill="#EBEBEB"/>
</g>
<path d="M92.7096 85.0962C86.272 85.0962 79.979 83.1872 74.6264 79.6106C69.2737 76.034 65.102 70.9504 62.6386 65.0028C60.1752 59.0552 59.5308 52.5106 60.787 46.1968C62.0432 39.8829 65.1435 34.0834 69.6958 29.5316C74.2481 24.9798 80.048 21.8801 86.362 20.6247C92.676 19.3692 99.2205 20.0143 105.168 22.4784C111.115 24.9425 116.198 29.1148 119.774 34.4679C123.35 39.8209 125.259 46.1141 125.258 52.5517C125.247 61.1804 121.814 69.4525 115.712 75.5535C109.611 81.6545 101.338 85.0864 92.7096 85.0962ZM92.7096 23.731C87.0103 23.731 81.439 25.421 76.7001 28.5873C71.9613 31.7536 68.2677 36.254 66.0866 41.5194C63.9054 46.7847 63.3345 52.5787 64.4461 58.1685C65.5577 63.7584 68.3019 68.8931 72.3316 72.9233C76.3614 76.9536 81.4957 79.6984 87.0854 80.8108C92.6751 81.9231 98.4691 81.353 103.735 79.1724C109 76.9919 113.501 73.299 116.668 68.5605C119.835 63.8221 121.526 58.251 121.527 52.5517C121.519 44.9111 118.48 37.5856 113.078 32.1825C107.675 26.7794 100.35 23.7399 92.7096 23.731Z" fill="#0360BB"/>
</svg>
