<svg width="16" height="16" viewBox="0 0 16 16" fill="none" xmlns="http://www.w3.org/2000/svg">
<path d="M9.72675 1.72683C9.60258 1.60223 9.45504 1.50335 9.2926 1.43585C9.13015 1.36836 8.95599 1.33358 8.78008 1.3335H4.00008C3.64678 1.33455 3.30826 1.47537 3.05844 1.72519C2.80862 1.97501 2.6678 2.31353 2.66675 2.66683V13.3335C2.66674 13.686 2.8063 14.0241 3.05491 14.274C3.30352 14.5238 3.64095 14.6651 3.99341 14.6668H12.0001C12.3534 14.6658 12.6919 14.525 12.9417 14.2751C13.1915 14.0253 13.3324 13.6868 13.3334 13.3335V5.88683C13.3339 5.71182 13.2994 5.53848 13.2318 5.37704C13.1643 5.2156 13.0651 5.06932 12.9401 4.94683L9.72675 1.72683ZM10.0001 12.0002H6.00008C5.82327 12.0002 5.6537 11.9299 5.52868 11.8049C5.40365 11.6799 5.33341 11.5103 5.33341 11.3335C5.33341 11.1567 5.40365 10.9871 5.52868 10.8621C5.6537 10.7371 5.82327 10.6668 6.00008 10.6668H10.0001C10.1769 10.6668 10.3465 10.7371 10.4715 10.8621C10.5965 10.9871 10.6667 11.1567 10.6667 11.3335C10.6667 11.5103 10.5965 11.6799 10.4715 11.8049C10.3465 11.9299 10.1769 12.0002 10.0001 12.0002ZM10.0001 9.3335H6.00008C5.82327 9.3335 5.6537 9.26326 5.52868 9.13823C5.40365 9.01321 5.33341 8.84364 5.33341 8.66683C5.33341 8.49002 5.40365 8.32045 5.52868 8.19542C5.6537 8.0704 5.82327 8.00016 6.00008 8.00016H10.0001C10.1769 8.00016 10.3465 8.0704 10.4715 8.19542C10.5965 8.32045 10.6667 8.49002 10.6667 8.66683C10.6667 8.84364 10.5965 9.01321 10.4715 9.13823C10.3465 9.26326 10.1769 9.3335 10.0001 9.3335ZM8.66675 5.3335V2.3335L12.3334 6.00016H9.33341C9.1566 6.00016 8.98703 5.92992 8.86201 5.8049C8.73699 5.67988 8.66675 5.51031 8.66675 5.3335Z" fill="#666666"/>
</svg>
