<svg width="20" height="21" viewBox="0 0 20 21" fill="none" xmlns="http://www.w3.org/2000/svg">
<path d="M6.47678 2.53254L7.37428 2.24588C8.21428 1.97754 9.11261 2.41171 9.47261 3.26004L10.1893 4.95005C10.5018 5.68588 10.3284 6.55171 9.76095 7.09004L8.18345 8.58838C8.28067 9.48505 8.58178 10.3675 9.08678 11.2359C9.56701 12.0758 10.2105 12.811 10.9793 13.3984L12.8759 12.765C13.5943 12.5259 14.3768 12.8017 14.8176 13.4492L15.8443 14.9575C16.3576 15.7109 16.2651 16.7492 15.6293 17.3875L14.9476 18.0717C14.2693 18.7525 13.3009 19 12.4043 18.72C10.2887 18.06 8.34345 16.1009 6.56845 12.8425C4.79123 9.57866 4.164 6.80977 4.68678 4.53588C4.90678 3.57921 5.58845 2.81671 6.47845 2.53254" fill="#666666"/>
</svg>
