<svg width="17" height="17" viewBox="0 0 17 17" fill="none" xmlns="http://www.w3.org/2000/svg">
<g id="Failed">
<path id="Subtract" fill-rule="evenodd" clip-rule="evenodd" d="M8.335 16.67C12.9383 16.67 16.67 12.9383 16.67 8.335C16.67 3.73171 12.9383 0 8.335 0C3.73171 0 0 3.73171 0 8.335C0 12.9383 3.73171 16.67 8.335 16.67ZM4.37094 4.37094C4.64219 4.09969 5.08198 4.09969 5.35323 4.37094L8.335 7.35271L11.3168 4.37094C11.588 4.09969 12.0278 4.09969 12.2991 4.37094C12.5703 4.64219 12.5703 5.08198 12.2991 5.35323L9.31729 8.335L12.2991 11.3168C12.5703 11.588 12.5703 12.0278 12.2991 12.2991C12.0278 12.5703 11.588 12.5703 11.3168 12.2991L8.335 9.31729L5.35323 12.2991C5.08198 12.5703 4.64219 12.5703 4.37094 12.2991C4.09969 12.0278 4.09969 11.588 4.37094 11.3168L7.35271 8.335L4.37094 5.35323C4.09969 5.08198 4.09969 4.64219 4.37094 4.37094Z" fill="#B00020"/>
</g>
</svg>
