<svg width="24" height="24" viewBox="0 0 24 24" fill="none" xmlns="http://www.w3.org/2000/svg">
<path d="M20.5 21H6.5C5.4 21 4.5 20.1 4.5 19V9C4.5 7.9 5.4 7 6.5 7H20.5C21.6 7 22.5 7.9 22.5 9V19C22.5 20.1 21.6 21 20.5 21Z" fill="#A0CFF7"/>
<path d="M17.5 18H3.5C2.4 18 1.5 17.1 1.5 16V6C1.5 4.9 2.4 4 3.5 4H17.5C18.6 4 19.5 4.9 19.5 6V16C19.5 17.1 18.6 18 17.5 18Z" fill="#E3F2FD"/>
<mask id="mask0_1898_143" style="mask-type:alpha" maskUnits="userSpaceOnUse" x="1" y="4" width="19" height="14">
<path d="M17.5 18H3.5C2.4 18 1.5 17.1 1.5 16V6C1.5 4.9 2.4 4 3.5 4H17.5C18.6 4 19.5 4.9 19.5 6V16C19.5 17.1 18.6 18 17.5 18Z" fill="#BBDEFB"/>
</mask>
<g mask="url(#mask0_1898_143)">
<path d="M6.60215 7L-1 18.0654H14.2043L6.60215 7Z" fill="#178038"/>
<path d="M15.8938 11.7302L10.8257 18.0653H20.9619L15.8938 11.7302Z" fill="#33CC63"/>
<path d="M15 9.5C15.8284 9.5 16.5 8.82843 16.5 8C16.5 7.17157 15.8284 6.5 15 6.5C14.1716 6.5 13.5 7.17157 13.5 8C13.5 8.82843 14.1716 9.5 15 9.5Z" fill="#FFB300"/>
</g>
</svg>
