<svg width="24" height="25" viewBox="0 0 24 25" fill="none" xmlns="http://www.w3.org/2000/svg">
<circle cx="12" cy="12.5" r="12" fill="#B9DCF9"/>
<path fill-rule="evenodd" clip-rule="evenodd" d="M7.07756 5.13025C5.93016 5.13025 5 6.06041 5 7.20781V9.83416C5 12.5057 7.15524 14.6738 9.82183 14.6947V14.6949C9.82832 14.6949 9.8348 14.6949 9.84127 14.6948C9.84775 14.6949 9.85423 14.6949 9.86071 14.6949V14.6947C12.5273 14.6738 14.6825 12.5057 14.6825 9.83416V7.20781C14.6825 6.06041 13.7524 5.13025 12.605 5.13025V6.38463C13.0596 6.38463 13.4282 6.75318 13.4282 7.20781V9.83416C13.4282 11.8194 11.8241 13.43 9.84127 13.4404C7.8585 13.43 6.25438 11.8194 6.25438 9.83416V7.20781C6.25438 6.75318 6.62293 6.38463 7.07756 6.38463V5.13025Z" fill="#0771CD"/>
<path d="M7.07812 4.5H8.17571C8.78188 4.5 9.27329 4.9914 9.27329 5.59758C9.27329 6.20376 8.78188 6.69516 8.17571 6.69516H7.07812V4.5Z" fill="#0771CD"/>
<path d="M10.4492 5.59758C10.4492 4.9914 10.9406 4.5 11.5468 4.5H12.6444V6.69516H11.5468C10.9406 6.69516 10.4492 6.20376 10.4492 5.59758Z" fill="#0771CD"/>
<path fill-rule="evenodd" clip-rule="evenodd" d="M18.8855 14.8887H16.1708C14.7853 14.8887 13.6621 16.0119 13.6621 17.3974V17.6326C13.6621 18.3254 13.1005 18.887 12.4077 18.887H11.7021C11.0093 18.887 10.4477 18.3254 10.4477 17.6326V14.5751H9.19336V17.6326C9.19336 19.0182 10.3166 20.1414 11.7021 20.1414H12.4077C13.7932 20.1414 14.9165 19.0182 14.9165 17.6326V17.3974C14.9165 16.7046 15.4781 16.143 16.1708 16.143H18.9571C18.7858 15.9726 18.6797 15.7367 18.6797 15.4759C18.6797 15.2538 18.7567 15.0496 18.8855 14.8887Z" fill="#0771CD"/>
<path fill-rule="evenodd" clip-rule="evenodd" d="M19.6218 17.3569C20.661 17.3569 21.5034 16.5145 21.5034 15.4753C21.5034 14.4362 20.661 13.5938 19.6218 13.5938C18.5826 13.5938 17.7402 14.4362 17.7402 15.4753C17.7402 16.5145 18.5826 17.3569 19.6218 17.3569ZM19.6218 16.4163C20.1414 16.4163 20.5626 15.9951 20.5626 15.4755C20.5626 14.9559 20.1414 14.5347 19.6218 14.5347C19.1022 14.5347 18.681 14.9559 18.681 15.4755C18.681 15.9951 19.1022 16.4163 19.6218 16.4163Z" fill="#0771CD"/>
</svg>
