<svg width="40" height="40" viewBox="0 0 40 40" fill="none" xmlns="http://www.w3.org/2000/svg">
<circle cx="20" cy="20" r="20" fill="#EBEBEB"/>
<mask id="mask0_554_5678" style="mask-type:alpha" maskUnits="userSpaceOnUse" x="0" y="0" width="40" height="40">
<circle cx="20" cy="20" r="20" fill="#EBEBEB"/>
</mask>
<g mask="url(#mask0_554_5678)">
<path d="M20 31.02L18.26 29.436C12.08 23.832 8 20.124 8 15.6C8 11.892 10.904 9 14.6 9C16.688 9 18.692 9.972 20 11.496C21.308 9.972 23.312 9 25.4 9C29.096 9 32 11.892 32 15.6C32 20.124 27.92 23.832 21.74 29.436L20 31.02Z" fill="#BB1A4F"/>
<path d="M21.4402 14.5C21.4402 14.2239 21.2163 14 20.9402 14H19.0602C18.7841 14 18.5602 14.2239 18.5602 14.5V17.3538H15.7002C15.4241 17.3538 15.2002 17.5776 15.2002 17.8538V19.7338C15.2002 20.0099 15.4241 20.2338 15.7002 20.2338H18.5602V23.0875C18.5602 23.3637 18.7841 23.5875 19.0602 23.5875H20.9402C21.2163 23.5875 21.4402 23.3637 21.4402 23.0875V20.2338H24.3002C24.5763 20.2338 24.8002 20.0099 24.8002 19.7338V17.8538C24.8002 17.5776 24.5763 17.3538 24.3002 17.3538H21.4402V14.5Z" fill="white"/>
<path d="M5.34436 33.1931V25.9414C8.14267 25.4188 13.9941 24.3473 15.0132 24.2428C16.0324 24.1383 18.7915 24.7437 20.0437 25.0594C21.8403 25.7127 21.9056 28.1953 19.3577 28.4239C18.5193 28.326 16.6138 28.0646 15.6012 27.9666C14.4958 27.8597 14.066 29.8286 15.3072 30.2532C17.0385 30.569 20.5794 31.2005 20.893 31.2005C21.2066 31.2005 26.2936 30.1988 28.7979 29.6979C31.2805 29.8286 30.6925 31.8538 29.5819 32.6378C25.8907 33.8355 18.2732 36.244 17.3325 36.2962C16.3917 36.3485 8.94841 34.2492 5.34436 33.1931Z" fill="#F6D5B1"/>
<rect y="25" width="6" height="9" fill="#666666"/>
</g>
</svg>
