<svg width="24" height="24" viewBox="0 0 24 24" fill="none" xmlns="http://www.w3.org/2000/svg">
<rect x="3.99902" y="3.22949" width="14.569" height="18.7931" rx="0.370496" fill="#62ACEA"/>
<rect x="5.33496" y="2.00049" width="14.569" height="18.7931" rx="0.370496" fill="#B9DCF9"/>
<rect x="7.23047" y="12.7686" width="10.7759" height="0.948276" rx="0.474138" fill="white"/>
<path d="M7.23047 15.5579C7.23047 15.296 7.44275 15.0837 7.70461 15.0837H17.5322C17.7941 15.0837 18.0063 15.296 18.0063 15.5579C18.0063 15.8197 17.7941 16.032 17.5322 16.032H7.70461C7.44275 16.032 7.23047 15.8197 7.23047 15.5579Z" fill="white"/>
<path d="M7.23047 17.876C7.23047 17.6141 7.44275 17.4019 7.70461 17.4019H17.5322C17.7941 17.4019 18.0063 17.6141 18.0063 17.876C18.0063 18.1379 17.7941 18.3501 17.5322 18.3501H7.70461C7.44275 18.3501 7.23047 18.1379 7.23047 17.876Z" fill="white"/>
<ellipse cx="12.62" cy="7.36778" rx="3.70689" ry="3.70689" fill="#D01E53"/>
<rect x="12.0166" y="4.95435" width="1.2069" height="4.82759" rx="0.258621" fill="white"/>
<rect x="15.0352" y="6.76416" width="1.2069" height="4.82759" rx="0.258621" transform="rotate(90 15.0352 6.76416)" fill="white"/>
</svg>
