<svg width="14" height="14" viewBox="0 0 14 14" fill="none" xmlns="http://www.w3.org/2000/svg">
<path d="M13.6666 9.66732V1.66732C13.6656 1.31401 13.5248 0.975468 13.2749 0.725642C13.0251 0.475816 12.6866 0.33501 12.3333 0.333984H4.33325C3.97995 0.33501 3.6414 0.475816 3.39158 0.725642C3.14175 0.975468 3.00094 1.31401 2.99992 1.66732V9.66732C3.00094 10.0206 3.14175 10.3592 3.39158 10.609C3.6414 10.8588 3.97995 10.9996 4.33325 11.0007H12.3333C12.6866 10.9996 13.0251 10.8588 13.2749 10.609C13.5248 10.3592 13.6656 10.0206 13.6666 9.66732ZM6.59992 7.35398L7.68659 8.80732L9.40881 6.66065C9.44004 6.62172 9.47962 6.5903 9.52462 6.56871C9.56962 6.54712 9.6189 6.53591 9.66881 6.53591C9.71872 6.53591 9.76799 6.54712 9.813 6.56871C9.858 6.5903 9.89757 6.62172 9.92881 6.66065L11.9021 9.12732C11.9409 9.17635 11.9651 9.23528 11.9719 9.29739C11.9788 9.3595 11.9681 9.42229 11.9409 9.47859C11.9138 9.5349 11.8714 9.58245 11.8186 9.61582C11.7658 9.64918 11.7046 9.66703 11.6421 9.66732H4.99992C4.93801 9.66732 4.87733 9.65008 4.82468 9.61753C4.77202 9.58499 4.72946 9.53842 4.70178 9.48306C4.67409 9.42769 4.66237 9.3657 4.66793 9.30405C4.67349 9.2424 4.69611 9.18351 4.73325 9.13398L6.06659 7.35621C6.09823 7.31568 6.13869 7.28291 6.1849 7.26036C6.2311 7.23782 6.28184 7.2261 6.33325 7.2261C6.38467 7.2261 6.4354 7.23782 6.48161 7.26036C6.52782 7.28291 6.56828 7.31568 6.59992 7.35621V7.35398ZM0.333252 3.66732V12.334C0.334278 12.6873 0.475083 13.0258 0.72491 13.2757C0.974736 13.5255 1.31328 13.6663 1.66659 13.6673H10.3333C10.5101 13.6673 10.6796 13.5971 10.8047 13.4721C10.9297 13.347 10.9999 13.1775 10.9999 13.0007C10.9999 12.8238 10.9297 12.6543 10.8047 12.5292C10.6796 12.4042 10.5101 12.334 10.3333 12.334H2.33325C2.15644 12.334 1.98687 12.2637 1.86185 12.1387C1.73682 12.0137 1.66659 11.8441 1.66659 11.6673V3.66732C1.66659 3.57977 1.64934 3.49308 1.61584 3.4122C1.58234 3.33131 1.53323 3.25782 1.47132 3.19591C1.40942 3.13401 1.33592 3.0849 1.25504 3.0514C1.17416 3.0179 1.08747 3.00065 0.999919 3.00065C0.912371 3.00065 0.82568 3.0179 0.744796 3.0514C0.663913 3.0849 0.59042 3.13401 0.528514 3.19591C0.466608 3.25782 0.417502 3.33131 0.383999 3.4122C0.350496 3.49308 0.333252 3.57977 0.333252 3.66732Z" fill="#666666"/>
</svg>
