<svg width="81" height="80" viewBox="0 0 81 80" fill="none" xmlns="http://www.w3.org/2000/svg">
<g clip-path="url(#clip0_641_21188)">
<path d="M40.5 0C32.5888 0 24.8552 2.34596 18.2772 6.74122C11.6992 11.1365 6.57234 17.3836 3.54484 24.6927C0.517332 32.0017 -0.274802 40.0444 1.26861 47.8036C2.81202 55.5629 6.62165 62.6902 12.2157 68.2843C17.8098 73.8784 24.9372 77.688 32.6964 79.2314C40.4556 80.7748 48.4983 79.9827 55.8074 76.9552C63.1164 73.9277 69.3635 68.8008 73.7588 62.2228C78.1541 55.6448 80.5 47.9113 80.5 40C80.4961 29.3925 76.2806 19.2206 68.78 11.72C61.2794 4.2194 51.1075 0.00387865 40.5 0ZM40.5 44C39.4401 43.9969 38.4245 43.5745 37.675 42.825C36.9255 42.0755 36.5031 41.0599 36.5 40V24C36.5 22.9391 36.9214 21.9217 37.6716 21.1716C38.4217 20.4214 39.4392 20 40.5 20C41.5609 20 42.5783 20.4214 43.3284 21.1716C44.0786 21.9217 44.5 22.9391 44.5 24V40C44.4969 41.0599 44.0745 42.0755 43.325 42.825C42.5756 43.5745 41.5599 43.9969 40.5 44ZM44.5 60C43.3919 60.9672 41.9709 61.5001 40.5 61.5001C39.0292 61.5001 37.6081 60.9672 36.5 60C35.5328 58.8919 34.9999 57.4709 34.9999 56C34.9999 54.5292 35.5328 53.1081 36.5 52C37.6081 51.0328 39.0292 50.4999 40.5 50.4999C41.9709 50.4999 43.3919 51.0328 44.5 52C45.4672 53.1081 46.0002 54.5292 46.0002 56C46.0002 57.4709 45.4672 58.8919 44.5 60Z" fill="#FFB300"/>
</g>
<defs>
<clipPath id="clip0_641_21188">
<rect width="80" height="80" fill="white" transform="translate(0.5)"/>
</clipPath>
</defs>
</svg>
