<svg width="24" height="24" viewBox="0 0 24 24" fill="none" xmlns="http://www.w3.org/2000/svg">
<path d="M12 5C10.6155 5 9.26216 5.41054 8.11101 6.17971C6.95987 6.94888 6.06266 8.04213 5.53285 9.32122C5.00303 10.6003 4.86441 12.0078 5.13451 13.3656C5.4046 14.7235 6.07129 15.9708 7.05026 16.9497C8.02922 17.9287 9.2765 18.5954 10.6344 18.8655C11.9922 19.1356 13.3997 18.997 14.6788 18.4672C15.9579 17.9373 17.0511 17.0401 17.8203 15.889C18.5895 14.7378 19 13.3845 19 12C19 10.1435 18.2625 8.36301 16.9497 7.05025C15.637 5.7375 13.8565 5 12 5Z" fill="#BD5100"/>
<path d="M11.9998 11.5642C11.8141 11.5642 11.6361 11.6379 11.5048 11.7692C11.3736 11.9005 11.2998 12.0785 11.2998 12.2642V15.0642C11.2998 15.2498 11.3736 15.4279 11.5048 15.5591C11.6361 15.6904 11.8141 15.7642 11.9998 15.7642C12.1855 15.7642 12.3635 15.6904 12.4948 15.5591C12.6261 15.4279 12.6998 15.2498 12.6998 15.0642V12.2642C12.6998 12.1722 12.6817 12.0812 12.6465 11.9963C12.6113 11.9113 12.5598 11.8342 12.4948 11.7692C12.4298 11.7042 12.3526 11.6526 12.2677 11.6174C12.1828 11.5823 12.0917 11.5642 11.9998 11.5642ZM12.6998 8.76416C12.5059 8.59479 12.2572 8.50146 11.9998 8.50146C11.7424 8.50146 11.4937 8.59479 11.2998 8.76416C11.1304 8.95803 11.0371 9.20673 11.0371 9.46416C11.0371 9.72158 11.1304 9.97028 11.2998 10.1642C11.4937 10.3335 11.7424 10.4268 11.9998 10.4268C12.2572 10.4268 12.5059 10.3335 12.6998 10.1642C12.8689 9.97035 12.9621 9.72186 12.9621 9.46466C12.9621 9.20746 12.8689 8.95796 12.6998 8.76416Z" fill="white"/>
</svg>
