<svg width="14" height="14" viewBox="0 0 14 14" fill="none" xmlns="http://www.w3.org/2000/svg">
<path d="M13.6668 9.66732V1.66732C13.6658 1.31401 13.525 0.975468 13.2752 0.725642C13.0253 0.475816 12.6868 0.33501 12.3335 0.333984H4.3335C3.98019 0.33501 3.64165 0.475816 3.39182 0.725642C3.14199 0.975468 3.00119 1.31401 3.00016 1.66732V9.66732C3.00119 10.0206 3.14199 10.3592 3.39182 10.609C3.64165 10.8588 3.98019 10.9996 4.3335 11.0007H12.3335C12.6868 10.9996 13.0253 10.8588 13.2752 10.609C13.525 10.3592 13.6658 10.0206 13.6668 9.66732ZM6.60016 7.35398L7.68683 8.80732L9.40905 6.66065C9.44029 6.62172 9.47986 6.5903 9.52486 6.56871C9.56987 6.54712 9.61914 6.53591 9.66905 6.53591C9.71896 6.53591 9.76824 6.54712 9.81324 6.56871C9.85824 6.5903 9.89782 6.62172 9.92905 6.66065L11.9024 9.12732C11.9411 9.17635 11.9653 9.23528 11.9722 9.29739C11.979 9.3595 11.9683 9.42229 11.9412 9.47859C11.9141 9.5349 11.8717 9.58245 11.8189 9.61582C11.766 9.64918 11.7049 9.66703 11.6424 9.66732H5.00016C4.93826 9.66732 4.87758 9.65008 4.82492 9.61753C4.77226 9.58499 4.7297 9.53842 4.70202 9.48306C4.67434 9.42769 4.66262 9.3657 4.66818 9.30405C4.67374 9.2424 4.69635 9.18351 4.7335 9.13398L6.06683 7.35621C6.09847 7.31568 6.13893 7.28291 6.18514 7.26036C6.23135 7.23782 6.28208 7.2261 6.3335 7.2261C6.38491 7.2261 6.43565 7.23782 6.48185 7.26036C6.52806 7.28291 6.56852 7.31568 6.60016 7.35621V7.35398ZM0.333496 3.66732V12.334C0.334522 12.6873 0.475327 13.0258 0.725154 13.2757C0.97498 13.5255 1.31352 13.6663 1.66683 13.6673H10.3335C10.5103 13.6673 10.6799 13.5971 10.8049 13.4721C10.9299 13.347 11.0002 13.1775 11.0002 13.0007C11.0002 12.8238 10.9299 12.6543 10.8049 12.5292C10.6799 12.4042 10.5103 12.334 10.3335 12.334H2.3335C2.15669 12.334 1.98712 12.2637 1.86209 12.1387C1.73707 12.0137 1.66683 11.8441 1.66683 11.6673V3.66732C1.66683 3.57977 1.64959 3.49308 1.61608 3.4122C1.58258 3.33131 1.53347 3.25782 1.47157 3.19591C1.40966 3.13401 1.33617 3.0849 1.25529 3.0514C1.1744 3.0179 1.08771 3.00065 1.00016 3.00065C0.912615 3.00065 0.825924 3.0179 0.74504 3.0514C0.664157 3.0849 0.590664 3.13401 0.528758 3.19591C0.466853 3.25782 0.417746 3.33131 0.384243 3.4122C0.35074 3.49308 0.333496 3.57977 0.333496 3.66732Z" fill="white"/>
</svg>
