<svg width="24" height="24" viewBox="0 0 24 24" fill="none" xmlns="http://www.w3.org/2000/svg">
<path d="M12 5C10.6155 5 9.26216 5.41054 8.11101 6.17971C6.95987 6.94888 6.06266 8.04213 5.53285 9.32122C5.00303 10.6003 4.86441 12.0078 5.13451 13.3656C5.4046 14.7235 6.07129 15.9708 7.05026 16.9497C8.02922 17.9287 9.2765 18.5954 10.6344 18.8655C11.9922 19.1356 13.3997 18.997 14.6788 18.4672C15.9579 17.9373 17.0511 17.0401 17.8203 15.889C18.5895 14.7378 19 13.3845 19 12C19 10.1435 18.2625 8.36301 16.9497 7.05025C15.637 5.7375 13.8565 5 12 5Z" fill="#D7D7D7"/>
<path d="M12 11.564C11.8144 11.564 11.6363 11.6378 11.5051 11.769C11.3738 11.9003 11.3 12.0784 11.3 12.264V15.064C11.3 15.2497 11.3738 15.4277 11.5051 15.559C11.6363 15.6903 11.8144 15.764 12 15.764C12.1857 15.764 12.3637 15.6903 12.495 15.559C12.6263 15.4277 12.7 15.2497 12.7 15.064V12.264C12.7 12.1721 12.6819 12.0811 12.6468 11.9961C12.6116 11.9112 12.56 11.834 12.495 11.769C12.43 11.704 12.3529 11.6525 12.2679 11.6173C12.183 11.5821 12.092 11.564 12 11.564ZM12.7 8.764C12.5062 8.59464 12.2575 8.50131 12 8.50131C11.7426 8.50131 11.4939 8.59464 11.3 8.764C11.1307 8.95788 11.0374 9.20657 11.0374 9.464C11.0374 9.72143 11.1307 9.97013 11.3 10.164C11.4939 10.3334 11.7426 10.4267 12 10.4267C12.2575 10.4267 12.5062 10.3334 12.7 10.164C12.8691 9.9702 12.9623 9.7217 12.9623 9.4645C12.9623 9.2073 12.8691 8.95781 12.7 8.764Z" fill="#0771CD"/>
</svg>
