<svg width="14" height="14" viewBox="0 0 14 14" fill="none" xmlns="http://www.w3.org/2000/svg">
<path d="M6.99968 0.333252C5.68113 0.333252 4.3922 0.724245 3.29587 1.45679C2.19955 2.18933 1.34506 3.23052 0.84048 4.44869C0.335896 5.66687 0.203874 7.00731 0.461109 8.30052C0.718344 9.59373 1.35328 10.7816 2.28563 11.714C3.21798 12.6463 4.40587 13.2812 5.69907 13.5385C6.99228 13.7957 8.33272 13.6637 9.5509 13.1591C10.7691 12.6545 11.8103 11.8 12.5428 10.7037C13.2753 9.60739 13.6663 8.31846 13.6663 6.99992C13.6663 5.23181 12.964 3.53611 11.7137 2.28587C10.4635 1.03563 8.76779 0.333252 6.99968 0.333252Z" fill="currentColor"/>
<path d="M6.99986 6.58457C6.82305 6.58457 6.65348 6.65481 6.52845 6.77983C6.40343 6.90486 6.33319 7.07443 6.33319 7.25124V9.91791C6.33319 10.0947 6.40343 10.2643 6.52845 10.3893C6.65348 10.5143 6.82305 10.5846 6.99986 10.5846C7.17667 10.5846 7.34624 10.5143 7.47126 10.3893C7.59628 10.2643 7.66652 10.0947 7.66652 9.91791V7.25124C7.66652 7.16369 7.64928 7.077 7.61578 6.99612C7.58227 6.91523 7.53317 6.84174 7.47126 6.77983C7.40935 6.71793 7.33586 6.66882 7.25498 6.63532C7.17409 6.60182 7.0874 6.58457 6.99986 6.58457ZM7.66652 3.91791C7.48188 3.75661 7.24503 3.66772 6.99986 3.66772C6.75469 3.66772 6.51783 3.75661 6.33319 3.91791C6.17189 4.10255 6.08301 4.3394 6.08301 4.58457C6.08301 4.82974 6.17189 5.0666 6.33319 5.25124C6.51783 5.41254 6.75469 5.50142 6.99986 5.50142C7.24503 5.50142 7.48188 5.41254 7.66652 5.25124C7.82756 5.06666 7.91629 4.83 7.91629 4.58505C7.91629 4.3401 7.82756 4.10248 7.66652 3.91791Z" fill="white"/>
</svg>
