<svg width="72" height="16" viewBox="0 0 72 16" fill="none" xmlns="http://www.w3.org/2000/svg">
<g clip-path="url(#clip0_2940_9798)">
<path d="M52.5995 0.436692C53.3386 0.431519 54.0778 0.430225 54.8169 0.432812C54.8169 1.558 54.8272 2.68319 54.8157 3.81096C55.927 3.81096 57.037 3.80449 58.1509 3.81225C58.1458 4.53264 58.147 5.25043 58.1446 5.97081C57.037 5.97469 55.9308 5.97599 54.8221 5.97857C54.9016 7.04297 54.6552 8.16557 54.9915 9.19118C55.5702 10.394 57.0679 10.059 58.1394 10.0862C58.1547 10.8091 58.1561 11.5321 58.1612 12.2576C57.2872 12.2537 56.3979 12.3469 55.5343 12.1542C54.0457 11.7972 52.7945 10.4638 52.6508 8.91056C52.5751 7.93666 52.6328 6.95503 52.6161 5.98116C52.2606 5.97987 51.9039 5.97987 51.5485 5.98116C51.5433 5.26078 51.5433 4.5404 51.542 3.82001C51.8988 3.81613 52.2555 3.81484 52.6123 3.81355C52.6084 2.68707 52.6123 1.56188 52.5995 0.436692Z" fill="#0166CC"/>
<path d="M63.0483 0.419935C63.7926 0.412175 64.5356 0.410882 65.28 0.417348C65.3056 2.89277 65.2748 5.37077 65.2825 7.84749C66.3785 6.50501 67.4576 5.15091 68.5343 3.79422C69.3852 3.78258 70.2385 3.77999 71.0907 3.79292C70.1385 4.97372 69.1748 6.14547 68.2379 7.33921C69.2145 8.95589 70.1295 10.6087 71.1112 12.2267C70.2642 12.2526 69.4185 12.2512 68.5729 12.2473C67.9645 11.2425 67.4038 10.2065 66.8096 9.19125C66.1821 10.1522 65.0336 10.9527 65.2786 12.25C64.5447 12.2538 63.8067 12.2551 63.0753 12.2565C63.0522 8.3105 63.0599 4.36586 63.0483 0.419935Z" fill="#0166CC"/>
<path d="M45.7394 3.4544C47.3345 3.03149 49.1825 3.50613 50.263 4.79428C51.731 6.50664 51.6655 9.33645 50.0589 10.9375C48.6255 12.4701 46.0794 12.7094 44.3855 11.4769C42.7056 10.3542 42.064 8.01724 42.7865 6.1458C43.2729 4.84601 44.406 3.81524 45.7394 3.4544ZM46.0088 5.69185C44.3355 6.39283 44.3406 9.12688 45.9793 9.86412C47.3999 10.644 49.2696 9.32609 49.0695 7.71461C49.1606 6.16779 47.3755 4.99604 46.0088 5.69185Z" fill="#0166CC"/>
<path d="M59.7472 0.136758C58.8092 0.496301 58.5679 1.89308 59.3725 2.52293C60.2234 3.38299 61.8916 2.6846 61.848 1.46241C61.8955 0.423875 60.6545 -0.31849 59.7472 0.136758Z" fill="#0166CC"/>
<path d="M59.2505 3.74914C59.2633 6.58022 59.2402 9.41 59.28 12.2398C60.0166 12.2204 60.7532 12.2191 61.4898 12.2178C61.4808 9.3906 61.4859 6.56341 61.4718 3.73621C60.7314 3.74138 59.9909 3.74009 59.2505 3.74914Z" fill="#0166CC"/>
<path d="M17.0204 3.68167C18.5552 3.28203 20.3197 3.6946 21.4169 4.87799C22.8824 6.4455 22.9954 9.08776 21.6697 10.7742C20.6431 12.1438 18.79 12.7828 17.1436 12.3637C15.1801 11.9305 13.7031 9.98923 13.7839 7.96774C13.739 6.01483 15.1468 4.16407 17.0204 3.68167ZM17.2835 5.91265C15.6113 6.61104 15.6126 9.33738 17.2437 10.0849C18.6719 10.879 20.5276 9.55856 20.3697 7.95351C20.4339 6.40023 18.6707 5.20908 17.2835 5.91265Z" fill="#FF9016"/>
<path d="M40.7691 4.76597C39.6886 3.47782 37.8407 3.00317 36.2455 3.42608C34.9122 3.78692 33.7777 4.8177 33.2926 6.11749C33.0732 6.68396 32.9808 7.29441 33.0026 7.89969L33.0155 15.9429L35.256 15.939L35.2497 11.6787C36.9282 12.641 39.2292 12.3371 40.565 10.9093C42.173 9.3081 42.2372 6.47833 40.7691 4.76597ZM36.4842 9.83576C34.8455 9.0986 34.8416 6.3658 36.515 5.66482C37.8817 4.96773 39.6668 6.14077 39.5743 7.68758C39.7745 9.29773 37.9061 10.6144 36.4842 9.83576Z" fill="#0166CC"/>
<path d="M32.0066 12.96L31.9989 7.93162C32.0362 6.80513 31.6858 5.66313 30.9492 4.80308C29.8687 3.51493 28.0208 3.04028 26.4257 3.46319C25.0923 3.82403 23.9579 4.85481 23.4728 6.1546C22.7503 8.02603 23.3907 10.3644 25.0705 11.4856C26.4295 12.4737 28.3365 12.5151 29.7776 11.7017L29.7802 12.9639L32.0066 12.96ZM26.663 9.87287C25.0256 9.13571 25.0204 6.40291 26.6939 5.70064C28.0606 5.00354 29.8469 6.17658 29.7532 7.72339C29.9547 9.33484 28.0849 10.6527 26.663 9.87287Z" fill="#0166CC"/>
<path d="M13.0602 6.92825L13.05 6.7834L13.0397 6.58552L6.20749 6.59586L6.21133 9.11524L10.4744 9.10878C9.95854 10.7293 8.46479 11.9618 6.82987 12.0459C5.76346 12.161 4.656 11.7639 3.79106 10.9647C2.92612 10.1654 2.44104 9.08938 2.46029 7.97842C2.38329 6.92178 2.78753 5.83151 3.57162 4.98697C4.35314 4.14631 5.39902 3.66261 6.46414 3.67813C7.78721 3.60958 9.10902 4.31445 9.95854 5.51723L12.7381 5.51335L12.6496 5.32194C12.058 4.04155 11.211 3.00043 10.2088 2.31238C8.75612 1.26867 6.77213 0.91947 4.89854 1.3799C3.10578 1.82997 1.51579 3.15045 0.648291 4.90679C-0.122965 6.43808 -0.0677834 8.10388 0.115726 9.24067C0.684222 12.2696 3.46895 14.5925 6.45131 14.5511C6.53472 14.555 6.61686 14.5562 6.70027 14.5562C8.93572 14.5523 11.1045 13.2293 12.2749 11.1367C12.9242 10.0206 13.1808 8.64453 13.0602 6.92825Z" fill="#FF9016"/>
</g>
<defs>
<clipPath id="clip0_2940_9798">
<rect width="71.1111" height="16" fill="white"/>
</clipPath>
</defs>
</svg>
