<svg width="16" height="16" viewBox="0 0 16 16" fill="none" xmlns="http://www.w3.org/2000/svg">
<g clip-path="url(#clip0_5667_17805)">
<path d="M7.77762 1.3335C7.17932 1.34791 6.58973 1.48007 6.04252 1.72243C5.49532 1.96479 5.00123 2.31259 4.58849 2.74597C4.17575 3.17934 3.85245 3.6898 3.63706 4.24817C3.42167 4.80654 3.3184 5.40187 3.33317 6.00016C3.33317 9.50016 7.77762 14.6668 7.77762 14.6668C7.77762 14.6668 12.2221 9.50016 12.2221 6.00016C12.2368 5.40187 12.1336 4.80654 11.9182 4.24817C11.7028 3.6898 11.3795 3.17934 10.9667 2.74597C10.554 2.31259 10.0599 1.96479 9.51272 1.72243C8.96551 1.48007 8.37592 1.34791 7.77762 1.3335ZM7.77762 7.66683C7.34616 7.65606 6.93661 7.47449 6.63891 7.162C6.34121 6.84951 6.1797 6.43164 6.18984 6.00016C6.18001 5.78561 6.21377 5.57128 6.2891 5.37015C6.36443 5.16901 6.47976 4.98523 6.62811 4.82992C6.77647 4.67461 6.95477 4.55098 7.15225 4.46652C7.34973 4.38206 7.56228 4.33852 7.77706 4.33852C7.99185 4.33852 8.2044 4.38206 8.40188 4.46652C8.59935 4.55098 8.77766 4.67461 8.92601 4.82992C9.07437 4.98523 9.1897 5.16901 9.26503 5.37015C9.34035 5.57128 9.37412 5.78561 9.36429 6.00016C9.37443 6.43145 9.21307 6.84915 8.91561 7.16161C8.61815 7.47407 8.20889 7.65577 7.77762 7.66683Z" fill="currentColor"/>
</g>
<defs>
<clipPath id="clip0_5667_17805">
<rect width="8.88889" height="13.3333" fill="white" transform="translate(3.33325 1.3335)"/>
</clipPath>
</defs>
</svg>
