<svg width="80" height="80" viewBox="0 0 80 80" fill="none" xmlns="http://www.w3.org/2000/svg">
<path d="M58.9055 33.5433C54.7352 32.379 50.5732 31.1834 46.4194 29.9566C42.3741 31.1761 38.3288 32.3716 34.2835 33.5433C30.3486 32.3716 26.4219 31.1761 22.5035 29.9566C18.2302 31.1834 13.9495 32.379 9.66153 33.5433L0.00524902 72.7398C5.57855 71.5645 11.1473 70.369 16.7114 69.1532C21.9206 70.3708 27.1362 71.5663 32.3583 72.7398C37.6908 71.57 43.0232 70.3745 48.3556 69.1532C53.8002 70.3763 59.2512 71.5719 64.7087 72.7398C69.8113 71.5645 74.9083 70.369 79.9999 69.1532L70.3381 29.9566C66.5337 31.1761 62.7228 32.3716 58.9055 33.5433Z" fill="#0771CD"/>
<path opacity="0.8" d="M58.9055 33.5433C54.7352 32.379 50.5732 31.1834 46.4194 29.9566C42.3741 31.1761 38.3288 32.3716 34.2835 33.5433C30.3486 32.3716 26.4219 31.1761 22.5035 29.9566C18.2302 31.1834 13.9495 32.379 9.66153 33.5433L0.00524902 72.7398C5.57855 71.5645 11.1473 70.369 16.7114 69.1532C21.9206 70.3708 27.1362 71.5663 32.3583 72.7398C37.6908 71.57 43.0232 70.3745 48.3556 69.1532C53.8002 70.3763 59.2512 71.5719 64.7087 72.7398C69.8113 71.5645 74.9083 70.369 79.9999 69.1532L70.3381 29.9566C66.5337 31.1761 62.7228 32.3716 58.9055 33.5433Z" fill="white"/>
<path d="M32.466 70.4638C37.7286 69.294 42.9865 68.0984 48.2399 66.8771C53.6109 68.1003 58.9875 69.2958 64.3695 70.4638C68.6226 69.4742 72.8729 68.4626 77.1205 67.4289C74.4506 55.8799 71.7844 44.3318 69.1218 32.7846C65.8396 33.8165 62.5492 34.8281 59.2504 35.8195C55.0065 34.6552 50.77 33.4597 46.5409 32.2328C42.4257 33.4486 38.306 34.6442 34.1816 35.8195C30.1731 34.6479 26.1719 33.4523 22.1781 32.2328C18.5263 33.261 14.8699 34.2726 11.209 35.2677C8.53907 46.8149 5.87286 58.362 3.21033 69.9092C7.83115 68.9123 12.4474 67.9007 17.059 66.8744C22.1836 68.0901 27.3193 69.2866 32.466 70.4638Z" fill="#0771CD"/>
<path opacity="0.4" d="M32.466 70.4638C37.7286 69.294 42.9865 68.0984 48.2399 66.8771C53.6109 68.1003 58.9875 69.2958 64.3695 70.4638C68.6226 69.4742 72.8729 68.4626 77.1205 67.4289C74.4506 55.8799 71.7844 44.3318 69.1218 32.7846C65.8396 33.8165 62.5492 34.8281 59.2504 35.8195C55.0065 34.6552 50.77 33.4597 46.5409 32.2328C42.4257 33.4486 38.306 34.6442 34.1816 35.8195C30.1731 34.6479 26.1719 33.4523 22.1781 32.2328C18.5263 33.261 14.8699 34.2726 11.209 35.2677C8.53907 46.8149 5.87286 58.362 3.21033 69.9092C7.83115 68.9123 12.4474 67.9007 17.059 66.8744C22.1836 68.0901 27.3193 69.2866 32.466 70.4638Z" fill="white"/>
<path d="M44.3921 60.1479C44.1853 57.9407 44.017 55.935 43.151 54.7762C41.2203 52.2131 36.6004 52.7594 33.6988 53.2891C33.3761 52.7373 32.5486 51.2006 31.6412 47.4953C30.7751 43.9583 26.7703 42.2533 23.6812 41.2573C22.8096 40.9814 21.7312 40.6117 21.5519 40.3579C21.2954 39.1908 20.1728 39.1357 19.0696 39.086C18.1842 39.0446 17.1747 38.9977 16.3693 38.4625C15.6495 37.9824 16.4769 35.7173 17.5553 33.535L16.6479 33.7833C16.5707 33.9516 16.4907 34.1199 16.4135 34.2909C15.1309 37.1547 14.469 38.9812 15.5446 39.6764C16.6203 40.3717 17.8091 40.4186 18.791 40.4655C19.7729 40.5124 20.2418 40.5648 20.3025 40.8738C20.4624 41.7015 21.4857 42.0684 23.1571 42.5816C26.0063 43.4562 29.4705 44.7888 30.3449 47.9312C31.8067 53.1733 32.7086 54.4148 32.8796 54.5721L33.1361 54.8093L33.4919 54.7348C36.0873 54.241 40.3046 53.6506 41.9843 55.5404C42.6435 56.2826 42.8117 58.2691 42.9414 60.2445C43.0875 62.7027 42.9993 65.4865 43.7467 67.9254L45.9257 67.4233C44.8417 64.9319 44.599 62.344 44.3921 60.1479Z" fill="#0771CD"/>
<path opacity="0.2" d="M44.3921 60.1479C44.1853 57.9407 44.017 55.935 43.151 54.7762C41.2203 52.2131 36.6004 52.7594 33.6988 53.2891C33.3761 52.7373 32.5486 51.2006 31.6412 47.4953C30.7751 43.9583 26.7703 42.2533 23.6812 41.2573C22.8096 40.9814 21.7312 40.6117 21.5519 40.3579C21.2954 39.1908 20.1728 39.1357 19.0696 39.086C18.1842 39.0446 17.1747 38.9977 16.3693 38.4625C15.6495 37.9824 16.4769 35.7173 17.5553 33.535L16.6479 33.7833C16.5707 33.9516 16.4907 34.1199 16.4135 34.2909C15.1309 37.1547 14.469 38.9812 15.5446 39.6764C16.6203 40.3717 17.8091 40.4186 18.791 40.4655C19.7729 40.5124 20.2418 40.5648 20.3025 40.8738C20.4624 41.7015 21.4857 42.0684 23.1571 42.5816C26.0063 43.4562 29.4705 44.7888 30.3449 47.9312C31.8067 53.1733 32.7086 54.4148 32.8796 54.5721L33.1361 54.8093L33.4919 54.7348C36.0873 54.241 40.3046 53.6506 41.9843 55.5404C42.6435 56.2826 42.8117 58.2691 42.9414 60.2445C43.0875 62.7027 42.9993 65.4865 43.7467 67.9254L45.9257 67.4233C44.8417 64.9319 44.599 62.344 44.3921 60.1479Z" fill="white"/>
<g opacity="0.5">
<path d="M48.626 46.419L57.8023 47.1915C58.0644 49.2773 58.194 50.3229 58.456 52.4087L52.3081 51.8238L52.0737 49.0207L48.7639 48.6041C48.7032 47.7323 48.6756 47.2936 48.626 46.419Z" fill="white"/>
<path d="M48.2731 49.4125L51.3567 49.8318L51.5911 52.8667L48.4523 52.6239L48.2731 49.4125Z" fill="white"/>
</g>
<path opacity="0.5" d="M63.1673 40.2116C62.1854 40.6006 61.6917 40.7937 60.6849 41.1828L61.1124 43.9804C62.1412 43.6576 62.6515 43.4975 63.6693 43.172C63.4762 41.9884 63.3741 41.3952 63.1673 40.2116Z" fill="white"/>
<path opacity="0.5" d="M17.2052 57.7752C15.2744 58.3794 14.2953 58.6801 12.3232 59.2816C12.0005 61.0142 11.8378 61.8833 11.5123 63.6159C13.5203 63.1138 14.516 62.8655 16.4908 62.3634C16.7749 60.5286 16.9183 59.6099 17.2052 57.7752Z" fill="white"/>
<path d="M47.1702 45.3212C51.677 45.6891 56.182 46.0569 60.6851 46.4248H60.7734C64.3811 45.4499 67.9832 44.4576 71.5798 43.4479L71.304 42.3084C67.7111 43.3311 64.1117 44.3317 60.5059 45.3102L55.5936 44.9101C54.2495 41.1966 52.9623 37.4683 51.7322 33.7253L50.3531 33.3335C51.5814 37.174 52.863 40.9951 54.198 44.797L46.9689 44.2038C45.0382 44.9046 44.059 45.2577 42.0787 45.9585H33.7132C29.5171 45.2964 25.3229 44.6259 21.1305 43.9472C22.7358 40.4323 24.284 36.8944 25.7752 33.3335L24.8733 33.0576C23.3232 36.6976 21.7162 40.31 20.0521 43.8948C16.312 44.4466 12.5701 44.9883 8.8264 45.5198C8.72435 45.9668 8.67195 46.1903 8.5699 46.6234C12.3817 46.0716 16.1943 45.5198 20.0079 44.968C21.467 48.4885 23.0805 51.9262 24.7547 55.35L18.6454 54.8589C14.4071 55.9864 10.1614 57.09 5.90828 58.1697C5.74831 58.8567 5.66832 59.2015 5.51111 59.8885C9.86715 58.7996 14.2168 57.6887 18.5599 56.5557L25.5105 57.1075C26.7682 61.3839 28.1362 65.6271 29.6477 69.818L31.1012 70.1491C29.518 65.8948 28.0866 61.566 26.7599 57.2123L33.0292 57.72C38.0435 59.0498 43.0698 60.3529 48.108 61.6294C51.6825 60.4798 55.2488 59.3027 58.8068 58.0979C60.2604 60.2748 61.0134 61.3618 62.5524 63.5386C65.6011 65.3044 68.6727 67.0324 71.7674 68.7227L74.0456 68.1709C70.5979 66.2856 67.1714 64.3645 63.766 62.4074C62.3869 60.4762 61.7084 59.4995 60.3955 57.5599L62.3842 56.8785C66.3173 56.1667 70.2495 55.4466 74.1808 54.7182C74.0236 54.045 73.9463 53.7084 73.7919 53.0353C69.7686 53.7894 65.7445 54.5343 61.7195 55.27C57.1464 56.85 52.5624 58.3932 47.9673 59.8995C45.1871 59.1896 42.4096 58.4695 39.6349 57.7393C40.6996 54.1582 41.6934 50.5577 42.6165 46.9379C44.4534 46.3061 45.3636 45.9696 47.1702 45.3212ZM38.54 57.4468C36.4796 56.895 35.4563 56.6191 33.4346 56.0839L26.1338 55.4852C24.432 52.0669 22.7854 48.6319 21.296 45.1143C25.3817 45.7691 29.4675 46.4128 33.5532 47.0455H41.4884C40.5635 50.5347 39.5761 54.0018 38.5262 57.4468H38.54Z" fill="white"/>
<path opacity="0.1" d="M16.7061 69.1532C11.142 70.3709 5.5733 71.5664 0 72.7399L9.65352 33.5433C13.9415 32.3772 18.2222 31.1816 22.4955 29.9567L16.7061 69.1532Z" fill="black"/>
<path opacity="0.1" d="M48.3527 69.1532C43.0203 70.3763 37.6879 71.5719 32.3555 72.7398C32.999 59.6807 33.6426 46.6152 34.2862 33.5433C38.3315 32.3716 42.3768 31.1761 46.422 29.9566C47.0638 43.023 47.7073 56.0886 48.3527 69.1532Z" fill="black"/>
<path opacity="0.1" d="M79.9921 69.1532C74.9006 70.3708 69.8035 71.5663 64.7009 72.7398L58.9088 33.5433C62.7261 32.3716 66.5351 31.1761 70.3358 29.9566L79.9921 69.1532Z" fill="black"/>
<path d="M50.3692 12.3162C47.7338 8.68987 43.9027 6.99988 39.8991 6.99988C39.8991 6.99988 30.1083 6.99988 27.2088 15.7676C26.138 18.9988 26.376 22.5073 27.6729 25.654C28.1598 26.8502 28.7732 27.9909 29.5027 29.0566C32.0358 32.7103 39.9074 42.6848 39.9074 42.6848H41.6183C43.8146 39.6333 49.3436 29.4969 50.9997 26.2467C53.0759 22.1681 53.3948 16.4793 50.3692 12.3162ZM41.5374 28.5341C39.8831 28.5341 38.2659 28.0434 36.8904 27.124C35.5149 26.2046 34.4428 24.8979 33.8098 23.369C33.1768 21.8401 33.0112 20.1578 33.334 18.5348C33.6569 16.9118 34.4536 15.421 35.6235 14.251C36.7933 13.0809 38.2838 12.2842 39.9064 11.9615C41.5289 11.6388 43.2107 11.8047 44.7391 12.4381C46.2674 13.0715 47.5736 14.1441 48.4925 15.5201C49.4115 16.8962 49.9018 18.5139 49.9016 20.1687C49.9013 22.3875 49.0199 24.5152 47.4513 26.084C45.8828 27.6528 43.7555 28.5341 41.5374 28.5341Z" fill="#D01E53"/>
<path opacity="0.4" d="M50.3692 12.3162C47.7338 8.68987 43.9027 6.99988 39.8991 6.99988C39.8991 6.99988 30.1083 6.99988 27.2088 15.7676C26.138 18.9988 26.376 22.5073 27.6729 25.654C28.1598 26.8502 28.7732 27.9909 29.5027 29.0566C32.0358 32.7103 39.9074 42.6848 39.9074 42.6848H41.6183C43.8146 39.6333 49.3436 29.4969 50.9997 26.2467C53.0759 22.1681 53.3948 16.4793 50.3692 12.3162ZM41.5374 28.5341C39.8831 28.5341 38.2659 28.0434 36.8904 27.124C35.5149 26.2046 34.4428 24.8979 33.8098 23.369C33.1768 21.8401 33.0112 20.1578 33.334 18.5348C33.6569 16.9118 34.4536 15.421 35.6235 14.251C36.7933 13.0809 38.2838 12.2842 39.9064 11.9615C41.5289 11.6388 43.2107 11.8047 44.7391 12.4381C46.2674 13.0715 47.5736 14.1441 48.4925 15.5201C49.4115 16.8962 49.9018 18.5139 49.9016 20.1687C49.9013 22.3875 49.0199 24.5152 47.4513 26.084C45.8828 27.6528 43.7555 28.5341 41.5374 28.5341Z" fill="black"/>
<path d="M52.0904 12.3842C49.455 8.75902 45.6239 7.06903 41.6203 7.06903C41.6203 7.06903 31.8296 7.06903 28.9301 15.8367C27.8593 19.0679 28.0972 22.5765 29.3953 25.7232C29.8815 26.9195 30.4946 28.0602 31.224 29.1258C33.757 32.7783 41.625 42.7575 41.625 42.7575C41.625 42.7575 50.7162 30.248 52.7174 26.3206C54.7971 22.2349 55.1172 16.5484 52.0904 12.3842ZM41.5477 28.6033C39.8934 28.6033 38.2763 28.1126 36.9008 27.1933C35.5253 26.2739 34.4533 24.9672 33.8202 23.4384C33.1872 21.9096 33.0215 20.2274 33.3443 18.6044C33.667 16.9814 34.4636 15.4906 35.6333 14.3206C36.8031 13.1505 38.2935 12.3536 39.9159 12.0308C41.5384 11.708 43.2202 11.8736 44.7485 12.5069C46.2769 13.1401 47.5832 14.2125 48.5023 15.5884C49.4213 16.9643 49.9119 18.5819 49.9119 20.2367C49.9201 21.3377 49.7094 22.4293 49.292 23.4481C48.8745 24.4669 48.2588 25.3926 47.4804 26.1711C46.7021 26.9497 45.7768 27.5656 44.7583 27.9832C43.7397 28.4007 42.6484 28.6115 41.5477 28.6033Z" fill="#D01E53"/>
<path d="M41.5376 11.8021C39.8091 11.802 38.1231 12.3377 36.7114 13.3353C35.2997 14.3329 34.2316 15.7435 33.6541 17.3731C34.2994 15.9464 35.394 14.7703 36.7706 14.0247C38.1472 13.279 39.73 13.0048 41.2771 13.2439C42.8242 13.483 44.2505 14.2223 45.3379 15.3488C46.4253 16.4752 47.1141 17.9269 47.2989 19.4819C47.4837 21.0368 47.1543 22.6096 46.3612 23.9596C45.5681 25.3097 44.3548 26.3629 42.9069 26.9581C41.4589 27.5534 39.856 27.6579 38.343 27.2559C36.83 26.8538 35.4903 25.9672 34.5285 24.7317C35.3191 25.9464 36.4117 26.9348 37.6991 27.6C38.9865 28.2652 40.4246 28.5843 41.8725 28.5262C43.3204 28.4681 44.7283 28.0346 45.9583 27.2684C47.1883 26.5021 48.1981 25.4293 48.8888 24.1551C49.5795 22.881 49.9274 21.4491 49.8984 19.9999C49.8694 18.5508 49.4645 17.134 48.7233 15.8885C47.9821 14.643 46.9301 13.6116 45.6704 12.8952C44.4107 12.1788 42.9866 11.8021 41.5376 11.8021Z" fill="#D01E53"/>
<path opacity="0.4" d="M41.5376 11.8021C39.8091 11.802 38.1231 12.3377 36.7114 13.3353C35.2997 14.3329 34.2316 15.7435 33.6541 17.3731C34.2994 15.9464 35.394 14.7703 36.7706 14.0247C38.1472 13.279 39.73 13.0048 41.2771 13.2439C42.8242 13.483 44.2505 14.2223 45.3379 15.3488C46.4253 16.4752 47.1141 17.9269 47.2989 19.4819C47.4837 21.0368 47.1543 22.6096 46.3612 23.9596C45.5681 25.3097 44.3548 26.3629 42.9069 26.9581C41.4589 27.5534 39.856 27.6579 38.343 27.2559C36.83 26.8538 35.4903 25.9672 34.5285 24.7317C35.3191 25.9464 36.4117 26.9348 37.6991 27.6C38.9865 28.2652 40.4246 28.5843 41.8725 28.5262C43.3204 28.4681 44.7283 28.0346 45.9583 27.2684C47.1883 26.5021 48.1981 25.4293 48.8888 24.1551C49.5795 22.881 49.9274 21.4491 49.8984 19.9999C49.8694 18.5508 49.4645 17.134 48.7233 15.8885C47.9821 14.643 46.9301 13.6116 45.6704 12.8952C44.4107 12.1788 42.9866 11.8021 41.5376 11.8021Z" fill="black"/>
</svg>
