<svg width="58" height="58" viewBox="0 0 48 48" fill="none" xmlns="http://www.w3.org/2000/svg">
<path d="M38.7084 24.9271C38.0292 24.2803 37.2292 23.7736 36.354 23.4359C35.4789 23.0983 34.5458 22.9364 33.608 22.9594C32.6702 22.9824 31.7461 23.1899 30.8884 23.5701C30.0307 23.9502 29.2563 24.4956 28.6093 25.175C24.7291 29.0551 23.927 39.7085 23.927 39.7085C23.927 39.7085 34.5804 38.9064 38.4605 35.0263C39.1399 34.3793 39.6853 33.6048 40.0654 32.7471C40.4456 31.8894 40.6531 30.9653 40.6761 30.0275C40.6991 29.0897 40.5372 28.1566 40.1996 27.2815C39.862 26.4064 39.3552 25.6064 38.7084 24.9271ZM31.6872 31.9483C31.2232 31.4577 30.9725 30.8032 30.9899 30.1281C31.0073 29.4529 31.2914 28.8121 31.78 28.3458C32.007 28.097 32.2821 27.8968 32.5886 27.7572C32.8952 27.6177 33.2268 27.5418 33.5634 27.534C33.9001 27.5263 34.2348 27.5869 34.5474 27.7121C34.8599 27.8374 35.1438 28.0247 35.3819 28.2628C35.62 28.5009 35.8074 28.7848 35.9326 29.0974C36.0579 29.4099 36.1185 29.7447 36.1107 30.0813C36.103 30.418 36.027 30.7496 35.8875 31.0561C35.748 31.3627 35.5478 31.6377 35.299 31.8647C35.0673 32.1074 34.7901 32.3022 34.4832 32.4377C34.1763 32.5733 33.8456 32.6471 33.5102 32.6548C33.1748 32.6626 32.8412 32.6042 32.5284 32.4829C32.2156 32.3617 31.9298 32.18 31.6872 31.9483Z" fill="#666666"/>
<path d="M24.0003 8C22.5646 8.03503 21.1498 8.35252 19.8367 8.93433C18.5237 9.51615 17.3381 10.3509 16.3476 11.3909C15.3572 12.4309 14.5813 13.6559 14.0643 14.9958C13.5473 16.3356 13.2992 17.7642 13.3343 19.2C13.3343 27.6 24.0003 40 24.0003 40C24.0003 40 34.6663 27.6 34.6663 19.2C34.7014 17.7642 34.4534 16.3356 33.9363 14.9958C33.4193 13.6559 32.6434 12.4309 31.653 11.3909C30.6626 10.3509 29.477 9.51615 28.1639 8.93433C26.8509 8.35252 25.4361 8.03503 24.0003 8ZM24.0003 23.2C22.9667 23.1712 21.9867 22.7342 21.2745 21.9845C20.5623 21.2349 20.1761 20.2337 20.2003 19.2C20.1767 18.685 20.2578 18.1705 20.4386 17.6877C20.6194 17.2049 20.8963 16.7637 21.2524 16.3909C21.6085 16.0181 22.0365 15.7214 22.5105 15.5186C22.9845 15.3159 23.4948 15.2114 24.0103 15.2114C24.5259 15.2114 25.0361 15.3159 25.5101 15.5186C25.9842 15.7214 26.4122 16.0181 26.7683 16.3909C27.1244 16.7637 27.4012 17.2049 27.582 17.6877C27.7629 18.1705 27.8439 18.685 27.8203 19.2C27.8323 19.7135 27.7429 20.2243 27.5574 20.7033C27.3719 21.1823 27.0938 21.62 26.7391 21.9914C26.3843 22.3629 25.9599 22.6608 25.4899 22.8682C25.02 23.0756 24.5138 23.1883 24.0003 23.2Z" fill="#0771CD"/>
<path d="M23.3047 39.1541C23.2887 38.7687 23.2813 38.3819 23.2813 37.9939C23.2768 33.5585 24.1947 29.171 25.9805 25.1111C27.7663 21.0511 30.38 17.408 33.6524 14.4141C34.3274 15.9199 34.6746 17.5517 34.6719 19.2019C34.6719 27.6019 24.0039 40.002 24.0039 40.002C24.0039 40.002 23.7367 39.6981 23.3047 39.1541Z" fill="#5FB0F2"/>
<path d="M21.5537 19.2499C21.5537 18.6075 21.8089 17.9915 22.2631 17.5373C22.7173 17.083 23.3334 16.8279 23.9757 16.8279C24.6181 16.8279 25.2341 17.083 25.6883 17.5373C26.1425 17.9915 26.3977 18.6075 26.3977 19.2499C26.3977 19.8922 26.1425 20.5083 25.6883 20.9625C25.2341 21.4167 24.6181 21.6719 23.9757 21.6719C23.3334 21.6719 22.7173 21.4167 22.2631 20.9625C21.8089 20.5083 21.5537 19.8922 21.5537 19.2499Z" fill="#00429C"/>
</svg>
