<svg xmlns="http://www.w3.org/2000/svg" width="164" height="194.587" viewBox="0 0 164 194.587">
  <g id="Error_Illustration" data-name="Error Illustration" transform="translate(-124 -1353.503)">
    <g id="Illustration_01_Artboard_2" data-name="Illustration 01 Artboard 2" transform="translate(124 1424.833)">
      <g id="Layer_8" transform="translate(13.861 0)">
        <g id="Group_33575" data-name="Group 33575">
          <g id="Group_33574" data-name="Group 33574">
            <path id="Path_7583" data-name="Path 7583" d="M654.519,579.649a61.965,61.965,0,0,1-5.705,7.071c-.068.073-.135.144-.2.216a63.771,63.771,0,0,1-11.544,9.6H560.146a67.912,67.912,0,0,1-11.026-9.6,70.972,70.972,0,0,1-5.9-7.287c-9.546-13.517-14.4-30.336-12.456-46.739a63.936,63.936,0,0,1,6.031-20.348c9.229-19.043,27.462-34,48.711-38.119a63.434,63.434,0,0,1,6.853-.94,1,1,0,0,1,.11-.008,69.02,69.02,0,0,1,25.846,2.941c.119.037.237.073.356.112h0c16.525,5.192,31.222,16.3,39.687,31.311C670.8,529.928,668.912,558.912,654.519,579.649Z" transform="translate(-530.339 -473.283)" fill="#989898"/>
            <path id="Path_7584" data-name="Path 7584" d="M702.1,805.959c-.239-.151-.055-.57.225-.607a.9.9,0,0,1,.724.37,1.643,1.643,0,0,0,.642.533c.481.155,1.014-.25,1.491-.083s.589.737.785,1.189a5.067,5.067,0,0,0,2.644,2.192l2.973,1.47a3.823,3.823,0,0,1,1.687,1.276c.252.417.335.918.585,1.335.495.826,1.513,1.152,2.286,1.728a5.772,5.772,0,0,1,1.8,2.55,3.808,3.808,0,0,1,.3,2.449,1.734,1.734,0,0,1-1.881,1.3,2.212,2.212,0,0,1-1.241-1.005,6.167,6.167,0,0,0-.984-1.3c-.812-.69-2.086-.729-2.765-1.547-.519-.627-.544-1.547-1.039-2.192a10.1,10.1,0,0,0-1.442-1.177,9.324,9.324,0,0,1-1.532-2.426,11.333,11.333,0,0,0-3.916-3.713,2.814,2.814,0,0,1-1.149-1.046,3.944,3.944,0,0,1-.213-1.329C702.07,805.925,702.066,805.923,702.1,805.959Z" transform="translate(-666.888 -737.759)" fill="#f3f3f3"/>
            <path id="Path_7585" data-name="Path 7585" d="M783.081,882.62a1.323,1.323,0,0,1,1.049-1.307,2.628,2.628,0,0,1,1.769.3c.546.273,1.039.641,1.587.914a2.586,2.586,0,0,0,1.769.289c.853-.224,1.481-1.085,2.362-1.119.808-.033,1.63.651,2.356.3a3.079,3.079,0,0,1,.4-.21.325.325,0,0,1,.393.126c.1.218-.184.405-.411.48l-1.548.513a1.982,1.982,0,0,0,1.3.085,5.373,5.373,0,0,1,.626-.187.625.625,0,0,1,.593.189.339.339,0,0,1-.151.525.342.342,0,0,0,.5.134c.117.34-.213.694-.566.763a2.583,2.583,0,0,1-1.063-.132,5.127,5.127,0,0,0-2.09-.051,4.489,4.489,0,0,1-1.339.167,5.935,5.935,0,0,1-1.022-.318,6.96,6.96,0,0,0-3.151.035,3.462,3.462,0,0,1-1.738-.037A4.62,4.62,0,0,1,783.081,882.62Z" transform="translate(-731.392 -798.22)" fill="#f3f3f3"/>
            <path id="Path_7586" data-name="Path 7586" d="M847.212,891.78a.813.813,0,0,1,.427-.255.484.484,0,0,1,.458.149.338.338,0,0,1-.027.454c-.072.059-.168.081-.243.138a1.007,1.007,0,0,0-.194.265.293.293,0,0,1-.272.155.234.234,0,0,1-.162-.145.582.582,0,0,1-.033-.222A2.74,2.74,0,0,1,847.212,891.78Z" transform="translate(-782.376 -806.389)" fill="#f3f3f3"/>
            <path id="Path_7587" data-name="Path 7587" d="M854.937,890.85a1.386,1.386,0,0,1,1.693-.592c.235.1.476.269.72.2.178-.053.292-.222.44-.336a1.113,1.113,0,0,1,.959-.151,3.127,3.127,0,0,1,.9.448,2.777,2.777,0,0,1-1.523.46.965.965,0,0,0-.53.083c-.278.177-.268.627-.546.8a.692.692,0,0,1-.681-.057,2.093,2.093,0,0,0-.646-.3,4.222,4.222,0,0,0-.425,0,.454.454,0,0,1-.372-.171A.435.435,0,0,1,854.937,890.85Z" transform="translate(-788.515 -805.119)" fill="#f3f3f3"/>
            <path id="Path_7588" data-name="Path 7588" d="M882.175,885.159a1.037,1.037,0,0,1,.885-.371c.333,0,.665.088,1,.086.6,0,1.176-.285,1.777-.321.252-.014.5.012.753-.012a3.593,3.593,0,0,0,.932-.271l1.11-.436c.288-.114.644-.218.883-.022a.454.454,0,0,1-.018.686.884.884,0,0,1-.329.124l-2.955.684a9.894,9.894,0,0,1-1.736.3,10.042,10.042,0,0,1-2.133-.2.313.313,0,0,1-.209-.091C882.089,885.249,882.118,885.133,882.175,885.159Z" transform="translate(-810.176 -800.165)" fill="#f3f3f3"/>
            <path id="Path_7589" data-name="Path 7589" d="M876.142,896.935a1.373,1.373,0,0,1,1.624-.147c.26.167.489.431.8.438.159,0,.335-.063.464.031a.342.342,0,0,1,.024.45.817.817,0,0,1-.8.338,1.215,1.215,0,0,1-.761-.476c-.1-.128-.2-.287-.358-.311a.674.674,0,0,0-.37.11.589.589,0,0,1-.552,0A.294.294,0,0,1,876.142,896.935Z" transform="translate(-805.372 -810.428)" fill="#f3f3f3"/>
            <path id="Path_7590" data-name="Path 7590" d="M904.838,888.2a2.176,2.176,0,0,1,.814-.635c.243-.108.5-.171.744-.285a1.016,1.016,0,0,0,.554-.541c.057-.169.045-.358.1-.527.127-.366.534-.541.89-.7a10.551,10.551,0,0,0,2.55-1.577c.135-.114.278-.3.172-.446a.324.324,0,0,0-.253-.1,2.659,2.659,0,0,0-1.685.715,5.64,5.64,0,0,1-1.546,1.036c-.452.159-1,.2-1.272.594-.235.346-.145.832-.356,1.195a4.444,4.444,0,0,1-.513.562A.85.85,0,0,0,904.838,888.2Z" transform="translate(-828.24 -799.919)" fill="#f3f3f3"/>
            <path id="Path_7591" data-name="Path 7591" d="M797.295,790.875a3.131,3.131,0,0,0,1.288.564,1.075,1.075,0,0,0,1.153-.621c.127-.391-.07-.83.055-1.223.145-.458.661-.676,1.125-.8a2.125,2.125,0,0,0,1.262-.635c.28-.395.225-.951.491-1.358.425-.649,1.4-.592,2.061-1a3.385,3.385,0,0,0,1.168-1.791,2.822,2.822,0,0,1,1.274-1.7,1.863,1.863,0,0,1,1.622.14,1.293,1.293,0,0,1,.734,1c.014.432-.45.861-.849.688.5.089.992.179,1.489.271a.6.6,0,0,1,.358.153.414.414,0,0,1-.161.586,1.337,1.337,0,0,1-.679.114,1.014,1.014,0,0,0-.661.171l.763.6a3.084,3.084,0,0,0-1.284.484,1.048,1.048,0,0,0-.386,1.217c.192.395.665.544,1.053.751s.763.655.558,1.042c-.037.071-.094.134-.125.21-.127.313.217.611.534.735s.7.246.789.572c.108.411-.366.741-.785.828s-.908.108-1.17.446c-.483.621.262,1.718-.323,2.245a6.481,6.481,0,0,1-.656.352,1.12,1.12,0,0,0-.358,1.126,6.429,6.429,0,0,0,.438,1.166,1.611,1.611,0,0,1,.137.881.724.724,0,0,1-.593.6c-.3.026-.607-.291-.5-.572l-1.327.947c-.211.151-.532.291-.7.092-.1-.118-.072-.291-.086-.444a1.049,1.049,0,0,0-.957-.849,2.49,2.49,0,0,0-1.331.315,2.83,2.83,0,0,1-.75.287.782.782,0,0,1-.734-.232c-.09-.114-.133-.256-.225-.368-.252-.305-.732-.244-1.113-.126a1.367,1.367,0,0,1-1.147.035c-.489-.328-.288-1.1-.573-1.616-.251-.452-.845-.633-1.094-1.087a3.608,3.608,0,0,1-.2-1.195,5.66,5.66,0,0,0-.434-1.176,1.749,1.749,0,0,1-.125-1.223C796.463,791.076,796.98,790.673,797.295,790.875Z" transform="translate(-741.88 -719.312)" fill="#f3f3f3"/>
            <path id="Path_7592" data-name="Path 7592" d="M876.8,813.59a1.4,1.4,0,0,1,.429-.635.6.6,0,0,1,.722-.014.7.7,0,0,1,.125.727,2,2,0,0,1-1.229,1.2,5.5,5.5,0,0,1-1.748.285,15.12,15.12,0,0,0-2.926.291,3.313,3.313,0,0,0-1.3.588,1.682,1.682,0,0,0-.663,1.225,1.146,1.146,0,0,0,.742,1.117,1.589,1.589,0,0,0,1.46-.493,7,7,0,0,1,1.2-1.071,1.907,1.907,0,0,1,2.135.234.591.591,0,0,1,.241.617c-.084.2-.327.273-.54.322l-1.885.423c-.307.069-.673.2-.726.5a.7.7,0,0,0,.168.507,6.252,6.252,0,0,0,1.211,1.154,3.9,3.9,0,0,1,1.108,1.242,1.51,1.51,0,0,1-.082,1.584,1.349,1.349,0,0,1-1.4.4,1.909,1.909,0,0,1-1.129-.989,3.339,3.339,0,0,1-.319-1.492,1.191,1.191,0,0,0-.184-.81.7.7,0,0,0-1.012.106,1.246,1.246,0,0,0-.133,1.107,8.857,8.857,0,0,0,.47,1.056,1.714,1.714,0,0,1,.159,1.124,1.065,1.065,0,1,1-2.035-.629,5.088,5.088,0,0,1,.419-.729.8.8,0,0,0,.053-.8c-.249-.377-.853-.263-1.219-.525a1,1,0,0,1-.28-1.073c.1-.381.317-.718.45-1.087.382-1.056.055-2.31.6-3.291a3.011,3.011,0,0,1,2.139-1.337,20.162,20.162,0,0,1,2.6-.142A4.277,4.277,0,0,0,876.8,813.59Z" transform="translate(-799.409 -743.714)" fill="#f3f3f3"/>
            <path id="Path_7593" data-name="Path 7593" d="M928.868,805.32a2.938,2.938,0,0,0-.341,4.989c.219-.063.28-.356.207-.572s-.235-.389-.325-.6a.483.483,0,0,1,.113-.611c.335-.2.81.3,1.115.063a.351.351,0,0,0,.094-.389.584.584,0,0,0-.293-.3,5.554,5.554,0,0,0-.634-.193.56.56,0,0,1-.415-.462.484.484,0,0,1,.266-.4,1.411,1.411,0,0,1,.485-.136.891.891,0,0,0-.669-.159A1.723,1.723,0,0,0,928.868,805.32Z" transform="translate(-846.122 -737.737)" fill="#f3f3f3"/>
            <path id="Path_7594" data-name="Path 7594" d="M922.223,847.413a.887.887,0,0,1,1.5-.254.523.523,0,0,1,.143.419.484.484,0,0,1-.307.34,1.192,1.192,0,0,1-.472.065,1.372,1.372,0,0,1-.7-.151C922.182,847.71,922.035,847.462,922.223,847.413Z" transform="translate(-842.015 -770.815)" fill="#f3f3f3"/>
            <path id="Path_7595" data-name="Path 7595" d="M934.19,843.275a8.832,8.832,0,0,1,1.427-.654,3,3,0,0,1,1.55-.122,3.567,3.567,0,0,1,1.166.535,6.894,6.894,0,0,1-3.047.932,1.407,1.407,0,0,1-.8-.043A.538.538,0,0,1,934.19,843.275Z" transform="translate(-851.576 -767.305)" fill="#f3f3f3"/>
            <path id="Path_7596" data-name="Path 7596" d="M929.03,833.543a1.874,1.874,0,0,1,1.084.444c.121.1.235.269.157.407-.065.118-.227.134-.364.136a1.905,1.905,0,0,1-.689-.077.641.641,0,0,1-.438-.495C928.754,833.728,928.961,833.482,929.03,833.543Z" transform="translate(-847.299 -760.207)" fill="#f3f3f3"/>
            <path id="Path_7597" data-name="Path 7597" d="M945.97,833.631a1.7,1.7,0,0,1,1.135.012c.225.083.464.285.4.517a.45.45,0,0,1-.4.283.955.955,0,0,1-.794-.267A3.322,3.322,0,0,1,945.97,833.631Z" transform="translate(-860.975 -760.212)" fill="#f3f3f3"/>
            <path id="Path_7598" data-name="Path 7598" d="M948.413,821.33a1.024,1.024,0,0,1,.5-.883.7.7,0,0,1,.926.252.532.532,0,0,1-.456.751,2.7,2.7,0,0,0,2.286-.315c.73-.322,1.679-.558,2.252,0a2.473,2.473,0,0,1,.472,1.685c.039.6.225,1.294.791,1.5a1.291,1.291,0,0,0,1.331-.493c.327-.381.521-.857.816-1.264a4.109,4.109,0,0,1,3.5-1.512,8.84,8.84,0,0,1,3.752,1.195c1.168.623,2.28,1.354,3.495,1.879a11.048,11.048,0,0,1,1.971.934,2.262,2.262,0,0,1,1.074,1.8,2.522,2.522,0,0,0,0,.7,1.326,1.326,0,0,0,.626.686,5.458,5.458,0,0,1,1.638,1.292,1.379,1.379,0,0,1-.145,1.879,1.488,1.488,0,0,1-1.7-.238c-.479-.381-.818-.91-1.276-1.317a1.7,1.7,0,0,0-1.814-.387.987.987,0,0,0-1.577.372c-.1.326-.01.68-.09,1.01a1.331,1.331,0,0,1-1.26.914,2.677,2.677,0,0,1-1.556-.531c-.7-.464-1.442-1.119-2.247-.892a2.65,2.65,0,0,0-.916.594,1.687,1.687,0,0,1-.969.478c-.368.014-.765-.283-.718-.645.039-.3.346-.493.638-.578a2.938,2.938,0,0,0,.863-.283c.6-.407.452-1.37-.02-1.919a4.416,4.416,0,0,0-2.6-1.225,9.51,9.51,0,0,1-2.816-.753c-.5-.271-1.067-.67-1.575-.415-.182.092-.317.254-.495.352a1.044,1.044,0,0,1-1.208-.305,3.032,3.032,0,0,1-.562-1.2,1.049,1.049,0,0,0,1.117-.7l-2.661-1.079a3.6,3.6,0,0,1-1.012-.544C948.509,821.859,948.3,821.484,948.413,821.33Z" transform="translate(-862.893 -749.722)" fill="#f3f3f3"/>
            <path id="Path_7599" data-name="Path 7599" d="M977.951,856.75a2.392,2.392,0,0,1,.106-1.712.742.742,0,0,1,.519-.48c.348-.041.6.332.693.666a3.09,3.09,0,0,1,.076,1.433.982.982,0,0,1-.474.763.679.679,0,0,1-.81-.283C977.9,856.874,977.912,856.524,977.951,856.75Z" transform="translate(-886.329 -776.95)" fill="#f3f3f3"/>
            <path id="Path_7600" data-name="Path 7600" d="M958.917,869.683a1.68,1.68,0,0,0-1.176.765.605.605,0,0,0-.041.69.5.5,0,0,0,.62.043,1.432,1.432,0,0,0,.432-.509,1.462,1.462,0,0,0,.209-.452.5.5,0,0,0-.119-.464C958.721,869.642,958.5,869.636,958.917,869.683Z" transform="translate(-870.233 -788.977)" fill="#f3f3f3"/>
            <g id="Group_33573" data-name="Group 33573" transform="translate(5.589 0.049)">
              <path id="Path_7601" data-name="Path 7601" d="M884.588,893.432c1.4-.824,1.609-2.746,1.495-4.364s-.341-3.413.64-4.71a1.6,1.6,0,0,1,1.9-.653,1.648,1.648,0,0,1,.71,1.034c.609,2.115-.626,4.649.62,6.464a7.323,7.323,0,0,0,2.378,1.812,3.327,3.327,0,0,1,1.8,2.276c.08.847-.393,1.785.063,2.5.243.383.689.578,1.029.879,1.08.955.873,2.674.442,4.044a22.245,22.245,0,0,1-10.945,12.956,5.064,5.064,0,0,1-2.393.71,2.038,2.038,0,0,1-1.947-1.319,4.826,4.826,0,0,1,.162-1.93c.09-.645-.08-1.447-.7-1.661-.728-.252-1.393.484-1.8,1.138s-1.014,1.413-1.763,1.227c-.845-.21-.93-1.374-1.481-2.044-.873-1.065-2.573-.617-3.842-.079q-7.012,2.971-14.022,5.943a3.587,3.587,0,0,1-1.5.391,1.226,1.226,0,0,1-1.184-.835c-.112-.488.2-.961.348-1.439.491-1.529-.626-3.092-1.81-4.179s-2.595-2.147-2.943-3.715a4.678,4.678,0,0,1,2.069-4.474,24.834,24.834,0,0,1,4.66-2.331,7.4,7.4,0,0,0,3.861-3.34c.481-1.071.581-2.4,1.5-3.131.669-.533,1.611-.6,2.3-1.107a7.343,7.343,0,0,0,1.294-1.543,2.046,2.046,0,0,1,1.7-.94c.957.1,1.691,1.288,2.616,1.024.722-.208.9-1.111,1.143-1.82a5.727,5.727,0,0,1,3.675-3.3,17.043,17.043,0,0,1,5.061-.655,7.673,7.673,0,0,0,.615,5.219C881.285,893.013,883.6,894.014,884.588,893.432Z" transform="translate(-790.043 -800.115)" fill="#595959"/>
              <g id="Group_33572" data-name="Group 33572">
                <path id="Path_7602" data-name="Path 7602" d="M640.863,476.947c.151.212-.229.649-.513.725a2.158,2.158,0,0,1-.873-.057.916.916,0,0,0-.826.185c-.2.218-.065.672.229.643a3.606,3.606,0,0,1,3.957,3.216.6.6,0,0,1-.785.617,7.8,7.8,0,0,1-4.928-5.384.452.452,0,0,0-.691-.226c-.256.212.366.539,0,.837a.725.725,0,0,1-1.188-.434.479.479,0,0,0-.941-.059.836.836,0,0,0,.182.767c.172.214.73.25.644.511-.391,1.193-2.5-.25-3.693-.452a5.687,5.687,0,0,0-5.607,2.878.24.24,0,0,0,.3.336,4.763,4.763,0,0,1,5.716,2.622c1.08,2.673-.869,6.251-4.055,6.206a3.4,3.4,0,0,0-2.945,1.451c-2.356,3.595,3.376,4.15,2.593,6.505a3.42,3.42,0,0,1-1.442,1.565,1.915,1.915,0,0,1-2.644-.177,1.184,1.184,0,0,1-.029-1.327,1.946,1.946,0,0,0-.149-2.109c-.472-.6-1.789.065-2.068-.647-.209-.535.213-1.142-.352-1.266a2.209,2.209,0,0,0-1.6.535c-.483.316-1.292.942-1.607.46-.378-.576.812-1.693.223-2.05-1.18-.714-2.3,1.415-3.45,2.274a.458.458,0,0,0,.127.792,5.9,5.9,0,0,1,.877.2c.3.161.129,1.181,0,.548-.27-1.354.65-2.1,1.953-1.63,4.016,1.445,1.822,2.039.9,2.3a3.611,3.611,0,0,0-1.634.7,1.02,1.02,0,0,0,.254,1.6,6.552,6.552,0,0,1,3.38,5.162c.172,2.208-1.059,4.366-2.307,6.336a.28.28,0,0,1-.022.043,43.97,43.97,0,0,1-3.759,3.352c-1.331,1.909-4.382,1.606-6.573,2.408a1.573,1.573,0,0,0-.935,1.746,3.608,3.608,0,0,1-.051,1.895,2.092,2.092,0,0,1-1.317,1.356,1.366,1.366,0,0,1-1.828-1.36,1.05,1.05,0,0,1,.775-.877,1.22,1.22,0,0,0,.221-2.239,1.513,1.513,0,0,0-1.515.259l-2.417,2.2a1.752,1.752,0,0,0,.292,2.542c1.037.763,1.947,1.679,2.9,2.538a5.442,5.442,0,0,1,1.577,4.472,7.541,7.541,0,0,1-2.07,3.737,22.4,22.4,0,0,1-3.5,2.791.585.585,0,0,1-.861-.486,2.549,2.549,0,0,0-.53-1.785,9.6,9.6,0,0,0-2.943-1.883,3.483,3.483,0,0,1-1.773-1.936.471.471,0,0,0-.92.069c-.16,1.335-.495,1.976-.654,3.312l-.043.372a8.263,8.263,0,0,0,4.272,6.54,2.383,2.383,0,0,1,1.172,1.555,16.627,16.627,0,0,0,2.663,5.6,9.37,9.37,0,0,1-6.726-6.56,4.235,4.235,0,0,0-1.395-1.938,7.2,7.2,0,0,1-1.63-1.777,2.744,2.744,0,0,1-.094-2.383q.107-3.273.217-6.548a1.872,1.872,0,0,0-1.278-1.793,1.894,1.894,0,0,0-2,.637.951.951,0,0,1-1.493.022,1.976,1.976,0,0,1-.18-1.655,7.09,7.09,0,0,0,.35-1.645,1.536,1.536,0,0,0-1.008-1.354,2.465,2.465,0,0,1-1.622-2.732.723.723,0,0,0-.845-.867,2.487,2.487,0,0,0-1.047.7,1.929,1.929,0,0,1-1.26.586.965.965,0,0,0-1.3-.051,2.751,2.751,0,0,0-.769,1.2,2.9,2.9,0,0,1-.753,1.209,20.259,20.259,0,0,0-4.466,5.017,3.731,3.731,0,0,0-2.188,3.47,10.248,10.248,0,0,1-1.027,4.891,6,6,0,0,1-1.229,3.57.621.621,0,0,1-1-.014,1.873,1.873,0,0,1-.213-1.008,58.288,58.288,0,0,1-1.746-16.747,1.146,1.146,0,1,1-1.391-.94,2.916,2.916,0,0,1-.757-3.206,4.474,4.474,0,0,0-1.822.387,2.531,2.531,0,0,1-1.832.079,1.347,1.347,0,0,1-.579-1.722.657.657,0,0,1-1.243.112.722.722,0,0,1,.237-.8,1.762,1.762,0,0,0,.616-1.252c.023-.5-.186-1-.035-1.449a67.164,67.164,0,0,1,34.259-33.857c15.09-6.544,31.8-6.937,47.517-2.192.016,0,.119.033.11.043Z" transform="translate(-557.667 -473.524)" fill="#595959"/>
                <path id="Path_7603" data-name="Path 7603" d="M916.17,509.61l4.513,5.734a.3.3,0,1,0,.37-.45l.9.138a5.791,5.791,0,0,0-.832-.478,2.044,2.044,0,0,1-.744-.594.883.883,0,0,1-.1-.906.577.577,0,0,1,.82-.206,4.614,4.614,0,0,1-2.076-1.5A4.392,4.392,0,0,0,916.17,509.61Z" transform="translate(-842.858 -502.265)" fill="#595959"/>
                <path id="Path_7604" data-name="Path 7604" d="M910.176,550.594a5.163,5.163,0,0,0-4.918,3.54,1.322,1.322,0,0,0,1.2,1.736c-.08.293.3.548.593.448a.864.864,0,0,0,.491-.714c.082-.521-.08-1.067.393-1.543a22.669,22.669,0,0,0,6.924-3.177.663.663,0,0,0,1.069.012,1.347,1.347,0,0,0,.11-1.221,10.889,10.889,0,0,1-.413-1.2,1.1,1.1,0,0,1,.385-1.138,6.347,6.347,0,0,0-3.2-3.411,1.084,1.084,0,0,1,.965-.372c.36.02.712.132,1.071.157a1.115,1.115,0,0,0,.977-.348.566.566,0,0,0-.239-.875c.225-.118.452-.234.677-.352l-1.027-.419a2.974,2.974,0,0,0-.434-.138l-1.072-.248a2.756,2.756,0,0,0-.344-.057l-1.1-.116c-.272.592.092.837.309,1.16a.493.493,0,0,1-.384.743.688.688,0,0,0-.472.794,1.607,1.607,0,0,0,.75.9c.568.389,1.229.747.982,1.8-.7-.086-.62.586-.4.983.172.318.362.747.1,1a9.958,9.958,0,0,1-2.642,1.987A2.944,2.944,0,0,1,910.176,550.594Z" transform="translate(-834.113 -527.385)" fill="#595959"/>
                <path id="Path_7605" data-name="Path 7605" d="M858.081,656.18,859,654.7a.647.647,0,0,1,.881-.14.979.979,0,0,1,.376.871,2.161,2.161,0,0,1-.331.926,8.567,8.567,0,0,0-.487.865,1.418,1.418,0,0,0-.1.967.588.588,0,0,1-.6.688.911.911,0,0,1-.777-.631,2.09,2.09,0,0,1-.037-1.048A7.4,7.4,0,0,0,858.081,656.18Z" transform="translate(-796.49 -617.626)" fill="#595959"/>
                <path id="Path_7606" data-name="Path 7606" d="M862.325,702.143a1.33,1.33,0,0,0,.117-.957c-.061-.324-.178-.635-.219-.961a1.657,1.657,0,0,1,.264-1.174,1.153,1.153,0,0,1,1.072-.484.887.887,0,0,1,.753.845c-.008.263-.145.552,0,.771s.517.206.744.372a.661.661,0,0,1,.188.725,1.638,1.638,0,0,1-.454.647,2.923,2.923,0,0,0-.523.6,1.255,1.255,0,0,0,.094,1.356c.172.224.44.442.395.721-.063.383-.654.468-.763.841a.566.566,0,0,0,.131.49,4.289,4.289,0,0,0,.376.37,1.131,1.131,0,0,1,.37.71.616.616,0,0,1-.413.635.824.824,0,0,1-.793-.393,2.246,2.246,0,0,1-.43-1.7,2.781,2.781,0,0,0,.067-.5.529.529,0,0,0-.206-.438c-.229-.149-.546-.01-.8-.114-.3-.12-.37-.5-.36-.82A3.039,3.039,0,0,1,862.325,702.143Z" transform="translate(-799.714 -652.752)" fill="#595959"/>
                <path id="Path_7607" data-name="Path 7607" d="M879.292,726.9a4,4,0,0,1,.9-.611,1.317,1.317,0,0,1,1.059-.041.8.8,0,0,1,.472.883c-.063.236-.26.464-.174.694.092.246.425.275.689.258l1.067-.059c.264-.014.6.012.693.259.123.321-.307.631-.254.971.065.427.806.515.81.946,0,.23-.221.393-.319.6a.6.6,0,0,0,.129.678c.117.11.282.179.337.328a.345.345,0,0,1-.327.425.537.537,0,0,1-.477-.35,1.218,1.218,0,0,1-.045-.619.95.95,0,0,0-.037-.6.859.859,0,0,0-.3-.265c-.229-.145-.458-.287-.685-.432a.779.779,0,0,1-.354-.348.8.8,0,0,1,.149-.649,4.651,4.651,0,0,1-1.4-.136,1.581,1.581,0,0,1-1.041-.873,1.4,1.4,0,0,0-.249-.547,1.552,1.552,0,0,0-.411-.216C879.386,727.126,879.212,726.961,879.292,726.9Z" transform="translate(-813.505 -674.731)" fill="#595959"/>
                <path id="Path_7608" data-name="Path 7608" d="M885.946,759.828a6.905,6.905,0,0,0,1.55-1.174.925.925,0,0,0,.288-.446c.031-.153-.012-.311.012-.464a.65.65,0,0,1,.583-.507.958.958,0,0,1,.746.3,1.835,1.835,0,0,1,.4.716,2.127,2.127,0,0,1,.117.91,1.21,1.21,0,0,1-.415.8c-.168.134-.387.226-.479.419-.141.293.088.643.027.963-.07.354-.452.539-.787.67a.5.5,0,0,1,.215.631.684.684,0,0,1-.585.385,1.071,1.071,0,0,1-.687-.224,1.5,1.5,0,0,1-.219-2.235.294.294,0,0,0,.106-.181.183.183,0,0,0-.145-.167.485.485,0,0,0-.235.012,4.377,4.377,0,0,0-1.63.737.56.56,0,0,1-.192.106.177.177,0,0,1-.194-.071.762.762,0,0,1-.031-.122.263.263,0,0,0-.387-.106.527.527,0,0,0-.2.4c-.016.153,0,.309-.033.462a.457.457,0,0,1-.264.356.408.408,0,0,1-.479-.3.992.992,0,0,1,.057-.613,2.385,2.385,0,0,1,.593-1,1.3,1.3,0,0,1,1.074-.364.528.528,0,0,0,.35,0c.155-.088.145-.33.282-.446a.318.318,0,0,1,.44.086A1.175,1.175,0,0,1,885.946,759.828Z" transform="translate(-816.472 -699.487)" fill="#595959"/>
                <path id="Path_7609" data-name="Path 7609" d="M883.873,748.249a1.178,1.178,0,0,1,.628.136.407.407,0,0,1,.147.558c-.237.3-.83-.029-1.067.271-.092.114-.086.281-.158.407a.372.372,0,1,1-.646-.368,1.34,1.34,0,0,1-.6.456.653.653,0,0,1-.7-.177.431.431,0,0,1,.137-.647c.143-.057.344-.041.407-.179a.232.232,0,0,0-.016-.2.708.708,0,0,0-.589-.293,1.135,1.135,0,0,1-.648-.185.719.719,0,0,1-.127-.763,1.166,1.166,0,0,1,.814-.774.914.914,0,0,1,1,.436c.051.1.08.21.139.307a.324.324,0,0,0,.27.175c.221-.01.286-.309.456-.452a.458.458,0,0,1,.591.053.707.707,0,0,1,.172.6A5.194,5.194,0,0,1,883.873,748.249Z" transform="translate(-814.548 -690.914)" fill="#595959"/>
                <path id="Path_7610" data-name="Path 7610" d="M847.352,750.811a21.408,21.408,0,0,1,3.092-3.835,1.138,1.138,0,0,0,.466-.836c-.012-.132-.072-.257-.088-.387a1.023,1.023,0,0,1,.323-.759,2.38,2.38,0,0,0,.505-.678.573.573,0,0,0,0-.45.351.351,0,0,0-.38-.2.561.561,0,0,0-.26.193,3.22,3.22,0,0,0-.519.682,9.6,9.6,0,0,0-.37,1.26,8.9,8.9,0,0,1-1.916,2.43,5.226,5.226,0,0,0-1.02,2.031.646.646,0,0,0-.023.318A.4.4,0,0,0,847.352,750.811Z" transform="translate(-787.953 -688.675)" fill="#595959"/>
                <path id="Path_7611" data-name="Path 7611" d="M1015.843,1045.188a1.312,1.312,0,0,1-.018-.9.757.757,0,0,1,.918-.34c.151.055.286.153.442.193a1.142,1.142,0,0,0,.969-.36,5.178,5.178,0,0,0,.82-.9.271.271,0,0,1,.143-.124c.094-.023.182.063.221.151a.824.824,0,0,1-.256.869,7.165,7.165,0,0,0-.7.663c-.2.271-.278.609-.452.9a2.372,2.372,0,0,1-1.225.9.822.822,0,0,1-.683.032.584.584,0,0,1-.258-.5C1015.763,1045.577,1015.892,1045.377,1015.843,1045.188Z" transform="translate(-922.075 -926.899)" fill="#595959"/>
              </g>
            </g>
          </g>
        </g>
      </g>
      <g id="Layer_21" transform="translate(0 106.366)">
        <g id="Group_33576" data-name="Group 33576">
          <path id="Path_7612" data-name="Path 7612" d="M626.56,1003.747v1.115a7.907,7.907,0,0,1-7.924,7.887H470.484a7.906,7.906,0,0,1-7.924-7.887v-1.115c0-.2.006-.4.022-.6a7.911,7.911,0,0,1,7.9-7.287H618.635a7.912,7.912,0,0,1,7.9,7.287C626.553,1003.346,626.56,1003.546,626.56,1003.747Z" transform="translate(-462.56 -995.86)" fill="#666"/>
          <path id="Path_7613" data-name="Path 7613" d="M626.56,1032.26v1.115a7.907,7.907,0,0,1-7.924,7.887H470.484a7.906,7.906,0,0,1-7.924-7.887v-1.115c0-.2.006-.4.022-.6H626.537C626.553,1031.859,626.56,1032.059,626.56,1032.26Z" transform="translate(-462.56 -1024.373)" fill="#595959"/>
        </g>
      </g>
    </g>
    <g id="Group_33588" data-name="Group 33588" transform="translate(197 1359.419) rotate(-8)">
      <g id="Layer_15_copy_3" transform="translate(2.93)">
        <g id="Group_33584" data-name="Group 33584" transform="translate(0 0)">
          <g id="Group_33579" data-name="Group 33579" transform="translate(16.368 12.021)">
            <path id="Path_7614" data-name="Path 7614" d="M4.3,2.659l-1.094,1.1a.625.625,0,0,1-.771.083L.274,2.467a.569.569,0,0,1-.226-.713L.664.355A.618.618,0,0,1,1.556.1L4.2,1.77A.569.569,0,0,1,4.3,2.659Z" transform="translate(30.665)" fill="#666"/>
            <path id="Path_7615" data-name="Path 7615" d="M3.889,1.06,1.37,4.729a.6.6,0,0,1-.813.162L.265,4.705A.549.549,0,0,1,.1,3.923L2.616.254A.6.6,0,0,1,3.43.092l.292.185A.552.552,0,0,1,3.889,1.06Z" transform="translate(11.556 27.251)" fill="#252525"/>
            <path id="Path_7616" data-name="Path 7616" d="M7.342,4.25,5.18,6.551A.944.944,0,0,1,3.994,6.7L.413,4.43A.863.863,0,0,1,.084,3.325L1.438.512A.936.936,0,0,1,2.776.146l4.39,2.775A.864.864,0,0,1,7.342,4.25Z" transform="translate(27.533 1.018)" fill="#252525"/>
            <g id="Group_33577" data-name="Group 33577" transform="translate(6.583 2.013)">
              <path id="Path_7617" data-name="Path 7617" d="M2.193.056l.178.112a.335.335,0,0,1,.1.473L.831,3.035a.364.364,0,0,1-.492.1L.16,3.02a.334.334,0,0,1-.1-.473L1.7.153A.366.366,0,0,1,2.193.056Z" transform="translate(9.438 20.702)" fill="#666" stroke="#707070" stroke-width="1"/>
              <path id="Path_7618" data-name="Path 7618" d="M.21,2.719A.432.432,0,0,1,.1,2.075C2.265-.507,6.852-.721,10.63,1.668s5.381,6.519,3.764,9.449a.475.475,0,0,1-.661.157Z" transform="translate(0 20.737)" fill="#252525"/>
              <path id="Path_7619" data-name="Path 7619" d="M15.619,9.924l-.116.171a.364.364,0,0,1-.492.1L.16.8a.335.335,0,0,1-.1-.473L.175.154a.363.363,0,0,1,.492-.1L15.517,9.45A.335.335,0,0,1,15.619,9.924Z" transform="translate(5.6 13.176)" fill="#252525"/>
              <path id="Path_7620" data-name="Path 7620" d="M8.849,4.1l-2.6,3.788a.457.457,0,0,1-.618.121L.2,4.575a.416.416,0,0,1-.126-.594L2.671.192A.457.457,0,0,1,3.289.071L8.723,3.507A.42.42,0,0,1,8.849,4.1Z" transform="translate(13.438 8.308)" fill="#666"/>
              <path id="Path_7621" data-name="Path 7621" d="M15.619,9.924l-.116.171a.364.364,0,0,1-.492.1L.161.8a.334.334,0,0,1-.1-.473L.174.154a.364.364,0,0,1,.492-.1L15.517,9.45A.335.335,0,0,1,15.619,9.924Z" transform="translate(11.621 4.403)" fill="#252525"/>
              <path id="Path_7622" data-name="Path 7622" d="M.127,8.461,5.362.66c.033-.048.069-.093.1-.136A1.572,1.572,0,0,1,7.475.241L14.193,4.49a1.431,1.431,0,0,1,.435,2.031l-5.235,7.8a.786.786,0,0,1-1.058.209L.343,9.476A.714.714,0,0,1,.127,8.461Z" transform="translate(13.827)" fill="#252525"/>
            </g>
            <g id="Group_33578" data-name="Group 33578" transform="translate(0 30.406)">
              <ellipse id="Ellipse_1197" data-name="Ellipse 1197" cx="1.386" cy="1.331" rx="1.386" ry="1.331" transform="translate(10.841 0)" fill="#252525"/>
              <path id="Path_7623" data-name="Path 7623" d="M9.267,5.861h0A12.3,12.3,0,0,1,.078.128L0,0" transform="translate(0 9.727)" fill="none" stroke="#b00020" stroke-linecap="round" stroke-linejoin="round" stroke-width="2"/>
              <path id="Path_7624" data-name="Path 7624" d="M6.951,4.4h0A9.22,9.22,0,0,1,.059.1L0,0" transform="translate(3.541 6.767)" fill="none" stroke="#b00020" stroke-linecap="round" stroke-linejoin="round" stroke-width="2"/>
              <path id="Path_7625" data-name="Path 7625" d="M4.635,2.929h0A6.143,6.143,0,0,1,.04.064L0,0" transform="translate(7.269 3.555)" fill="none" stroke="#b00020" stroke-linecap="round" stroke-linejoin="round" stroke-width="2"/>
            </g>
            <path id="Path_7626" data-name="Path 7626" d="M.126,6.046,3.67.66A1.569,1.569,0,0,1,5.786.241L12.5,4.49a1.431,1.431,0,0,1,.435,2.03L9.4,11.907a.786.786,0,0,1-1.058.209L.345,7.061A.714.714,0,0,1,.126,6.046Z" transform="translate(13.83 13.759)" fill="#252525"/>
          </g>
          <g id="Group_33581" data-name="Group 33581">
            <path id="Path_7627" data-name="Path 7627" d="M35.9,19.057,29.024,29.072a2.193,2.193,0,0,1-2.961.585L.962,13.781a2,2,0,0,1-.609-2.844L7.227.923A2.193,2.193,0,0,1,10.188.338l25.1,15.875A2,2,0,0,1,35.9,19.057Z" fill="#b00020" stroke="#252525" stroke-width="0.6"/>
            <g id="Group_33580" data-name="Group 33580" transform="translate(2.217 1.373)">
              <line id="Line_41" data-name="Line 41" x1="28.671" y1="18.134" transform="translate(0 6.852)" fill="none" stroke="#252525" stroke-width="0.5"/>
              <line id="Line_42" data-name="Line 42" x1="28.671" y1="18.132" transform="translate(3.265 2.097)" fill="none" stroke="#252525" stroke-width="0.5"/>
              <line id="Line_43" data-name="Line 43" x1="9.226" y2="13.441" transform="translate(20.876 12.96)" fill="none" stroke="#252525" stroke-width="0.5"/>
              <line id="Line_44" data-name="Line 44" x1="9.207" y2="13.414" transform="translate(16.786 10.414)" fill="none" stroke="#252525" stroke-width="0.5"/>
              <line id="Line_45" data-name="Line 45" x1="9.224" y2="13.441" transform="translate(12.72 7.787)" fill="none" stroke="#252525" stroke-width="0.5"/>
              <line id="Line_46" data-name="Line 46" x1="9.298" y2="13.545" transform="translate(8.594 5.164)" fill="none" stroke="#252525" stroke-width="0.5"/>
              <line id="Line_47" data-name="Line 47" x1="9.226" y2="13.441" transform="translate(4.539 2.644)" fill="none" stroke="#252525" stroke-width="0.5"/>
              <line id="Line_48" data-name="Line 48" x1="9.295" y2="13.545" transform="translate(0.43 0)" fill="none" stroke="#252525" stroke-width="0.5"/>
            </g>
          </g>
          <g id="Group_33583" data-name="Group 33583" transform="translate(42.222 26.705)">
            <path id="Path_7628" data-name="Path 7628" d="M35.9,19.057,29.024,29.072a2.193,2.193,0,0,1-2.96.585L.962,13.781a2,2,0,0,1-.609-2.844L7.228.923A2.193,2.193,0,0,1,10.188.338l25.1,15.875A2.005,2.005,0,0,1,35.9,19.057Z" fill="#b00020" stroke="#252525" stroke-width="0.6"/>
            <g id="Group_33582" data-name="Group 33582" transform="translate(2.215 1.37)">
              <line id="Line_49" data-name="Line 49" x1="28.671" y1="18.134" transform="translate(0 6.852)" fill="none" stroke="#252525" stroke-width="0.6"/>
              <line id="Line_50" data-name="Line 50" x1="28.671" y1="18.134" transform="translate(3.265 2.097)" fill="none" stroke="#252525" stroke-width="0.6"/>
              <line id="Line_51" data-name="Line 51" x1="9.226" y2="13.443" transform="translate(20.876 12.96)" fill="none" stroke="#252525" stroke-width="0.6"/>
              <line id="Line_52" data-name="Line 52" x1="9.207" y2="13.414" transform="translate(16.788 10.416)" fill="none" stroke="#252525" stroke-width="0.6"/>
              <line id="Line_53" data-name="Line 53" x1="9.217" y2="13.431" transform="translate(12.717 7.799)" fill="none" stroke="#252525" stroke-width="0.6"/>
              <line id="Line_54" data-name="Line 54" x1="9.298" y2="13.545" transform="translate(8.594 5.164)" fill="none" stroke="#252525" stroke-width="0.6"/>
              <line id="Line_55" data-name="Line 55" x1="9.207" y2="13.414" transform="translate(4.554 2.651)" fill="none" stroke="#252525" stroke-width="0.6"/>
              <line id="Line_56" data-name="Line 56" x1="9.298" y2="13.545" transform="translate(0.43 0)" fill="none" stroke="#252525" stroke-width="0.6"/>
            </g>
          </g>
        </g>
      </g>
      <g id="Group_33585" data-name="Group 33585" transform="matrix(0.875, 0.485, -0.485, 0.875, 4.093, 33.452)">
        <line id="Line_57" data-name="Line 57" x1="7.598" y2="8.442" transform="translate(0.422 0)" fill="none" stroke="#b00020" stroke-linecap="round" stroke-width="3"/>
        <line id="Line_58" data-name="Line 58" x2="8.442" y2="8.442" transform="translate(0 0)" fill="none" stroke="#b00020" stroke-linecap="round" stroke-width="3"/>
      </g>
      <g id="Group_33586" data-name="Group 33586" transform="translate(49.084 55.155) rotate(45)">
        <line id="Line_57-2" data-name="Line 57" x1="7.598" y2="8.442" transform="matrix(0.966, -0.259, 0.259, 0.966, 0.408, 2.076)" fill="none" stroke="#b00020" stroke-linecap="round" stroke-width="3"/>
        <line id="Line_58-2" data-name="Line 58" x2="8.442" y2="8.442" transform="matrix(0.966, -0.259, 0.259, 0.966, 0, 2.185)" fill="none" stroke="#b00020" stroke-linecap="round" stroke-width="3"/>
      </g>
    </g>
  </g>
</svg>
