<svg width="81" height="80" viewBox="0 0 81 80" fill="none" xmlns="http://www.w3.org/2000/svg">
<g id="notes">
<g id="Group 173084">
<path id="Vector" d="M24.3529 73.4088L9.56557 17.6033C9.26755 16.4735 9.42987 15.2715 10.0169 14.2612C10.604 13.2509 11.5678 12.5147 12.697 12.2141L54.8425 1.04641C55.9723 0.748401 57.1743 0.910726 58.1846 1.49777C59.1949 2.08482 59.9311 3.04865 60.2316 4.17781L75.019 59.9833C75.317 61.1132 75.1547 62.3151 74.5676 63.3254C73.9806 64.3357 73.0168 65.0719 71.8876 65.3725L29.742 76.5402C28.6122 76.8382 27.4103 76.6759 26.4 76.0888C25.3897 75.5018 24.6535 74.538 24.3529 73.4088Z" fill="#7BBDF4"/>
<g id="Group 173083">
<path id="Vector_2" d="M7.72022 67.5833L7.88027 9.8521C7.88483 8.68362 8.3527 7.56467 9.18124 6.74072C10.0098 5.91677 11.1313 5.45512 12.2998 5.45704L55.8997 5.57791C57.0681 5.58247 58.1871 6.05035 59.011 6.87888C59.835 7.70741 60.2966 8.82893 60.2947 9.99741L60.1346 67.7286C60.1301 68.8971 59.6622 70.0161 58.8337 70.84C58.0052 71.6639 56.8836 72.1256 55.7152 72.1237L12.1153 72.0028C10.9468 71.9983 9.82785 71.5304 9.0039 70.7019C8.17996 69.8733 7.7183 68.7518 7.72022 67.5833Z" fill="#B9DCF9"/>
<path id="Vector_3" d="M11.1128 50.1548L11.2157 13.0399C11.22 11.9456 11.6581 10.8977 12.4341 10.126C13.21 9.35436 14.2604 8.92201 15.3547 8.92383L52.8251 9.02772C53.9195 9.03196 54.9675 9.47011 55.7392 10.2461C56.5108 11.022 56.9432 12.0724 56.9415 13.1667L56.799 64.5397C56.7947 65.634 56.3565 66.6819 55.5806 67.4536C54.8046 68.2253 53.7542 68.6576 52.6598 68.6558L29.4477 68.5914C24.5732 68.5724 19.9053 66.6207 16.468 63.1643C13.0307 59.708 11.1048 55.0293 11.1128 50.1548Z" fill="white"/>
<path id="Vector_4" d="M48.6159 37.8977H19.3985C18.9336 37.8977 18.4877 37.713 18.159 37.3842C17.8302 37.0555 17.6455 36.6096 17.6455 36.1446C17.6455 35.6797 17.8302 35.2338 18.159 34.9051C18.4877 34.5763 18.9336 34.3916 19.3985 34.3916H48.6159C49.0808 34.3916 49.5267 34.5763 49.8555 34.9051C50.1842 35.2338 50.3689 35.6797 50.3689 36.1446C50.3689 36.6096 50.1842 37.0555 49.8555 37.3842C49.5267 37.713 49.0808 37.8977 48.6159 37.8977Z" fill="#D01E53"/>
<path id="Vector_5" d="M25.8264 28.2834H19.3985C18.9336 28.2834 18.4877 28.0987 18.159 27.77C17.8302 27.4412 17.6455 26.9953 17.6455 26.5304C17.6455 26.0655 17.8302 25.6196 18.159 25.2908C18.4877 24.962 18.9336 24.7773 19.3985 24.7773H25.8264C26.2913 24.7773 26.7372 24.962 27.0659 25.2908C27.3947 25.6196 27.5794 26.0655 27.5794 26.5304C27.5794 26.9953 27.3947 27.4412 27.0659 27.77C26.7372 28.0987 26.2913 28.2834 25.8264 28.2834Z" fill="#D01E53"/>
<path id="Vector_6" d="M48.6159 53.3117H19.3985C18.9336 53.3117 18.4877 53.1271 18.159 52.7983C17.8302 52.4695 17.6455 52.0236 17.6455 51.5587C17.6455 51.0938 17.8302 50.6479 18.159 50.3191C18.4877 49.9904 18.9336 49.8057 19.3985 49.8057H48.6159C49.0808 49.8057 49.5267 49.9904 49.8555 50.3191C50.1842 50.6479 50.3689 51.0938 50.3689 51.5587C50.3689 52.0236 50.1842 52.4695 49.8555 52.7983C49.5267 53.1271 49.0808 53.3117 48.6159 53.3117Z" fill="#D01E53"/>
<path id="Vector_7" d="M48.6159 45.6047H19.3985C18.9336 45.6047 18.4877 45.42 18.159 45.0913C17.8302 44.7625 17.6455 44.3166 17.6455 43.8517C17.6455 43.3867 17.8302 42.9408 18.159 42.6121C18.4877 42.2833 18.9336 42.0986 19.3985 42.0986H48.6159C49.0808 42.0986 49.5267 42.2833 49.8555 42.6121C50.1842 42.9408 50.3689 43.3867 50.3689 43.8517C50.3689 44.3166 50.1842 44.7625 49.8555 45.0913C49.5267 45.42 49.0808 45.6047 48.6159 45.6047Z" fill="#D01E53"/>
</g>
</g>
</g>
</svg>
