<svg width="36" height="36" viewBox="0 0 36 36" fill="none" xmlns="http://www.w3.org/2000/svg">
<path d="M4.5 10.6875C4.5 9.44486 5.50736 8.4375 6.75 8.4375H27.9375V12.9375H4.5V10.6875Z" fill="#00429C"/>
<path fill-rule="evenodd" clip-rule="evenodd" d="M4.5 10.6875V12.9375H6.75C5.50736 12.9375 4.5 11.9301 4.5 10.6875Z" fill="#087DE3"/>
<rect x="15.7461" y="3.34375" width="17.625" height="24.5625" rx="0.375" transform="rotate(15 15.7461 3.34375)" fill="#67AD5B"/>
<rect x="8.87842" y="3" width="17.625" height="24.5625" rx="0.375" fill="#91C58A"/>
<path d="M4.5 12.9375H29.625C30.8676 12.9375 31.875 13.9449 31.875 15.1875V30.75C31.875 31.9926 30.8676 33 29.625 33H6.75C5.50736 33 4.5 31.9926 4.5 30.75V12.9375Z" fill="#087DE3"/>
<path d="M24.1104 22.9494C24.1104 21.3248 25.4273 20.0078 27.0519 20.0078H32.917C32.9269 20.0078 32.935 20.0158 32.935 20.0257V25.873C32.935 25.8829 32.9269 25.8909 32.917 25.8909H27.0519C25.4273 25.8909 24.1104 24.5739 24.1104 22.9494Z" fill="#00429C"/>
</svg>
