<svg width="72" height="75" viewBox="0 0 72 75" fill="none" xmlns="http://www.w3.org/2000/svg">
<path d="M0 5.44017C0 2.43602 2.43535 0.000671387 5.4395 0.000671387H59.8345C62.8386 0.000671387 65.274 2.43602 65.274 5.44017V17.1691H0V5.44017Z" fill="#BE890E"/>
<path d="M13.6006 0.000305176H59.8363C62.8404 0.000305176 65.2758 2.43565 65.2758 5.4398V65.4442C65.2758 66.1953 64.667 66.8041 63.9159 66.8041H14.9605C14.2094 66.8041 13.6006 66.1953 13.6006 65.4442V0.000305176Z" fill="#F1BD56"/>
<path fill-rule="evenodd" clip-rule="evenodd" d="M13.6006 17.1684H65.2714V5.4395C65.2714 2.43535 62.836 0 59.8319 0H8.16113C11.1653 0 13.6006 2.43535 13.6006 5.4395V17.1684Z" fill="#F1BD56"/>
<path d="M18.9492 40.0167C18.9492 39.1053 19.688 38.3665 20.5994 38.3665H55.5829C56.4942 38.3665 57.233 39.1053 57.233 40.0167C57.233 40.928 56.4942 41.6668 55.5829 41.6668H20.5994C19.688 41.6668 18.9492 40.928 18.9492 40.0167Z" fill="#666666"/>
<path d="M18.9492 48.3511C18.9492 47.3942 19.725 46.6185 20.6819 46.6185H49.8898C50.8467 46.6185 51.6225 47.3942 51.6225 48.3511C51.6225 49.3081 50.8467 50.0838 49.8898 50.0838H20.6819C19.725 50.0838 18.9492 49.3081 18.9492 48.3511Z" fill="#666666"/>
<path d="M18.9492 56.5999C18.9492 55.6429 19.725 54.8672 20.6819 54.8672H43.9492C44.9061 54.8672 45.6819 55.6429 45.6819 56.5999C45.6819 57.5568 44.9061 58.3325 43.9492 58.3325H20.6819C19.725 58.3325 18.9492 57.5568 18.9492 56.5999Z" fill="#666666"/>
<path d="M41.194 27.9725L43.8223 25.3103C44.1259 25.0027 44.2964 24.5855 44.2964 24.1505C44.2964 23.7154 44.1259 23.2982 43.8223 22.9906C43.5188 22.683 43.1071 22.5102 42.6778 22.5102C42.2485 22.5102 41.8368 22.683 41.5333 22.9906L38.9049 25.6528L34.4521 21.1498C36.2133 20.6596 37.7391 19.5382 38.746 17.994C39.7529 16.4498 40.1725 14.5877 39.9268 12.7536C39.6812 10.9195 38.787 9.23815 37.4103 8.02178C36.0337 6.8054 34.2682 6.13673 32.4418 6.13997H25.44C25.0115 6.13997 24.6005 6.31248 24.2975 6.61956C23.9945 6.92664 23.8242 7.34313 23.8242 7.77741V28.5183C23.8242 28.9526 23.9945 29.3691 24.2975 29.6762C24.6005 29.9833 25.0115 30.1558 25.44 30.1558C25.8685 30.1558 26.2795 29.9833 26.5825 29.6762C26.8856 29.3691 27.0558 28.9526 27.0558 28.5183V21.4228H30.1527L36.6159 27.9725L33.9876 30.6347C33.8373 30.787 33.718 30.9679 33.6367 31.1669C33.5553 31.3659 33.5135 31.5792 33.5135 31.7946C33.5135 32.01 33.5553 32.2233 33.6367 32.4223C33.718 32.6213 33.8373 32.8021 33.9876 32.9544C34.2911 33.262 34.7028 33.4349 35.1321 33.4349C35.3446 33.4349 35.5551 33.3924 35.7515 33.31C35.9479 33.2276 36.1263 33.1067 36.2766 32.9544L38.9049 30.2922L41.532 32.9558C41.8355 33.2634 42.2472 33.4362 42.6765 33.4362C43.1058 33.4362 43.5174 33.2634 43.821 32.9558C44.1245 32.6482 44.2951 32.231 44.2951 31.7959C44.2951 31.3609 44.1245 30.9437 43.821 30.6361L41.194 27.9725ZM27.0558 9.41485H32.4418C33.5845 9.41485 34.6805 9.87489 35.4885 10.6938C36.2966 11.5126 36.7506 12.6233 36.7506 13.7814C36.7506 14.9394 36.2966 16.0501 35.4885 16.8689C34.6805 17.6878 33.5845 18.1479 32.4418 18.1479H27.0558V9.41485Z" fill="white"/>
<path d="M55.6663 42.335C52.4359 42.335 49.278 43.2929 46.592 45.0876C43.906 46.8824 41.8125 49.4333 40.5763 52.4178C39.3401 55.4023 39.0166 58.6864 39.6469 61.8548C40.2771 65.0231 41.8327 67.9334 44.1169 70.2177C46.4012 72.502 49.3115 74.0576 52.4799 74.6878C55.6482 75.318 58.9323 74.9945 61.9168 73.7583C64.9014 72.5221 67.4523 70.4286 69.247 67.7426C71.0417 65.0566 71.9997 61.8987 71.9997 58.6683C71.9997 54.3364 70.2788 50.182 67.2158 47.1189C64.1527 44.0558 59.9982 42.335 55.6663 42.335Z" fill="#2DA34F"/>
<path d="M62.69 54.7645L55.2257 64.5645C55.0737 64.7613 54.8789 64.921 54.656 65.0313C54.4331 65.1416 54.188 65.1998 53.9394 65.2014C53.6907 65.203 53.4449 65.1479 53.2206 65.0404C52.9964 64.9329 52.7995 64.7757 52.645 64.5808L48.6613 59.5012C48.5294 59.3317 48.4321 59.138 48.3751 58.9309C48.3181 58.7239 48.3024 58.5077 48.3289 58.2946C48.3555 58.0815 48.4237 57.8757 48.5298 57.689C48.6359 57.5023 48.7777 57.3383 48.9471 57.2063C49.2894 56.9399 49.7234 56.8204 50.1538 56.874C50.3668 56.9005 50.5726 56.9688 50.7593 57.0749C50.9461 57.1809 51.1101 57.3227 51.242 57.4922L53.9043 60.8895L60.0791 52.7228C60.3467 52.3863 60.7356 52.1681 61.1623 52.115C61.5889 52.0619 62.0194 52.1781 62.3614 52.4388C62.7033 52.6994 62.9295 53.0837 62.9914 53.5092C63.0533 53.9347 62.946 54.3675 62.6924 54.7147L62.69 54.7645Z" fill="white"/>
</svg>
