<svg width="17" height="16" viewBox="0 0 17 16" fill="none" xmlns="http://www.w3.org/2000/svg">
<g id="pay">
<g id="Group 33996">
<path id="Subtract" fill-rule="evenodd" clip-rule="evenodd" d="M3.33691 11.9249C3.54505 12.4081 4.11135 12.7004 4.65892 12.5604C5.95853 12.2281 7.90365 11.9051 9.36125 12.4237C11.0068 13.0092 13.2736 13.0584 14.5316 13.0319C15.0608 13.0207 15.4687 12.5831 15.4687 12.0538V5.60167C15.4687 5.16074 15.192 4.79841 14.8175 4.62946C14.8707 4.75313 14.9005 4.88932 14.9005 5.03396V11.4861C14.9005 12.0154 14.4926 12.453 13.9634 12.4642C12.7054 12.4907 10.4386 12.4415 8.79305 11.856C7.33545 11.3374 5.39034 11.6603 4.09072 11.9927C3.83016 12.0593 3.56535 12.028 3.33691 11.9249Z" fill="#666666"/>
<g id="Group 33994">
<path id="Subtract_2" fill-rule="evenodd" clip-rule="evenodd" d="M2.77069 2.66833C2.24144 2.67952 1.83337 3.11716 1.83337 3.64653V10.097C1.83337 10.8069 2.55071 11.3131 3.23849 11.1372C4.5381 10.8049 6.48321 10.482 7.94081 11.0006C9.58634 11.5861 11.8532 11.6353 13.1112 11.6087C13.6404 11.5975 14.0483 11.16 14.0483 10.6307V4.17852C14.0483 3.469 13.3318 2.96303 12.6443 3.13873C11.3427 3.47143 9.39366 3.79557 7.94081 3.27642C6.30157 2.69066 4.03068 2.64168 2.77069 2.66833ZM5.35248 8.33535C5.42581 8.41351 5.52971 8.45258 5.66417 8.45258C5.80473 8.45258 5.91016 8.41351 5.98044 8.33535C6.05072 8.25394 6.08586 8.14159 6.08586 7.9983V7.12393H6.33797C6.4113 7.12393 6.47548 7.13858 6.53048 7.16789C6.58854 7.19394 6.6359 7.24279 6.67257 7.31444L7.08969 8.13019C7.14775 8.24091 7.21345 8.32232 7.28679 8.37443C7.36318 8.42653 7.46097 8.45258 7.58014 8.45258C7.69932 8.45258 7.78946 8.4249 7.85058 8.36954C7.91475 8.31093 7.94836 8.23766 7.95142 8.14973C7.95447 8.05855 7.93156 7.96574 7.88266 7.8713L7.65348 7.43167C7.58625 7.2949 7.50222 7.19394 7.40138 7.12881C7.35375 7.09652 7.30272 7.07185 7.24828 7.0548C7.3094 7.03649 7.36654 7.01394 7.41971 6.98716C7.59084 6.89923 7.72071 6.77548 7.80932 6.61591C7.901 6.45309 7.94683 6.26258 7.94683 6.0444C7.94683 5.70572 7.84599 5.44194 7.64431 5.25307C7.44569 5.06093 7.16303 4.96486 6.79633 4.96486H5.66875C5.53429 4.96486 5.42887 5.00394 5.35248 5.0821C5.27914 5.16025 5.24247 5.2726 5.24247 5.41915V7.9983C5.24247 8.14159 5.27914 8.25394 5.35248 8.33535ZM6.64507 6.48891H6.08586V5.65362H6.64507C6.80703 5.65362 6.93079 5.68944 7.01635 5.76108C7.10191 5.82947 7.14469 5.93205 7.14469 6.06882C7.14469 6.21211 7.10191 6.31794 7.01635 6.38633C6.93079 6.45472 6.80703 6.48891 6.64507 6.48891ZM8.2569 9.21949C8.32719 9.29439 8.4265 9.33184 8.55484 9.33184C8.68624 9.33184 8.78708 9.29439 8.85736 9.21949C8.9307 9.14459 8.96737 9.0355 8.96737 8.89221V8.12222C9.01798 8.20573 9.08979 8.27678 9.1828 8.33535C9.31726 8.42002 9.46852 8.46235 9.63659 8.46235C9.83216 8.46235 10.0033 8.41188 10.15 8.31093C10.2997 8.20998 10.4158 8.06506 10.4983 7.87618C10.5808 7.68731 10.6221 7.46423 10.6221 7.20697C10.6221 6.94319 10.5808 6.71849 10.4983 6.53287C10.4158 6.34725 10.2997 6.20397 10.15 6.10301C10.0033 6.00206 9.83216 5.95159 9.63659 5.95159C9.46241 5.95159 9.30656 5.99718 9.16905 6.08836C9.07242 6.15155 8.99946 6.22989 8.95018 6.32336C8.93977 6.21829 8.90578 6.13507 8.8482 6.07371C8.78097 5.99881 8.68166 5.96136 8.55026 5.96136C8.42192 5.96136 8.3226 5.99881 8.25232 6.07371C8.18509 6.1486 8.15148 6.25607 8.15148 6.3961V8.89221C8.15148 9.0355 8.18662 9.14459 8.2569 9.21949ZM9.59534 7.75895C9.53422 7.80128 9.46241 7.82245 9.3799 7.82245C9.25462 7.82245 9.15225 7.7736 9.0728 7.67591C8.99335 7.57821 8.95362 7.4219 8.95362 7.20697C8.95362 7.06043 8.97196 6.94319 9.00863 6.85527C9.04529 6.76408 9.09571 6.69733 9.15989 6.65499C9.22406 6.61266 9.2974 6.59149 9.3799 6.59149C9.50213 6.59149 9.60297 6.64034 9.68242 6.73803C9.76187 6.83247 9.8016 6.98878 9.8016 7.20697C9.8016 7.35026 9.78327 7.46749 9.7466 7.55867C9.70993 7.6466 9.65951 7.71336 9.59534 7.75895Z" fill="#666666"/>
</g>
</g>
</g>
</svg>
