<svg width="24" height="24" viewBox="0 0 24 24" fill="none" xmlns="http://www.w3.org/2000/svg">
<g id="icon">
<circle id="Ellipse 1630" cx="12" cy="12" r="12" fill="#B9DCF9"/>
<g id="Group 33716">
<rect id="Rectangle 6646" x="6.81195" y="7.89914" width="7.24784" height="1.50997" fill="#0771CD"/>
<rect id="Rectangle 6648" x="5.604" y="5" width="9.66378" height="2.89913" rx="0.953465" fill="#0771CD"/>
<path id="Subtract" d="M14.6006 9.40912C15.3026 9.40918 15.8721 9.97853 15.8721 10.6806V12.8945L13.9102 14.8564C12.8255 15.9413 12.8255 17.7001 13.9102 18.7851C14.0175 18.8925 14.1336 18.987 14.2529 19.0732H6.27148C5.5694 19.0732 5.00004 18.5038 5 17.8017V10.6806C5 9.97849 5.56937 9.40912 6.27148 9.40912H14.6006Z" fill="#5FB0F2"/>
<path id="Subtract_2" d="M17.1566 18.1019C16.4489 18.8095 15.3009 18.8095 14.5933 18.1019C13.886 17.3943 13.8865 16.2469 14.594 15.5393L15.5331 14.6002L18.0957 17.1628L17.1566 18.1019ZM19.7184 12.9768C20.426 13.6843 20.4264 14.8317 19.7191 15.5393L18.7793 16.4792L16.2167 13.9166L17.1566 12.9768C17.8641 12.2696 19.0109 12.2696 19.7184 12.9768Z" fill="#0771CD"/>
<path id="Intersect" d="M14.6007 9.40912C15.3027 9.40931 15.8722 9.97862 15.8722 10.6806V12.8945L13.9103 14.8564C12.8256 15.9413 12.8257 17.7001 13.9103 18.7851C14.0176 18.8924 14.1338 18.9871 14.2531 19.0732H6.27161C5.56952 19.0732 5.00017 18.5038 5.00012 17.8017V10.6806C5.00013 9.9785 5.5695 9.40912 6.27161 9.40912H14.6007Z" fill="#5FB0F2"/>
<g id="Group 33714">
<rect id="Rectangle 6651" x="9.89233" y="11.221" width="1.08718" height="5.43588" rx="0.543588" fill="white"/>
<rect id="Rectangle 6652" x="13.1539" y="13.3954" width="1.08718" height="5.43588" rx="0.543588" transform="rotate(90 13.1539 13.3954)" fill="white"/>
</g>
</g>
</g>
</svg>
