<svg width="20" height="20" viewBox="0 0 20 20" fill="none" xmlns="http://www.w3.org/2000/svg">
<path d="M2.8999 4.31788C2.8999 4.04848 3.1183 3.83008 3.38771 3.83008H16.2586C16.528 3.83008 16.7464 4.04848 16.7464 4.31788V17.1076H2.8999V4.31788Z" fill="#EBEBEB"/>
<path d="M8.4321 3.82959H11.1824L11.4353 7.08573H8.1792L8.4321 3.82959Z" fill="#0771CD"/>
<path d="M5.68205 3.82959H8.43239L8.17948 7.08573H4.92334L5.68205 3.82959Z" fill="white"/>
<path d="M2.7656 4.1466C2.83686 3.95596 3.019 3.82959 3.22253 3.82959H5.68185L4.92313 7.08573H1.66699L2.7656 4.1466Z" fill="#0771CD"/>
<path d="M16.8491 4.1466C16.7779 3.95596 16.5957 3.82959 16.3922 3.82959H13.9329L14.6916 7.08573H17.9478L16.8491 4.1466Z" fill="#0771CD"/>
<path d="M13.9327 3.82959H11.1824L11.4353 7.08573H14.6914L13.9327 3.82959Z" fill="white"/>
<rect x="8.1792" y="7.08643" width="3.25614" height="1.26452" fill="#0771CD"/>
<rect x="14.6914" y="7.08643" width="3.25614" height="1.26452" fill="#0771CD"/>
<rect x="4.92334" y="7.08643" width="3.25614" height="1.26452" fill="white"/>
<rect x="11.4355" y="7.08643" width="3.25614" height="1.26452" fill="white"/>
<rect x="1.66699" y="7.08643" width="3.25614" height="1.26452" fill="#0771CD"/>
<circle cx="9.80727" cy="8.36635" r="1.62807" fill="#0771CD"/>
<circle cx="16.3195" cy="8.36635" r="1.62807" fill="#0771CD"/>
<circle cx="6.55141" cy="8.36635" r="1.62807" fill="white"/>
<circle cx="13.0636" cy="8.36635" r="1.62807" fill="white"/>
<circle cx="3.29506" cy="8.36635" r="1.62807" fill="#0771CD"/>
<path d="M1.66699 17.3608C1.66699 17.2211 1.78022 17.1079 1.9199 17.1079H17.6948C17.8345 17.1079 17.9477 17.2211 17.9477 17.3608V18.3724H1.66699V17.3608Z" fill="#666666"/>
<rect x="4.16455" y="10.7539" width="4.55228" height="6.35422" fill="#9BD5F4"/>
<rect x="9.98145" y="10.7539" width="5.50067" height="3.98324" fill="#9BD5F4"/>
<circle cx="9.79682" cy="4.22894" r="2.56098" fill="#D01E53"/>
<rect x="9.45605" y="2.86377" width="0.682756" height="2.73102" rx="0.0252126" fill="white"/>
<rect x="11.1631" y="3.8877" width="0.682756" height="2.73102" rx="0.0252126" transform="rotate(90 11.1631 3.8877)" fill="white"/>
</svg>
