<svg width="20" height="20" viewBox="0 0 20 20" fill="none" xmlns="http://www.w3.org/2000/svg">
<g clip-path="url(#clip0_866_3875)">
<path d="M12.158 2.15835C12.0028 2.0026 11.8184 1.879 11.6153 1.79463C11.4123 1.71027 11.1946 1.66679 10.9747 1.66669H4.99967C4.55805 1.66801 4.1349 1.84402 3.82262 2.1563C3.51035 2.46857 3.33433 2.89173 3.33301 3.33335V16.6667C3.333 17.1073 3.50745 17.5299 3.81821 17.8423C4.12897 18.1546 4.55076 18.3312 4.99134 18.3334H14.9997C15.4413 18.332 15.8645 18.156 16.1767 17.8437C16.489 17.5315 16.665 17.1083 16.6663 16.6667V7.35835C16.667 7.1396 16.6238 6.92292 16.5394 6.72112C16.4549 6.51931 16.3309 6.33646 16.1747 6.18335L12.158 2.15835ZM12.4997 15H7.49967C7.27866 15 7.0667 14.9122 6.91042 14.7559C6.75414 14.5997 6.66634 14.3877 6.66634 14.1667C6.66634 13.9457 6.75414 13.7337 6.91042 13.5774C7.0667 13.4212 7.27866 13.3334 7.49967 13.3334H12.4997C12.7207 13.3334 12.9327 13.4212 13.0889 13.5774C13.2452 13.7337 13.333 13.9457 13.333 14.1667C13.333 14.3877 13.2452 14.5997 13.0889 14.7559C12.9327 14.9122 12.7207 15 12.4997 15ZM12.4997 11.6667H7.49967C7.27866 11.6667 7.0667 11.5789 6.91042 11.4226C6.75414 11.2663 6.66634 11.0544 6.66634 10.8334C6.66634 10.6123 6.75414 10.4004 6.91042 10.2441C7.0667 10.0878 7.27866 10 7.49967 10H12.4997C12.7207 10 12.9327 10.0878 13.0889 10.2441C13.2452 10.4004 13.333 10.6123 13.333 10.8334C13.333 11.0544 13.2452 11.2663 13.0889 11.4226C12.9327 11.5789 12.7207 11.6667 12.4997 11.6667ZM10.833 6.66669V2.91669L15.4163 7.50002H11.6663C11.4453 7.50002 11.2334 7.41222 11.0771 7.25594C10.9208 7.09966 10.833 6.8877 10.833 6.66669Z" fill="#666666"/>
</g>
<defs>
<clipPath id="clip0_866_3875">
<rect width="20" height="20" fill="white"/>
</clipPath>
</defs>
</svg>
