<svg width="78" height="78" viewBox="0 0 78 78" fill="none" xmlns="http://www.w3.org/2000/svg">
<path d="M0.1875 5.71302C0.1875 2.86847 2.49347 0.5625 5.33802 0.5625H56.8432C59.6878 0.5625 61.9938 2.86847 61.9938 5.71302V16.8188H0.1875V5.71302Z" fill="#F05682"/>
<path d="M12.999 0.5625H56.7785C59.623 0.5625 61.929 2.86847 61.929 5.71302V62.5297C61.929 63.2409 61.3525 63.8174 60.6414 63.8174H14.2867C13.5755 63.8174 12.999 63.2409 12.999 62.5297V0.5625Z" fill="#F99FB6"/>
<path fill-rule="evenodd" clip-rule="evenodd" d="M13.0675 16.8188H61.9933V5.71302C61.9933 2.86847 59.6873 0.5625 56.8428 0.5625H7.91699C10.7615 0.5625 13.0675 2.86847 13.0675 5.71302V16.8188Z" fill="#F99FB6"/>
<path d="M37.4369 25.0392L39.6836 22.7635C39.9431 22.5006 40.0889 22.1439 40.0889 21.772C40.0889 21.4002 39.9431 21.0435 39.6836 20.7806C39.4241 20.5176 39.0722 20.3699 38.7053 20.3699C38.3383 20.3699 37.9864 20.5176 37.7269 20.7806L35.4801 23.0563L31.6738 19.2071C33.1793 18.788 34.4835 17.8294 35.3442 16.5094C36.205 15.1894 36.5636 13.5976 36.3537 12.0298C36.1437 10.462 35.3793 9.02474 34.2025 7.98496C33.0258 6.94518 31.5166 6.37359 29.9553 6.37635H23.9701C23.6038 6.37635 23.2524 6.52382 22.9934 6.78632C22.7344 7.04882 22.5889 7.40484 22.5889 7.77607V25.5058C22.5889 25.877 22.7344 26.233 22.9934 26.4955C23.2524 26.758 23.6038 26.9055 23.9701 26.9055C24.3364 26.9055 24.6877 26.758 24.9467 26.4955C25.2058 26.233 25.3513 25.877 25.3513 25.5058V19.4403H27.9986L33.5234 25.0392L31.2767 27.3149C31.1482 27.4451 31.0463 27.5997 30.9767 27.7698C30.9072 27.9399 30.8714 28.1222 30.8714 28.3064C30.8714 28.4905 30.9072 28.6728 30.9767 28.8429C31.0463 29.0131 31.1482 29.1676 31.2767 29.2978C31.5361 29.5608 31.8881 29.7085 32.255 29.7085C32.4367 29.7085 32.6166 29.6722 32.7845 29.6018C32.9524 29.5313 33.1049 29.428 33.2334 29.2978L35.4801 27.0221L37.7258 29.299C37.9852 29.562 38.3372 29.7097 38.7041 29.7097C39.0711 29.7097 39.423 29.562 39.6825 29.299C39.9419 29.036 40.0877 28.6794 40.0877 28.3075C40.0877 27.9357 39.9419 27.579 39.6825 27.3161L37.4369 25.0392ZM25.3513 9.17578H29.9553C30.9322 9.17578 31.869 9.56903 32.5597 10.269C33.2505 10.969 33.6385 11.9184 33.6385 12.9084C33.6385 13.8983 33.2505 14.8477 32.5597 15.5477C31.869 16.2477 30.9322 16.6409 29.9553 16.6409H25.3513V9.17578Z" fill="white"/>
<circle cx="53" cy="52.4375" r="22.5" fill="white" stroke="#B00020" stroke-width="5"/>
<rect x="33.5566" y="68.3457" width="50" height="5" rx="2.5" transform="rotate(-45 33.5566 68.3457)" fill="#B00020"/>
</svg>
