<svg width="24" height="24" viewBox="0 0 24 24" fill="none" xmlns="http://www.w3.org/2000/svg">
<path d="M1.17969 3.58422C1.17969 2.73085 1.87148 2.03906 2.72484 2.03906H18.1764C19.0298 2.03906 19.7216 2.73085 19.7216 3.58422V6.91596H1.17969V3.58422Z" fill="#D7D7D7"/>
<path d="M5.04297 2.03906H18.1768C19.0302 2.03906 19.722 2.73085 19.722 3.58422V20.6292C19.722 20.8426 19.549 21.0155 19.3357 21.0155H5.42926C5.21592 21.0155 5.04297 20.8426 5.04297 20.6292V2.03906Z" fill="#F3F3F3"/>
<path fill-rule="evenodd" clip-rule="evenodd" d="M5.0432 6.91596H19.7223V3.58422C19.7223 2.73085 19.0305 2.03906 18.1771 2.03906H3.49805C4.35141 2.03906 5.0432 2.73085 5.0432 3.58422V6.91596Z" fill="#F3F3F3"/>
<rect x="6.5625" y="12.9211" width="7.75385" height="0.969231" rx="0.484615" fill="#0771CD"/>
<rect x="6.5625" y="15.2754" width="7.75385" height="0.969231" rx="0.484615" fill="#0771CD"/>
<rect x="6.5625" y="17.6291" width="7.75385" height="0.969231" rx="0.484615" fill="#0771CD"/>
<path d="M12.8814 9.98462L13.628 9.22838C13.7142 9.141 13.7627 9.02249 13.7627 8.89891C13.7627 8.77534 13.7142 8.65682 13.628 8.56944C13.5418 8.48206 13.4248 8.43297 13.3029 8.43297C13.1809 8.43297 13.064 8.48206 12.9778 8.56944L12.2311 9.32568L10.9662 8.04655C11.4665 7.9073 11.8999 7.58876 12.186 7.1501C12.472 6.71145 12.5912 6.1825 12.5214 5.6615C12.4516 5.14051 12.1976 4.66289 11.8066 4.31736C11.4155 3.97184 10.914 3.78189 10.3952 3.78281H8.40625C8.28452 3.78281 8.16778 3.83181 8.0817 3.91904C7.99562 4.00627 7.94727 4.12458 7.94727 4.24795V10.1397C7.94727 10.263 7.99562 10.3813 8.0817 10.4686C8.16778 10.5558 8.28452 10.6048 8.40625 10.6048C8.52798 10.6048 8.64473 10.5558 8.7308 10.4686C8.81688 10.3813 8.86524 10.263 8.86524 10.1397V8.12408H9.74496L11.5809 9.98462L10.8343 10.7409C10.7916 10.7841 10.7577 10.8355 10.7346 10.892C10.7115 10.9485 10.6996 11.0091 10.6996 11.0703C10.6996 11.1315 10.7115 11.1921 10.7346 11.2486C10.7577 11.3052 10.7916 11.3565 10.8343 11.3998C10.9205 11.4872 11.0375 11.5363 11.1594 11.5363C11.2198 11.5363 11.2796 11.5242 11.3354 11.5008C11.3911 11.4774 11.4418 11.4431 11.4845 11.3998L12.2311 10.6436L12.9774 11.4002C13.0636 11.4876 13.1805 11.5367 13.3025 11.5367C13.4244 11.5367 13.5414 11.4876 13.6276 11.4002C13.7138 11.3128 13.7623 11.1943 13.7623 11.0707C13.7623 10.9471 13.7138 10.8286 13.6276 10.7412L12.8814 9.98462ZM8.86524 4.71308H10.3952C10.7198 4.71308 11.0311 4.84376 11.2607 5.07637C11.4902 5.30899 11.6192 5.62448 11.6192 5.95344C11.6192 6.28241 11.4902 6.5979 11.2607 6.83051C11.0311 7.06312 10.7198 7.1938 10.3952 7.1938H8.86524V4.71308Z" fill="#0771CD"/>
<rect x="16.7754" y="12.843" width="4.84734" height="1.04094" fill="#BB1A4F"/>
<rect x="15.8672" y="10.8443" width="6.66509" height="1.9986" rx="0.499651" fill="#989898"/>
<rect x="15.5645" y="13.8906" width="7.27101" height="8.17988" rx="0.666201" fill="#D01E53"/>
<rect x="16.5332" y="15.4135" width="5.26154" height="5.26154" rx="0.332308" fill="white"/>
<rect x="18.7266" y="16.1062" width="0.908876" height="3.6355" rx="0.151479" fill="#D01E53"/>
<rect x="20.998" y="17.4697" width="0.908876" height="3.6355" rx="0.151479" transform="rotate(90 20.998 17.4697)" fill="#D01E53"/>
</svg>
