<svg width="14" height="13" viewBox="0 0 14 13" fill="none" xmlns="http://www.w3.org/2000/svg">
<path d="M1 -0.5C1 -0.632608 1.05268 -0.759785 1.14645 -0.853553C1.24021 -0.947322 1.36739 -1 1.5 -1H4.5C4.63261 -1 4.75979 -0.947322 4.85355 -0.853553C4.94732 -0.759785 5 -0.632608 5 -0.5V4H8.354C7.92842 4.37539 7.58758 4.83704 7.35414 5.35428C7.12069 5.87152 6.99997 6.43252 7 7V12C7 12.364 7.097 12.706 7.268 13H1C0.734784 13 0.48043 12.8946 0.292893 12.7071C0.105357 12.5196 0 12.2652 0 12V7C0 6.20435 0.31607 5.44129 0.87868 4.87868C1.44129 4.31607 2.20435 4 3 4V7.5C3 7.63261 3.05268 7.75979 3.14645 7.85355C3.24021 7.94732 3.36739 8 3.5 8C3.63261 8 3.75979 7.94732 3.85355 7.85355C3.94732 7.75979 4 7.63261 4 7.5V2H1.5C1.36739 2 1.24021 1.94732 1.14645 1.85355C1.05268 1.75979 1 1.63261 1 1.5V-0.5ZM11 4C10.2044 4 9.44129 4.31607 8.87868 4.87868C8.31607 5.44129 8 6.20435 8 7V12C8 12.2652 8.10536 12.5196 8.29289 12.7071C8.48043 12.8946 8.73478 13 9 13H13C13.2652 13 13.5196 12.8946 13.7071 12.7071C13.8946 12.5196 14 12.2652 14 12V7C14 6.20435 13.6839 5.44129 13.1213 4.87868C12.5587 4.31607 11.7956 4 11 4ZM10.5 7H11.5C11.6326 7 11.7598 7.05268 11.8536 7.14645C11.9473 7.24021 12 7.36739 12 7.5C12 7.63261 11.9473 7.75979 11.8536 7.85355C11.7598 7.94732 11.6326 8 11.5 8H10.5C10.3674 8 10.2402 7.94732 10.1464 7.85355C10.0527 7.75979 10 7.63261 10 7.5C10 7.36739 10.0527 7.24021 10.1464 7.14645C10.2402 7.05268 10.3674 7 10.5 7Z" fill="currentColor"/>
</svg>
