<svg width="229" height="240" viewBox="0 0 229 240" fill="none" xmlns="http://www.w3.org/2000/svg">
<path fill-rule="evenodd" clip-rule="evenodd" d="M181.537 20L179.47 23.6601L189.8 20.0963L189.691 20H189.797C193.07 20 195.723 22.6531 195.723 25.9259V34.9209L191.844 40.7736L195.723 40.6501V49.6296H33.5005V44.7124L42.3892 38.8888H33.5005V25.9259C33.5005 22.6531 36.1536 20 39.4264 20H41.2735L42.76 25L46.679 20H113.372L114.424 24.3556L118.219 20H181.537Z" fill="#00429C"/>
<rect x="33.5" y="49.6299" width="162.222" height="155.556" fill="#EBEBEB"/>
<path d="M54.4759 37.3265H50.3722V34.4898H54.4759C55.0814 34.4898 55.5672 34.3889 55.9335 34.1871C56.3073 33.9852 56.5801 33.7087 56.752 33.3573C56.9314 32.9986 57.0211 32.5949 57.0211 32.1464C57.0211 31.683 56.9314 31.2532 56.752 30.857C56.5801 30.4533 56.3073 30.1282 55.9335 29.8815C55.5672 29.6348 55.0814 29.5115 54.4759 29.5115H51.6952V43H48.04V26.6748H54.4759C55.7765 26.6748 56.8903 26.9102 57.8172 27.3811C58.7516 27.8521 59.4654 28.4986 59.9588 29.3209C60.4596 30.1357 60.71 31.07 60.71 32.124C60.71 33.178 60.4596 34.0936 59.9588 34.871C59.4654 35.6484 58.7516 36.2539 57.8172 36.6874C56.8903 37.1135 55.7765 37.3265 54.4759 37.3265ZM75.7216 33.2452V36.0707H67.2674V33.2452H75.7216ZM68.4223 26.6748V43H64.7671V26.6748H68.4223ZM78.2444 26.6748V43H74.6003V26.6748H78.2444ZM89.7801 29.7806L85.5643 43H81.6623L87.7058 26.6748H90.1725L89.7801 29.7806ZM93.2784 43L89.0513 29.7806L88.614 26.6748H91.1144L97.1803 43H93.2784ZM93.099 36.9229V39.7484H84.5888V36.9229H93.099ZM100.374 26.6748H106.642C107.89 26.6748 108.97 26.8616 109.882 27.2354C110.802 27.6091 111.508 28.1623 112.001 28.8948C112.495 29.6274 112.741 30.5318 112.741 31.6082C112.741 32.5052 112.596 33.2677 112.304 33.8955C112.012 34.5234 111.601 35.0429 111.071 35.4541C110.547 35.8652 109.934 36.1978 109.232 36.452L108.043 37.1023H102.706L102.684 34.2656H106.653C107.199 34.2656 107.651 34.1684 108.01 33.974C108.368 33.7797 108.638 33.5068 108.817 33.1555C109.004 32.7967 109.097 32.3781 109.097 31.8997C109.097 31.4064 109.004 30.9803 108.817 30.6215C108.63 30.2627 108.353 29.9899 107.987 29.803C107.628 29.6087 107.18 29.5115 106.642 29.5115H104.029V43H100.374V26.6748ZM109.411 43L105.745 35.7456L109.602 35.7344L113.324 42.8318V43H109.411ZM118.805 26.6748H121.833L125.757 38.3469L129.67 26.6748H132.698L126.979 43H124.524L118.805 26.6748ZM117.056 26.6748H120.14L120.711 38.7729V43H117.056V26.6748ZM131.363 26.6748H134.458V43H130.791V38.7729L131.363 26.6748ZM145.994 29.7806L141.778 43H137.876L143.919 26.6748H146.386L145.994 29.7806ZM149.492 43L145.265 29.7806L144.828 26.6748H147.328L153.394 43H149.492ZM149.312 36.9229V39.7484H140.802V36.9229H149.312ZM165.748 37.5284H169.381C169.321 38.6496 169.015 39.64 168.461 40.4996C167.916 41.3518 167.157 42.0208 166.185 42.5067C165.214 42.9851 164.059 43.2242 162.721 43.2242C161.652 43.2242 160.695 43.0411 159.85 42.6748C159.006 42.3086 158.288 41.7853 157.698 41.1051C157.115 40.4174 156.666 39.5914 156.352 38.6272C156.046 37.6554 155.892 36.5604 155.892 35.3419V34.344C155.892 33.1256 156.053 32.0306 156.374 31.0588C156.696 30.0871 157.156 29.2574 157.754 28.5697C158.352 27.882 159.069 27.355 159.906 26.9887C160.744 26.6224 161.678 26.4393 162.709 26.4393C164.1 26.4393 165.273 26.6897 166.23 27.1905C167.187 27.6914 167.927 28.3791 168.45 29.2536C168.981 30.1282 169.299 31.1261 169.403 32.2473H165.759C165.729 31.612 165.61 31.0775 165.4 30.644C165.191 30.2029 164.87 29.8703 164.436 29.6461C164.003 29.4218 163.427 29.3097 162.709 29.3097C162.186 29.3097 161.727 29.4069 161.33 29.6012C160.942 29.7955 160.617 30.0983 160.355 30.5094C160.101 30.9205 159.91 31.4438 159.783 32.0791C159.656 32.707 159.592 33.4545 159.592 34.3216V35.3419C159.592 36.2016 159.649 36.9453 159.761 37.5732C159.873 38.2011 160.052 38.7206 160.299 39.1317C160.553 39.5428 160.878 39.8493 161.274 40.0511C161.67 40.253 162.153 40.3539 162.721 40.3539C163.371 40.3539 163.913 40.253 164.347 40.0511C164.78 39.8418 165.113 39.5279 165.344 39.1093C165.576 38.6907 165.711 38.1637 165.748 37.5284ZM175.86 26.6748L179.055 33.9404L182.273 26.6748H186.22L180.917 37.1023V43H177.205V37.1023L171.891 26.6748H175.86Z" fill="#EBEBEB"/>
<path d="M98.315 49.6299H130.537L133.5 87.778H95.3521L98.315 49.6299Z" fill="#D01E53"/>
<path d="M66.0925 49.6299H98.3147L95.3518 87.778H57.2036L66.0925 49.6299Z" fill="white"/>
<path d="M33.3149 49.6299H66.0927L57.2038 87.778H19.0557L33.3149 49.6299Z" fill="#D01E53"/>
<path d="M195.537 49.6299H162.759L171.648 87.778H209.796L195.537 49.6299Z" fill="#D01E53"/>
<path d="M162.76 49.6299H130.537L133.5 87.778H171.648L162.76 49.6299Z" fill="white"/>
<rect x="95.3521" y="87.7778" width="38.1481" height="14.8148" fill="#D01E53"/>
<rect x="171.648" y="87.7778" width="38.1481" height="14.8148" fill="#D01E53"/>
<rect x="57.2036" y="87.7778" width="38.1481" height="14.8148" fill="white"/>
<rect x="133.5" y="87.7778" width="38.1481" height="14.8148" fill="white"/>
<rect x="19.0557" y="87.7778" width="38.1481" height="14.8148" fill="#D01E53"/>
<circle cx="114.426" cy="102.778" r="19.0741" fill="#D01E53"/>
<circle cx="190.723" cy="102.778" r="19.0741" fill="#D01E53"/>
<circle cx="76.2777" cy="102.778" r="19.0741" fill="white"/>
<circle cx="152.574" cy="102.778" r="19.0741" fill="white"/>
<circle cx="38.1297" cy="102.778" r="19.0741" fill="#D01E53"/>
<rect x="19.0557" y="205.185" width="190.741" height="14.8148" rx="2.96296" fill="#989898"/>
<rect x="48.3149" y="130.741" width="53.3333" height="74.4444" fill="#9BD5F4"/>
<rect x="116.463" y="130.741" width="64.4444" height="46.6667" fill="#9BD5F4"/>
<path d="M195.723 124.074V132.451L177.985 134.462L161.517 136.329L148.349 137.824L136.462 139.166L135.191 135.962L133.83 132.537L133.654 137.691L133.592 139.496L131.877 139.692L118.705 141.182L102.237 143.049L89.0695 144.544L72.597 146.412L59.4247 147.902L42.9618 149.769L33.5005 150.844V142.471L51.2386 140.461L67.7063 138.589L80.869 137.098L92.4222 135.785L97.3463 135.231L110.519 133.736L126.981 131.869L140.154 130.374L156.626 128.506L169.799 127.011L186.261 125.144L195.723 124.074Z" fill="white"/>
<path d="M59.4247 147.902L42.957 149.774L51.2386 140.456L67.7064 138.588L59.4247 147.902Z" fill="#B00020"/>
<path d="M89.0649 144.544L72.5972 146.412L80.8788 137.098L97.3465 135.231L89.0649 144.544Z" fill="#B00020"/>
<path d="M118.705 141.182L102.237 143.049L110.518 133.736L126.986 131.869L118.705 141.182Z" fill="#B00020"/>
<path d="M131.877 139.692L133.654 137.69L133.592 139.496L131.877 139.692Z" fill="white"/>
<path d="M156.627 128.506L148.35 137.824L136.462 139.166L135.192 135.962L140.154 130.374L156.627 128.506Z" fill="#B00020"/>
<path d="M177.984 134.462L161.517 136.329L169.798 127.011L186.266 125.144L177.984 134.462Z" fill="#B00020"/>
<path d="M195.723 199.468L33.5005 163.562V155.185L195.723 191.091V199.468Z" fill="white"/>
<path d="M59.4296 169.298L42.9619 165.654L51.2388 159.111L67.7065 162.755L59.4296 169.298Z" fill="#B00020"/>
<path d="M89.065 175.861L72.6021 172.216L80.8789 165.673L97.3466 169.317L89.065 175.861Z" fill="#B00020"/>
<path d="M118.705 182.418L102.237 178.774L110.518 172.23L126.986 175.875L118.705 182.418Z" fill="#B00020"/>
<path d="M148.345 188.98L131.877 185.336L140.154 178.793L156.622 182.437L148.345 188.98Z" fill="#B00020"/>
<path d="M177.984 195.538L161.517 191.894L169.793 185.351L186.261 188.995L177.984 195.538Z" fill="#B00020"/>
</svg>
