<svg width="24" height="24" viewBox="0 0 24 24" fill="none" xmlns="http://www.w3.org/2000/svg">
<g id="refund">
<g id="Group 33991">
<path id="Vector" d="M5.65327 4.25718C9.58127 1.03818 15.3863 1.26218 19.0533 4.92918C22.9583 8.83418 22.9583 15.1662 19.0533 19.0712C15.1483 22.9762 8.81627 22.9762 4.91127 19.0712C3.71308 17.8743 2.83871 16.3926 2.37027 14.7652C1.96253 13.3486 1.89306 11.8835 2.11314 10.443C2.19686 9.89507 2.74957 9.57002 3.28557 9.71137C3.81513 9.85102 4.12477 10.3934 4.05196 10.9362C3.84745 12.4607 4.08607 14.0196 4.75015 15.4226C5.55633 17.1257 6.93781 18.4896 8.65111 19.2739C10.3644 20.0582 12.2996 20.2125 14.1155 19.7098C15.9315 19.207 17.5117 18.0794 18.5777 16.5256C19.6437 14.9718 20.127 13.0917 19.9425 11.2164C19.758 9.34121 18.9175 7.5913 17.5691 6.27508C16.2208 4.95887 14.4511 4.16084 12.572 4.02165C10.6928 3.88245 8.82486 4.41101 7.29727 5.51418L7.07727 5.68018L7.58388 6.18679C7.80605 6.40896 7.69709 6.78878 7.39093 6.8594L4.12172 7.61339C3.83373 7.67981 3.57564 7.42172 3.64206 7.13373L4.39597 3.8649C4.4666 3.55866 4.84658 3.44975 5.06871 3.67208L5.65327 4.25718Z" fill="#666666"/>
<path id="Subtract" fill-rule="evenodd" clip-rule="evenodd" d="M11.9805 18C15.2942 18 17.9805 15.3137 17.9805 12C17.9805 8.68629 15.2942 6 11.9805 6C8.66676 6 5.98047 8.68629 5.98047 12C5.98047 15.3137 8.66676 18 11.9805 18ZM8.14406 13.9664C8.25312 14.0816 8.40763 14.1392 8.60757 14.1392C8.81661 14.1392 8.97339 14.0816 9.0779 13.9664C9.18242 13.8465 9.23468 13.6809 9.23468 13.4698V12.1814H9.60958C9.71864 12.1814 9.81407 12.203 9.89587 12.2462C9.98221 12.2846 10.0526 12.3565 10.1072 12.4621L10.7275 13.6641C10.8138 13.8273 10.9115 13.9472 11.0206 14.024C11.1342 14.1008 11.2796 14.1392 11.4568 14.1392C11.634 14.1392 11.7681 14.0984 11.859 14.0168C11.9544 13.9305 12.0044 13.8225 12.0089 13.6929C12.0135 13.5586 11.9794 13.4218 11.9067 13.2827L11.5659 12.6349C11.4659 12.4333 11.3409 12.2846 11.191 12.1886C11.1202 12.141 11.0443 12.1047 10.9633 12.0795C11.0542 12.0526 11.1392 12.0193 11.2182 11.9799C11.4727 11.8503 11.6658 11.668 11.7976 11.4328C11.934 11.1929 12.0021 10.9122 12.0021 10.5907C12.0021 10.0917 11.8522 9.70298 11.5522 9.42467C11.2569 9.14156 10.8365 9 10.2912 9H8.61439C8.41444 9 8.25767 9.05758 8.14406 9.17275C8.035 9.28791 7.98047 9.45346 7.98047 9.66939V13.4698C7.98047 13.6809 8.035 13.8465 8.14406 13.9664ZM10.0663 11.2457H9.23468V10.0149H10.0663C10.3071 10.0149 10.4912 10.0677 10.6184 10.1732C10.7456 10.274 10.8093 10.4252 10.8093 10.6267C10.8093 10.8378 10.7456 10.9938 10.6184 11.0945C10.4912 11.1953 10.3071 11.2457 10.0663 11.2457ZM12.4632 15.2692C12.5677 15.3796 12.7154 15.4348 12.9063 15.4348C13.1017 15.4348 13.2517 15.3796 13.3562 15.2692C13.4652 15.1589 13.5198 14.9981 13.5198 14.787V13.6524C13.595 13.7754 13.7018 13.8801 13.8401 13.9664C14.0401 14.0912 14.265 14.1536 14.515 14.1536C14.8058 14.1536 15.0603 14.0792 15.2784 13.9305C15.5011 13.7817 15.6737 13.5682 15.7964 13.2899C15.9191 13.0115 15.9805 12.6828 15.9805 12.3038C15.9805 11.9151 15.9191 11.584 15.7964 11.3105C15.6737 11.037 15.5011 10.8258 15.2784 10.6771C15.0603 10.5283 14.8058 10.4539 14.515 10.4539C14.2559 10.4539 14.0242 10.5211 13.8197 10.6555C13.676 10.7486 13.5675 10.864 13.4942 11.0018C13.4787 10.8469 13.4282 10.7243 13.3425 10.6339C13.2426 10.5235 13.0949 10.4683 12.8995 10.4683C12.7086 10.4683 12.5609 10.5235 12.4564 10.6339C12.3564 10.7443 12.3064 10.9026 12.3064 11.1089V14.787C12.3064 14.9981 12.3587 15.1589 12.4632 15.2692ZM14.4536 13.1171C14.3627 13.1795 14.2559 13.2107 14.1332 13.2107C13.9469 13.2107 13.7947 13.1387 13.6765 12.9947C13.5584 12.8508 13.4993 12.6205 13.4993 12.3038C13.4993 12.0878 13.5266 11.9151 13.5811 11.7855C13.6356 11.6512 13.7106 11.5528 13.806 11.4904C13.9015 11.428 14.0105 11.3968 14.1332 11.3968C14.315 11.3968 14.465 11.4688 14.5831 11.6128C14.7013 11.7519 14.7603 11.9823 14.7603 12.3038C14.7603 12.5149 14.7331 12.6876 14.6785 12.822C14.624 12.9516 14.549 13.0499 14.4536 13.1171Z" fill="#666666"/>
</g>
</g>
</svg>
