<svg width="24" height="25" viewBox="0 0 24 25" fill="none" xmlns="http://www.w3.org/2000/svg">
<circle cx="12" cy="12.5" r="12" fill="#FCE3EA"/>
<path d="M6.29675 5.53147C9.83196 2.63436 15.0565 2.83596 18.3568 6.13627C21.8713 9.65078 21.8713 15.3496 18.3568 18.8641C14.8423 22.3786 9.14346 22.3786 5.62894 18.8641C4.55057 17.787 3.76363 16.4534 3.34203 14.9887C2.97506 13.7137 2.91254 12.3952 3.11061 11.0988C3.18596 10.6056 3.68341 10.313 4.16581 10.4403C4.64242 10.5659 4.92109 11.0541 4.85556 11.5426C4.6715 12.9147 4.88625 14.3177 5.48393 15.5804C6.2095 17.1132 7.45283 18.3407 8.99481 19.0465C10.5368 19.7524 12.2784 19.8913 13.9128 19.4388C15.5472 18.9863 16.9694 17.9715 17.9288 16.5731C18.8882 15.1747 19.3232 13.4825 19.1571 11.7948C18.9911 10.1071 18.2346 8.53218 17.0211 7.34759C15.8075 6.16299 14.2148 5.44477 12.5236 5.31949C10.8324 5.19421 9.15119 5.66991 7.77635 6.66277L7.57835 6.81217L8.01012 7.24395C8.2206 7.45442 8.11737 7.81426 7.82733 7.88116L4.94788 8.54526C4.67504 8.60818 4.43054 8.36368 4.49346 8.09084L5.15748 5.21175C5.22439 4.92163 5.58438 4.81845 5.79481 5.02908L6.29675 5.53147Z" fill="#D01E53"/>
<path fill-rule="evenodd" clip-rule="evenodd" d="M11.9918 17.9006C14.9742 17.9006 17.3918 15.4829 17.3918 12.5005C17.3918 9.5182 14.9742 7.10052 11.9918 7.10052C9.00947 7.10052 6.5918 9.5182 6.5918 12.5005C6.5918 15.4829 9.00947 17.9006 11.9918 17.9006ZM8.53904 14.27C8.63719 14.3737 8.77625 14.4255 8.9562 14.4255C9.14433 14.4255 9.28543 14.3737 9.3795 14.27C9.47356 14.1621 9.5206 14.0131 9.5206 13.823V12.6635H9.85801C9.95616 12.6635 10.0421 12.6829 10.1157 12.7218C10.1934 12.7563 10.2568 12.8211 10.3058 12.9161L10.8641 13.9979C10.9418 14.1448 11.0297 14.2527 11.1279 14.3218C11.2301 14.3909 11.361 14.4255 11.5205 14.4255C11.68 14.4255 11.8007 14.3888 11.8825 14.3154C11.9684 14.2376 12.0134 14.1405 12.0174 14.0239C12.0215 13.9029 11.9909 13.7799 11.9254 13.6546L11.6187 13.0716C11.5287 12.8902 11.4162 12.7563 11.2813 12.67C11.2175 12.6271 11.1492 12.5944 11.0764 12.5718C11.1582 12.5475 11.2346 12.5176 11.3058 12.4821C11.5348 12.3655 11.7087 12.2014 11.8273 11.9898C11.95 11.7738 12.0113 11.5212 12.0113 11.2318C12.0113 10.7827 11.8763 10.4329 11.6064 10.1824C11.3406 9.92761 10.9623 9.80021 10.4715 9.80021H8.96234C8.78238 9.80021 8.64128 9.85203 8.53904 9.95568C8.44088 10.0593 8.3918 10.2083 8.3918 10.4027V13.823C8.3918 14.0131 8.44088 14.1621 8.53904 14.27ZM10.269 11.8213H9.5206V10.7136H10.269C10.4858 10.7136 10.6514 10.7611 10.766 10.8561C10.8805 10.9468 10.9377 11.0828 10.9377 11.2642C10.9377 11.4543 10.8805 11.5946 10.766 11.6853C10.6514 11.776 10.4858 11.8213 10.269 11.8213ZM12.4263 15.4425C12.5204 15.5419 12.6533 15.5915 12.8251 15.5915C13.0009 15.5915 13.1359 15.5419 13.23 15.4425C13.3281 15.3432 13.3772 15.1985 13.3772 15.0085V13.9874C13.4449 14.0981 13.541 14.1923 13.6655 14.27C13.8455 14.3823 14.0479 14.4384 14.2729 14.4384C14.5346 14.4384 14.7636 14.3715 14.96 14.2376C15.1604 14.1038 15.3158 13.9116 15.4262 13.6611C15.5366 13.4106 15.5918 13.1148 15.5918 12.7736C15.5918 12.4238 15.5366 12.1258 15.4262 11.8796C15.3158 11.6335 15.1604 11.4435 14.96 11.3096C14.7636 11.1757 14.5346 11.1088 14.2729 11.1088C14.0397 11.1088 13.8312 11.1692 13.6471 11.2901C13.5178 11.374 13.4201 11.4778 13.3542 11.6018C13.3402 11.4625 13.2947 11.3521 13.2177 11.2707C13.1277 11.1714 12.9948 11.1217 12.8189 11.1217C12.6471 11.1217 12.5142 11.1714 12.4202 11.2707C12.3302 11.37 12.2852 11.5126 12.2852 11.6983V15.0085C12.2852 15.1985 12.3322 15.3432 12.4263 15.4425ZM14.2176 13.5056C14.1358 13.5618 14.0397 13.5898 13.9293 13.5898C13.7616 13.5898 13.6246 13.5251 13.5183 13.3955C13.4119 13.2659 13.3588 13.0586 13.3588 12.7736C13.3588 12.5793 13.3833 12.4238 13.4324 12.3072C13.4815 12.1863 13.549 12.0977 13.6348 12.0416C13.7207 11.9854 13.8189 11.9574 13.9293 11.9574C14.0929 11.9574 14.2279 12.0222 14.3342 12.1517C14.4405 12.277 14.4937 12.4843 14.4937 12.7736C14.4937 12.9636 14.4692 13.1191 14.4201 13.24C14.371 13.3566 14.3035 13.4452 14.2176 13.5056Z" fill="#D01E53"/>
</svg>
