<svg width="24" height="24" viewBox="0 0 24 24" fill="none" xmlns="http://www.w3.org/2000/svg">
<path d="M2 3.63185C2 2.7306 2.7306 2 3.63185 2H19.9503C20.8516 2 21.5822 2.7306 21.5822 3.63185V7.15052H2V3.63185Z" fill="#0771CD"/>
<path d="M6.08008 2H19.9508C20.852 2 21.5826 2.7306 21.5826 3.63185V21.6332C21.5826 21.8585 21.4 22.0411 21.1747 22.0411H6.48804C6.26273 22.0411 6.08008 21.8585 6.08008 21.6332V2Z" fill="#5FB0F2"/>
<path fill-rule="evenodd" clip-rule="evenodd" d="M6.08009 7.15052H21.5813V3.63185C21.5813 2.7306 20.8507 2 19.9495 2H4.44824C5.34949 2 6.08009 2.7306 6.08009 3.63185V7.15052Z" fill="#5FB0F2"/>
<path d="M7.68457 14.0049C7.68457 13.7315 7.90621 13.5099 8.17962 13.5099H18.6747C18.9481 13.5099 19.1697 13.7315 19.1697 14.0049C19.1697 14.2783 18.9481 14.5 18.6747 14.5H8.17962C7.90621 14.5 7.68457 14.2783 7.68457 14.0049Z" fill="#00429C"/>
<path d="M7.68457 16.505C7.68457 16.2179 7.91729 15.9852 8.20437 15.9852H16.9667C17.2538 15.9852 17.4866 16.2179 17.4866 16.505C17.4866 16.792 17.2538 17.0248 16.9667 17.0248H8.20437C7.91729 17.0248 7.68457 16.792 7.68457 16.505Z" fill="#00429C"/>
<path d="M7.68457 18.9802C7.68457 18.6931 7.91729 18.4604 8.20437 18.4604H15.1846C15.4716 18.4604 15.7044 18.6931 15.7044 18.9802C15.7044 19.2673 15.4716 19.5 15.1846 19.5H8.20437C7.91729 19.5 7.68457 19.2673 7.68457 18.9802Z" fill="#00429C"/>
<path d="M14.3584 10.3917L15.1469 9.59309C15.238 9.5008 15.2891 9.37564 15.2891 9.24513C15.2891 9.11462 15.238 8.98946 15.1469 8.89717C15.0558 8.80489 14.9323 8.75305 14.8035 8.75305C14.6748 8.75305 14.5512 8.80489 14.4602 8.89717L13.6717 9.69584L12.3358 8.34495C12.8642 8.19788 13.3219 7.86147 13.624 7.3982C13.9261 6.93493 14.0519 6.37631 13.9782 5.82608C13.9045 5.27586 13.6363 4.77144 13.2233 4.40653C12.8103 4.04161 12.2807 3.84101 11.7327 3.84198H9.6322C9.50364 3.84198 9.38034 3.89374 9.28944 3.98586C9.19853 4.07799 9.14746 4.20293 9.14746 4.33322V10.5555C9.14746 10.6858 9.19853 10.8107 9.28944 10.9028C9.38034 10.995 9.50364 11.0467 9.6322 11.0467C9.76076 11.0467 9.88405 10.995 9.97496 10.9028C10.0659 10.8107 10.1169 10.6858 10.1169 10.5555V8.42682H11.046L12.985 10.3917L12.1965 11.1904C12.1514 11.2361 12.1156 11.2904 12.0912 11.3501C12.0668 11.4098 12.0542 11.4737 12.0542 11.5384C12.0542 11.603 12.0668 11.667 12.0912 11.7267C12.1156 11.7864 12.1514 11.8406 12.1965 11.8863C12.2875 11.9786 12.411 12.0305 12.5398 12.0305C12.6036 12.0305 12.6667 12.0177 12.7256 11.993C12.7846 11.9683 12.8381 11.932 12.8832 11.8863L13.6717 11.0877L14.4598 11.8867C14.5508 11.979 14.6744 12.0309 14.8031 12.0309C14.9319 12.0309 15.0554 11.979 15.1465 11.8867C15.2376 11.7944 15.2887 11.6693 15.2887 11.5388C15.2887 11.4083 15.2376 11.2831 15.1465 11.1908L14.3584 10.3917ZM10.1169 4.82445H11.7327C12.0756 4.82445 12.4043 4.96246 12.6468 5.20812C12.8892 5.45379 13.0254 5.78698 13.0254 6.1344C13.0254 6.48182 12.8892 6.81501 12.6468 7.06068C12.4043 7.30634 12.0756 7.44435 11.7327 7.44435H10.1169V4.82445Z" fill="white"/>
</svg>
