<svg width="24" height="24" viewBox="0 0 24 24" fill="none" xmlns="http://www.w3.org/2000/svg">
<path d="M8.88135 17.85L2.02935 12.93C1.86833 12.8343 1.73495 12.6984 1.64232 12.5357C1.54969 12.3729 1.50098 12.1888 1.50098 12.0015C1.50098 11.8142 1.54969 11.6301 1.64232 11.4673C1.73495 11.3046 1.86833 11.1687 2.02935 11.073L8.88135 6.15C9.04469 6.05393 9.23054 6.00278 9.42003 6.00176C9.60953 6.00073 9.79592 6.04986 9.96029 6.14415C10.1247 6.23845 10.2612 6.37455 10.3559 6.53865C10.4507 6.70275 10.5003 6.889 10.4999 7.0785V9C12.7499 9 19.4999 9 20.9999 21C17.2499 14.25 10.4999 15 10.4999 15V16.9215C10.4999 17.7615 9.59085 18.2685 8.88135 17.8515V17.85Z" fill="#666666"/>
</svg>
