<svg width="16" height="16" viewBox="0 0 16 16" fill="none" xmlns="http://www.w3.org/2000/svg">
<path d="M5.33337 0.666626C4.96518 0.666626 4.66671 0.965103 4.66671 1.33329V1.99996H2.00004C1.82323 1.99996 1.65366 2.0702 1.52864 2.19522C1.40361 2.32025 1.33337 2.48981 1.33337 2.66663V13.3333C1.33337 13.5101 1.40361 13.6797 1.52864 13.8047C1.65366 13.9297 1.82323 14 2.00004 14H7.17004C6.3495 12.9751 5.93579 11.6836 6.00814 10.3727C6.08048 9.06185 6.63379 7.82372 7.56213 6.89538C8.49047 5.96704 9.7286 5.41373 11.0395 5.34139C12.3504 5.26904 13.6419 5.68275 14.6667 6.50329V2.66663C14.6667 2.48981 14.5965 2.32025 14.4714 2.19522C14.3464 2.0702 14.1769 1.99996 14 1.99996H11.3334V1.33329C11.3334 0.965103 11.0349 0.666626 10.6667 0.666626C10.2985 0.666626 10 0.965103 10 1.33329V1.99996H6.00004V1.33329C6.00004 0.965103 5.70156 0.666626 5.33337 0.666626ZM15.3334 10.6666C15.3334 11.1919 15.2299 11.7121 15.0289 12.1974C14.8279 12.6827 14.5332 13.1236 14.1618 13.4951C13.7904 13.8665 13.3494 14.1611 12.8641 14.3621C12.3788 14.5632 11.8587 14.6666 11.3334 14.6666C10.8081 14.6666 10.2879 14.5632 9.80264 14.3621C9.31734 14.1611 8.87638 13.8665 8.50495 13.4951C8.13351 13.1236 7.83888 12.6827 7.63786 12.1974C7.43684 11.7121 7.33337 11.1919 7.33337 10.6666C7.33337 9.60576 7.7548 8.58834 8.50495 7.8382C9.25509 7.08805 10.2725 6.66663 11.3334 6.66663C12.3942 6.66663 13.4117 7.08805 14.1618 7.8382C14.9119 8.58834 15.3334 9.60576 15.3334 10.6666ZM11.3334 7.99996C10.9652 7.99996 10.6667 8.29844 10.6667 8.66663V10.9426L11.724 12C11.9844 12.2603 12.4064 12.2603 12.6667 12C12.927 11.7396 12.927 11.3176 12.6667 11.0573L12 10.3906V8.66663C12 8.29844 11.7016 7.99996 11.3334 7.99996Z" fill="currentColor"/>
</svg>
