<svg width="24" height="24" viewBox="0 0 24 24" fill="none" xmlns="http://www.w3.org/2000/svg">
<g id="cancel payment">
<g id="Group 33994">
<path id="Subtract" fill-rule="evenodd" clip-rule="evenodd" d="M2 5.50376C2 4.67326 2.67326 4 3.50376 4H18.6353C19.4658 4 20.1391 4.67326 20.1391 5.50376V6.34933H2V5.50376ZM2 7.7591H20.1391V15.6541C20.1391 16.4846 19.4658 17.1579 18.6353 17.1579H3.50376C2.67326 17.1579 2 16.4846 2 15.6541V7.7591ZM7.16383 13.9866C7.27274 14.1026 7.42702 14.1607 7.62669 14.1607C7.83543 14.1607 7.99198 14.1026 8.09635 13.9866C8.20072 13.8657 8.25291 13.6988 8.25291 13.4861V12.1876H8.62728C8.73619 12.1876 8.83148 12.2094 8.91316 12.2529C8.99938 12.2916 9.06972 12.3641 9.12417 12.4705L9.74359 13.6819C9.82981 13.8463 9.92737 13.9672 10.0363 14.0446C10.1497 14.122 10.2949 14.1607 10.4719 14.1607C10.6489 14.1607 10.7828 14.1196 10.8735 14.0373C10.9688 13.9503 11.0187 13.8415 11.0233 13.7109C11.0278 13.5755 10.9938 13.4377 10.9212 13.2975L10.5808 12.6446C10.481 12.4415 10.3562 12.2916 10.2064 12.1949C10.1357 12.1469 10.0599 12.1103 9.97909 12.085C10.0699 12.0578 10.1547 12.0243 10.2337 11.9845C10.4878 11.8539 10.6807 11.6702 10.8122 11.4332C10.9484 11.1914 11.0165 10.9085 11.0165 10.5845C11.0165 10.0816 10.8667 9.68986 10.5672 9.40938C10.2722 9.12406 9.8525 8.9814 9.30795 8.9814H7.63349C7.43383 8.9814 7.27727 9.03943 7.16383 9.15549C7.05492 9.27155 7.00046 9.43839 7.00046 9.65601V13.4861C7.00046 13.6988 7.05492 13.8657 7.16383 13.9866ZM9.08333 11.2446H8.25291V10.0042H9.08333C9.32384 10.0042 9.50762 10.0574 9.63468 10.1638C9.76174 10.2653 9.82527 10.4177 9.82527 10.6208C9.82527 10.8336 9.76174 10.9907 9.63468 11.0923C9.50762 11.1938 9.32384 11.2446 9.08333 11.2446ZM11.4769 15.2995C11.5813 15.4107 11.7288 15.4664 11.9193 15.4664C12.1145 15.4664 12.2642 15.4107 12.3686 15.2995C12.4775 15.1883 12.5319 15.0263 12.5319 14.8135V13.6701C12.6071 13.7941 12.7137 13.8996 12.8519 13.9866C13.0515 14.1123 13.2762 14.1752 13.5257 14.1752C13.8162 14.1752 14.0703 14.1002 14.2881 13.9503C14.5104 13.8004 14.6829 13.5852 14.8054 13.3047C14.9279 13.0242 14.9892 12.693 14.9892 12.3109C14.9892 11.9192 14.9279 11.5855 14.8054 11.3099C14.6829 11.0342 14.5104 10.8215 14.2881 10.6716C14.0703 10.5216 13.8162 10.4467 13.5257 10.4467C13.2671 10.4467 13.0356 10.5144 12.8314 10.6498C12.6879 10.7436 12.5796 10.86 12.5064 10.9988C12.491 10.8427 12.4405 10.7192 12.355 10.628C12.2551 10.5168 12.1077 10.4612 11.9125 10.4612C11.7219 10.4612 11.5745 10.5168 11.4701 10.628C11.3703 10.7393 11.3203 10.8988 11.3203 11.1068V14.8135C11.3203 15.0263 11.3725 15.1883 11.4769 15.2995ZM13.4645 13.1306C13.3737 13.1935 13.2671 13.2249 13.1446 13.2249C12.9585 13.2249 12.8065 13.1524 12.6885 13.0073C12.5705 12.8622 12.5115 12.6301 12.5115 12.3109C12.5115 12.0933 12.5388 11.9192 12.5932 11.7886C12.6477 11.6532 12.7225 11.5541 12.8178 11.4912C12.9131 11.4284 13.022 11.3969 13.1446 11.3969C13.3261 11.3969 13.4758 11.4695 13.5938 11.6146C13.7118 11.7548 13.7708 11.9869 13.7708 12.3109C13.7708 12.5237 13.7436 12.6978 13.6891 12.8332C13.6346 12.9638 13.5598 13.0629 13.4645 13.1306Z" fill="#666666"/>
</g>
</g>
</svg>
