<svg xmlns="http://www.w3.org/2000/svg" width="152.997" height="103" viewBox="0 0 152.997 103">
  <g id="Not_Found_Icon" data-name="Not Found Icon" transform="translate(-4.667 -8.334)">
    <g id="Group_11004" data-name="Group 11004" transform="translate(-0.334 -0.666)">
      <g id="ic-pasien-off-100" transform="translate(5.001 9)">
        <g id="poll-24px">
          <path id="Path_6118" data-name="Path 6118" d="M25,0H75a25,25,0,0,1,25,25V75a25,25,0,0,1-25,25H25A25,25,0,0,1,0,75V25A25,25,0,0,1,25,0Z" fill="#f3f3f3"/>
          <path id="Path_6117" data-name="Path 6117" d="M2.2,72.524A83.375,83.375,0,0,1,76.267,2.1V47.523a25,25,0,0,1-25,25Z" transform="translate(23.733 27.478)" fill="#d7d7d7"/>
        </g>
        <g id="Group_30113" data-name="Group 30113" transform="translate(27.083 18.75)">
          <g id="Group_30112" data-name="Group 30112" transform="translate(12.5 7.235)">
            <g id="Group_30109" data-name="Group 30109">
              <g id="Group_11536" data-name="Group 11536">
                <path id="Path_6105" data-name="Path 6105" d="M11.124,0A11.123,11.123,0,0,1,22.247,11.123h0A11.124,11.124,0,0,1,0,11.124H0A11.123,11.123,0,0,1,11.124,0Z" transform="translate(8.899 22.247) rotate(-90)" fill="#d7d7d7"/>
                <path id="Subtraction_14" data-name="Subtraction 14" d="M18424.938,12296.738a22.09,22.09,0,0,1-14.156-4.881,16.829,16.829,0,0,1-4.291-5.3,14.184,14.184,0,0,1-1.574-6.485,8.2,8.2,0,0,1,2.922-6.846c1.693-1.364,4.188-2.255,7.629-2.723l-.844,3.9a39.32,39.32,0,0,0-2.5,4.068c-1.783,3.358-2.281,5.732-1.523,7.259a2.819,2.819,0,0,0,2.139,1.527,5.239,5.239,0,0,0,.99.093c.105,0,.211,0,.322-.01h.006a1.052,1.052,0,0,0,.973-1.1.993.993,0,0,0-.98-1h-.051c-.082,0-.168.007-.256.007-.506,0-1.152-.089-1.361-.512-.148-.3-.475-1.577,1.479-5.259.494-.929,1.078-1.912,1.74-2.925.254.14.576.321.861.485a6.665,6.665,0,0,1,2.139,2.764c1.6,3.117,1.615,4.369,1.342,4.87-.178.331-.635.537-1.361.611a1,1,0,0,0-.676.369.984.984,0,0,0-.213.732,1,1,0,0,0,1,.894c.029,0,.061,0,.1,0a3.476,3.476,0,0,0,2.91-1.648c.967-1.788-.125-4.41-1.318-6.739-1.424-2.759-2.857-3.713-3.811-4.027l.871-4.014a1.089,1.089,0,0,0-.025-.565c2.551-.221,5.361-.249,7.525-.249,2.436,0,5.281.034,7.926.285,0,.021,0,.041,0,.062l.328,5.064a4.5,4.5,0,1,0,1.986-.3l-.3-4.584c3.285.5,5.672,1.4,7.3,2.769a8.239,8.239,0,0,1,2.781,6.731,14.184,14.184,0,0,1-1.574,6.485,16.814,16.814,0,0,1-4.293,5.3A22.084,22.084,0,0,1,18424.938,12296.738Z" transform="translate(-18405.414 -12239.128)" fill="#d7d7d7"/>
              </g>
            </g>
          </g>
          <g id="Group_30111" data-name="Group 30111">
            <g id="Group_30109-2" data-name="Group 30109">
              <g id="Group_11536-2" data-name="Group 11536">
                <path id="Path_6105-2" data-name="Path 6105" d="M11.124,0A11.123,11.123,0,0,1,22.247,11.123h0A11.124,11.124,0,0,1,0,11.124H0A11.123,11.123,0,0,1,11.124,0Z" transform="translate(8.899 22.247) rotate(-90)" fill="#252525"/>
                <path id="Subtraction_13" data-name="Subtraction 13" d="M18424.938,12296.738a22.09,22.09,0,0,1-14.156-4.881,16.829,16.829,0,0,1-4.291-5.3,14.184,14.184,0,0,1-1.574-6.485,8.2,8.2,0,0,1,2.918-6.844c1.693-1.364,4.188-2.255,7.625-2.724l-.773,3.563a42.489,42.489,0,0,0-2.525,4.188c-1.8,3.447-2.311,5.883-1.561,7.448a2.8,2.8,0,0,0,2.135,1.556,4.939,4.939,0,0,0,.967.088c.107,0,.217,0,.318-.008h.033a1.09,1.09,0,0,0,.982-1.13,1,1,0,0,0-.973-1.016l-.055,0c-.086,0-.172.007-.264.007-.732,0-1.187-.175-1.352-.521-.148-.306-.475-1.6,1.5-5.4.58-1.114,1.193-2.123,1.605-2.773.055.03.549.3.955.537a6.665,6.665,0,0,1,2.139,2.764c1.6,3.117,1.615,4.369,1.342,4.87-.178.331-.635.537-1.361.611a1,1,0,0,0-.676.369.984.984,0,0,0-.213.732,1,1,0,0,0,1,.894c.029,0,.061,0,.1,0a3.476,3.476,0,0,0,2.91-1.648c.967-1.788-.125-4.41-1.318-6.739-1.393-2.7-2.814-3.832-3.76-4.306l.908-4.175a.854.854,0,0,0,.021-.138c2.52-.211,5.273-.237,7.391-.237,2.436,0,5.281.034,7.926.285,0,.021,0,.041,0,.062l.328,5.064a4.5,4.5,0,1,0,1.986-.3l-.3-4.584c3.285.5,5.672,1.4,7.3,2.769a8.239,8.239,0,0,1,2.781,6.731,14.184,14.184,0,0,1-1.574,6.485,16.814,16.814,0,0,1-4.293,5.3A22.084,22.084,0,0,1,18424.938,12296.738Z" transform="translate(-18404.916 -12238.895)" fill="#252525"/>
              </g>
            </g>
          </g>
        </g>
      </g>
      <g id="Group_30599" data-name="Group 30599">
        <path id="Path_5940" data-name="Path 5940" d="M74.1,62.822A33.346,33.346,0,0,0,78.109,39C75.27,25.14,63.744,14.072,49.881,12.3A33.582,33.582,0,0,0,12.3,50.318,34.013,34.013,0,0,0,38.689,78.875,32.323,32.323,0,0,0,62.241,74.82L77.775,90.535a8.25,8.25,0,0,0,11.776,0h0a8.483,8.483,0,0,0,0-11.913Zm-28.646-.169a16.9,16.9,0,1,1,16.7-16.9A16.851,16.851,0,0,1,45.454,62.653Z" transform="translate(64.004 18.995)" fill="#d7d7d7"/>
        <path id="Path_5106" data-name="Path 5106" d="M74.1,62.822A33.346,33.346,0,0,0,78.109,39C75.27,25.14,63.744,14.072,49.881,12.3A33.582,33.582,0,0,0,12.3,50.318,34.013,34.013,0,0,0,38.689,78.875,32.323,32.323,0,0,0,62.241,74.82L77.775,90.535a8.25,8.25,0,0,0,11.776,0h0a8.483,8.483,0,0,0,0-11.913Zm-28.646-.169a16.9,16.9,0,1,1,16.7-16.9A16.851,16.851,0,0,1,45.454,62.653Z" transform="translate(66.004 10.995)" fill="#666"/>
      </g>
    </g>
  </g>
</svg>
