<svg xmlns="http://www.w3.org/2000/svg" width="157.997" height="103" viewBox="0 0 157.997 103">
  <g id="Not_Found_Icon" data-name="Not Found Icon" transform="translate(0.332 -8.334)">
    <g id="Group_11004" data-name="Group 11004" transform="translate(-0.334 -0.666)">
      <g id="Group_11010" data-name="Group 11010" transform="translate(-15.998 -133)">
        <rect id="Rectangle_5472" data-name="Rectangle 5472" width="110" height="95" rx="8" transform="translate(16 142)" fill="#ebebeb"/>
        <g id="Group_11010-2" data-name="Group 11010" transform="translate(4 4)">
          <rect id="Rectangle_5821" data-name="Rectangle 5821" width="86" height="45" rx="4" transform="translate(24 150)" fill="#f9f9f9"/>
          <rect id="Rectangle_5822" data-name="Rectangle 5822" width="58" height="4" rx="2" transform="translate(24 201)" fill="#f9f9f9"/>
          <g id="Group_30113" data-name="Group 30113" transform="translate(23.083 154.569)">
            <g id="Group_30112" data-name="Group 30112" transform="translate(5.971 3.599)">
              <g id="Group_30109" data-name="Group 30109" transform="translate(0 0)">
                <g id="Group_11536" data-name="Group 11536">
                  <path id="Path_6105" data-name="Path 6105" d="M5.534,0a5.534,5.534,0,0,1,5.534,5.534h0A5.534,5.534,0,0,1,0,5.534H0A5.534,5.534,0,0,1,5.534,0Z" transform="translate(4.675 11.068) rotate(-90)" fill="#d7d7d7"/>
                  <path id="Subtraction_14" data-name="Subtraction 14" d="M9.961,13.282a10.993,10.993,0,0,1-7.043-2.429A8.383,8.383,0,0,1,.783,8.217,7.06,7.06,0,0,1,0,4.991,4.082,4.082,0,0,1,1.454,1.585,7.617,7.617,0,0,1,5.249.23l-.42,1.941A19.639,19.639,0,0,0,3.584,4.2C2.7,5.867,2.449,7.048,2.826,7.808a1.4,1.4,0,0,0,1.063.76,2.639,2.639,0,0,0,.493.046c.052,0,.1,0,.16,0h0a.523.523,0,0,0,.483-.545.494.494,0,0,0-.487-.5H4.517c-.041,0-.084,0-.127,0-.252,0-.573-.044-.678-.254-.074-.151-.236-.785.735-2.617.246-.462.537-.951.866-1.455.126.069.286.16.429.242A3.311,3.311,0,0,1,6.806,4.862c.8,1.551.8,2.173.668,2.423-.089.165-.315.267-.678.3a.5.5,0,0,0-.336.184.487.487,0,0,0-.105.364.5.5,0,0,0,.4.436.478.478,0,0,0,.1.009l.051,0a1.729,1.729,0,0,0,1.447-.82c.481-.89-.062-2.194-.655-3.353a3.648,3.648,0,0,0-1.9-2l.434-2A.539.539,0,0,0,6.217.124C7.486.014,8.885,0,9.961,0c1.212,0,2.628.017,3.943.142,0,.01,0,.021,0,.03l.163,2.52a2.239,2.239,0,1,0,.988-.147L14.91.265a7.217,7.217,0,0,1,3.63,1.377,4.1,4.1,0,0,1,1.384,3.349,7.047,7.047,0,0,1-.783,3.227A8.348,8.348,0,0,1,17,10.853,10.986,10.986,0,0,1,9.961,13.282Z" transform="translate(0 15.381)" fill="#d7d7d7"/>
                </g>
              </g>
            </g>
          </g>
          <rect id="Rectangle_5823" data-name="Rectangle 5823" width="86" height="4" rx="2" transform="translate(24 209)" fill="#f9f9f9"/>
          <rect id="Rectangle_5824" data-name="Rectangle 5824" width="27" height="4" rx="2" transform="translate(24 217)" fill="#f9f9f9"/>
        </g>
        <path id="Path_5107" data-name="Path 5107" d="M40.59,76.652a6.646,6.646,0,0,1-6.73-6.615,6.569,6.569,0,0,1,6.73-6.563,6.492,6.492,0,0,1,6.677,6.563A6.633,6.633,0,0,1,40.59,76.652ZM56.668,37.8c-4.059,5.827-7.905,7.665-9.988,11.393A7.163,7.163,0,0,0,45.665,52.5,4.772,4.772,0,0,1,40.857,56.6h-.32a4.639,4.639,0,0,1-4.7-5.04,13.08,13.08,0,0,1,1.6-5.408c2.617-4.567,7.585-7.3,10.469-11.34,3.045-4.252,1.335-12.233-7.318-12.233a9.159,9.159,0,0,0-7.852,4.147,4.908,4.908,0,0,1-5.875,1.89h0a4.545,4.545,0,0,1-2.137-6.877,18.816,18.816,0,0,1,15.757-8.085c7.905,0,13.3,3.518,16.077,7.98C58.911,25.412,60.3,32.5,56.668,37.8Z" transform="translate(30.107 144.348)" fill="#d7d7d7"/>
      </g>
      <path id="Path_5940" data-name="Path 5940" d="M74.1,62.822A33.346,33.346,0,0,0,78.109,39C75.27,25.14,63.744,14.072,49.881,12.3A33.582,33.582,0,0,0,12.3,50.318,34.013,34.013,0,0,0,38.689,78.875,32.323,32.323,0,0,0,62.241,74.82L77.775,90.535a8.25,8.25,0,0,0,11.776,0h0a8.483,8.483,0,0,0,0-11.913Zm-28.646-.169a16.9,16.9,0,1,1,16.7-16.9A16.851,16.851,0,0,1,45.454,62.653Z" transform="translate(64.005 18.995)" fill="#d7d7d7"/>
      <path id="Path_5106" data-name="Path 5106" d="M74.1,62.822A33.346,33.346,0,0,0,78.109,39C75.27,25.14,63.744,14.072,49.881,12.3A33.582,33.582,0,0,0,12.3,50.318,34.013,34.013,0,0,0,38.689,78.875,32.323,32.323,0,0,0,62.241,74.82L77.775,90.535a8.25,8.25,0,0,0,11.776,0h0a8.483,8.483,0,0,0,0-11.913Zm-28.646-.169a16.9,16.9,0,1,1,16.7-16.9A16.851,16.851,0,0,1,45.454,62.653Z" transform="translate(66.005 10.995)" fill="#666"/>
    </g>
  </g>
</svg>
