<svg width="25" height="24" viewBox="0 0 25 24" fill="none" xmlns="http://www.w3.org/2000/svg">
<path d="M3.65001 20.4L21.1 12.92C21.2804 12.8432 21.4342 12.715 21.5423 12.5514C21.6504 12.3879 21.7081 12.1961 21.7081 12C21.7081 11.804 21.6504 11.6122 21.5423 11.4486C21.4342 11.2851 21.2804 11.1569 21.1 11.08L3.65001 3.60003C3.49891 3.53412 3.33378 3.50687 3.16952 3.52073C3.00525 3.53459 2.84702 3.58912 2.70911 3.67942C2.57119 3.76971 2.45792 3.89292 2.37951 4.03793C2.30111 4.18293 2.26004 4.34518 2.26001 4.51003L2.25001 9.12003C2.24909 9.36282 2.33707 9.59756 2.49734 9.77994C2.65762 9.96233 2.8791 10.0797 3.12001 10.11L17.25 12L3.12001 13.88C2.87896 13.9142 2.6583 14.0341 2.49851 14.2178C2.33871 14.4014 2.25049 14.6366 2.25001 14.88L2.26001 19.49C2.26004 19.6549 2.30111 19.8171 2.37951 19.9621C2.45792 20.1071 2.57119 20.2303 2.70911 20.3206C2.84702 20.4109 3.00525 20.4655 3.16952 20.4793C3.33378 20.4932 3.49891 20.4659 3.65001 20.4Z" fill="white"/>
</svg>
