<svg width="97" height="96" viewBox="0 0 97 96" fill="none" xmlns="http://www.w3.org/2000/svg">
<circle cx="48.5" cy="48" r="48" fill="#B9DCF9"/>
<path d="M32.2716 84C30.4645 84 28.918 83.3596 27.6322 82.0789C26.3464 80.7982 25.7024 79.2567 25.7002 77.4545V18.5455C25.7002 16.7455 26.3442 15.2051 27.6322 13.9244C28.9202 12.6436 30.4667 12.0022 32.2716 12H65.1288C66.9359 12 68.4835 12.6415 69.7715 13.9244C71.0595 15.2073 71.7024 16.7476 71.7002 18.5455V77.4545C71.7002 79.2545 71.0573 80.796 69.7715 82.0789C68.4857 83.3618 66.9381 84.0022 65.1288 84H32.2716Z" fill="#00429C"/>
<path d="M25.7002 71.5H71.7002V24.5H25.7002V71.5Z" fill="#EBEBEB"/>
<path d="M35.7002 58.0091C35.7002 59.9371 37.2631 61.5 39.1911 61.5H58.2093C60.1373 61.5 61.7002 59.9371 61.7002 58.0091V37.9909C61.7002 36.0629 60.1373 34.5 58.2093 34.5H39.1911C37.2631 34.5 35.7002 36.0629 35.7002 37.9909V58.0091Z" fill="#BB1A4F"/>
<path d="M57.494 68.9455C56.3191 68.9455 55.3667 67.9931 55.3667 66.8182C55.3667 65.6434 56.3191 64.691 57.494 64.691H64.3667V58.0213C64.3667 56.8247 65.3367 55.8546 66.5334 55.8546C67.73 55.8546 68.7 56.8247 68.7 58.0213V66.7637C68.7 67.9687 67.7232 68.9455 66.5182 68.9455H57.494Z" fill="#989898"/>
<path d="M39.9064 27.0546C41.0813 27.0546 42.0337 28.007 42.0337 29.1819C42.0337 30.3567 41.0813 31.3091 39.9064 31.3091L33.0337 31.3091L33.0337 37.9788C33.0337 39.1755 32.0636 40.1455 30.867 40.1455C29.6704 40.1455 28.7004 39.1755 28.7004 37.9788L28.7004 29.2364C28.7004 28.0314 29.6772 27.0546 30.8822 27.0546L39.9064 27.0546Z" fill="#989898"/>
</svg>
