<svg width="23" height="18" viewBox="0 0 23 18" fill="none" xmlns="http://www.w3.org/2000/svg">
<path fill-rule="evenodd" clip-rule="evenodd" d="M21.1309 12.4142C21.6898 12.2645 22.0214 11.69 21.8717 11.1311L19.1602 1.01192C19.0105 0.453052 18.436 0.121395 17.8772 0.271143L1.0118 4.79021C0.452934 4.93995 0.121277 5.5144 0.271025 6.07327L0.903704 8.43446C0.903738 8.43445 0.903769 8.43445 0.903802 8.43444C2.2499 8.07375 3.66484 8.9895 4.06417 10.4798C4.4635 11.9701 3.696 13.4707 2.3499 13.8314C2.34987 13.8314 2.34984 13.8314 2.3498 13.8314L2.98246 16.1925C3.13221 16.7514 3.70666 17.083 4.26553 16.9333L21.1309 12.4142Z" fill="#0771CD"/>
<path fill-rule="evenodd" clip-rule="evenodd" d="M2.30568 2.09521C1.72709 2.09521 1.25806 2.56425 1.25806 3.14283V13.619C1.25806 14.1976 1.72709 14.6666 2.30568 14.6666H19.766C20.3446 14.6666 20.8136 14.1976 20.8136 13.619V11.1746C20.8136 11.1746 20.8136 11.1746 20.8135 11.1746C19.42 11.1746 18.2902 9.92384 18.2902 8.38095C18.2902 6.83806 19.42 5.5873 20.8135 5.5873C20.8136 5.5873 20.8136 5.5873 20.8136 5.5873V3.14283C20.8136 2.56425 20.3446 2.09521 19.766 2.09521H2.30568Z" fill="#B9DCF9"/>
<circle cx="7.85715" cy="8.38095" r="4.88889" fill="white"/>
<circle cx="7.85722" cy="8.38109" r="4.19048" fill="#D01E53"/>
<path fill-rule="evenodd" clip-rule="evenodd" d="M6.64675 7.76744C7.20053 7.76744 7.64946 7.31851 7.64946 6.76473C7.64946 6.21095 7.20053 5.76202 6.64675 5.76202C6.09297 5.76202 5.64404 6.21095 5.64404 6.76473C5.64404 7.31851 6.09297 7.76744 6.64675 7.76744ZM6.64679 7.3663C6.97906 7.3663 7.24841 7.09694 7.24841 6.76467C7.24841 6.43241 6.97906 6.16305 6.64679 6.16305C6.31452 6.16305 6.04517 6.43241 6.04517 6.76467C6.04517 7.09694 6.31452 7.3663 6.64679 7.3663Z" fill="white"/>
<path fill-rule="evenodd" clip-rule="evenodd" d="M8.9529 10.7755C9.50668 10.7755 9.95561 10.3266 9.95561 9.77279C9.95561 9.21901 9.50668 8.77008 8.9529 8.77008C8.39912 8.77008 7.9502 9.21901 7.9502 9.77279C7.9502 10.3266 8.39912 10.7755 8.9529 10.7755ZM8.95303 10.3745C9.2853 10.3745 9.55466 10.1051 9.55466 9.77283C9.55466 9.44056 9.2853 9.1712 8.95303 9.1712C8.62077 9.1712 8.35141 9.44056 8.35141 9.77283C8.35141 10.1051 8.62077 10.3745 8.95303 10.3745Z" fill="white"/>
<rect x="9.05322" y="5.76196" width="0.401082" height="5.61515" rx="0.200541" transform="rotate(30 9.05322 5.76196)" fill="white"/>
<rect x="15.2263" y="2.56915" width="0.698413" height="2.09524" rx="0.349206" fill="#D01E53"/>
<rect x="15.2263" y="5.7121" width="0.698413" height="2.09524" rx="0.349206" fill="#D01E53"/>
<rect x="15.2263" y="8.85492" width="0.698413" height="2.09524" rx="0.349206" fill="#D01E53"/>
<rect x="15.2263" y="11.9978" width="0.698413" height="2.09524" rx="0.349206" fill="#D01E53"/>
</svg>
