<svg width="49" height="48" viewBox="0 0 49 48" fill="none" xmlns="http://www.w3.org/2000/svg">
<g id="warning">
<path id="error-24px" d="M24.5 4C20.5444 4 16.6776 5.17298 13.3886 7.37061C10.0996 9.56823 7.53617 12.6918 6.02242 16.3463C4.50867 20.0009 4.1126 24.0222 4.8843 27.9018C5.65601 31.7814 7.56082 35.3451 10.3579 38.1421C13.1549 40.9392 16.7186 42.844 20.5982 43.6157C24.4778 44.3874 28.4991 43.9913 32.1537 42.4776C35.8082 40.9638 38.9318 38.4004 41.1294 35.1114C43.327 31.8224 44.5 27.9556 44.5 24C44.5 18.6957 42.3929 13.6086 38.6421 9.85786C34.8914 6.10714 29.8043 4 24.5 4ZM24.5 26C23.9696 26 23.4609 25.7893 23.0858 25.4142C22.7107 25.0391 22.5 24.5304 22.5 24V16C22.5 15.4696 22.7107 14.9609 23.0858 14.5858C23.4609 14.2107 23.9696 14 24.5 14C25.0304 14 25.5391 14.2107 25.9142 14.5858C26.2893 14.9609 26.5 15.4696 26.5 16V24C26.5 24.5304 26.2893 25.0391 25.9142 25.4142C25.5391 25.7893 25.0304 26 24.5 26ZM26.5 34C25.9459 34.4836 25.2354 34.75 24.5 34.75C23.7646 34.75 23.0541 34.4836 22.5 34C22.0164 33.4459 21.75 32.7354 21.75 32C21.75 31.2646 22.0164 30.5541 22.5 30C23.0541 29.5164 23.7646 29.25 24.5 29.25C25.2354 29.25 25.9459 29.5164 26.5 30C26.9836 30.5541 27.25 31.2646 27.25 32C27.25 32.7354 26.9836 33.4459 26.5 34Z" fill="#FFB300"/>
</g>
</svg>
