<svg width="20" height="20" viewBox="0 0 20 20" fill="none" xmlns="http://www.w3.org/2000/svg">
<path d="M9.835 3C8.48317 3 7.16169 3.40087 6.03768 4.15191C4.91367 4.90294 4.03761 5.97043 3.52029 7.21936C3.00296 8.46829 2.86761 9.84258 3.13134 11.1684C3.39507 12.4943 4.04604 13.7122 5.00193 14.6681C5.95782 15.624 7.1757 16.2749 8.50156 16.5387C9.82742 16.8024 11.2017 16.667 12.4506 16.1497C13.6996 15.6324 14.7671 14.7563 15.5181 13.6323C16.2691 12.5083 16.67 11.1868 16.67 9.835C16.67 8.02224 15.9499 6.28374 14.6681 5.00192C13.3863 3.72011 11.6478 3 9.835 3Z" fill="currentColor"/>
<path d="M9.83648 9.40969C9.65521 9.40969 9.48136 9.4817 9.35318 9.60988C9.22499 9.73806 9.15298 9.91191 9.15298 10.0932V12.8272C9.15298 13.0085 9.22499 13.1823 9.35318 13.3105C9.48136 13.4387 9.65521 13.5107 9.83648 13.5107C10.0178 13.5107 10.1916 13.4387 10.3198 13.3105C10.448 13.1823 10.52 13.0085 10.52 12.8272V10.0932C10.52 10.0034 10.5023 9.91455 10.468 9.83162C10.4336 9.7487 10.3833 9.67335 10.3198 9.60988C10.2563 9.54641 10.181 9.49607 10.098 9.46172C10.0151 9.42737 9.92624 9.40969 9.83648 9.40969ZM10.52 6.67569C10.3307 6.51032 10.0878 6.41919 9.83648 6.41919C9.58512 6.41919 9.34228 6.51032 9.15298 6.67569C8.98761 6.86499 8.89648 7.10783 8.89648 7.35919C8.89648 7.61055 8.98761 7.85339 9.15298 8.04269C9.34228 8.20806 9.58512 8.29919 9.83648 8.29919C10.0878 8.29919 10.3307 8.20806 10.52 8.04269C10.6851 7.85345 10.7761 7.61081 10.7761 7.35968C10.7761 7.10854 10.6851 6.86493 10.52 6.67569Z" fill="white"/>
</svg>
