<svg width="49" height="49" viewBox="0 0 49 49" fill="none" xmlns="http://www.w3.org/2000/svg">
<circle cx="24.5" cy="24.5" r="22.8" stroke="#D30D31" stroke-width="2.4"/>
<mask id="path-2-inside-1_32_17548" fill="white">
<path fill-rule="evenodd" clip-rule="evenodd" d="M15.5429 11.9432C13.8192 12.211 12.5 13.7017 12.5 15.5004C12.5 17.4886 14.1118 19.1004 16.1 19.1004C17.8987 19.1004 19.3894 17.7812 19.6571 16.0575L15.5429 11.9432Z"/>
</mask>
<path fill-rule="evenodd" clip-rule="evenodd" d="M15.5429 11.9432C13.8192 12.211 12.5 13.7017 12.5 15.5004C12.5 17.4886 14.1118 19.1004 16.1 19.1004C17.8987 19.1004 19.3894 17.7812 19.6571 16.0575L15.5429 11.9432Z" fill="#D30D31"/>
<path d="M15.5429 11.9432L15.9671 11.519L15.7517 11.3036L15.4507 11.3504L15.5429 11.9432ZM19.6571 16.0575L20.25 16.1496L20.2968 15.8487L20.0814 15.6333L19.6571 16.0575ZM13.1 15.5004C13.1 14.002 14.1991 12.7592 15.635 12.5361L15.4507 11.3504C13.4393 11.6629 11.9 13.4013 11.9 15.5004H13.1ZM16.1 18.5004C14.4431 18.5004 13.1 17.1572 13.1 15.5004H11.9C11.9 17.82 13.7804 19.7004 16.1 19.7004V18.5004ZM19.0643 15.9654C18.8412 17.4013 17.5984 18.5004 16.1 18.5004V19.7004C18.1991 19.7004 19.9375 18.1611 20.25 16.1496L19.0643 15.9654ZM20.0814 15.6333L15.9671 11.519L15.1186 12.3675L19.2329 16.4818L20.0814 15.6333Z" fill="#D30D31" mask="url(#path-2-inside-1_32_17548)"/>
<mask id="path-4-inside-2_32_17548" fill="white">
<path fill-rule="evenodd" clip-rule="evenodd" d="M33.4571 11.9432C35.1808 12.211 36.5 13.7017 36.5 15.5004C36.5 17.4886 34.8882 19.1004 32.9 19.1004C31.1013 19.1004 29.6106 17.7812 29.3429 16.0575L33.4571 11.9432Z"/>
</mask>
<path fill-rule="evenodd" clip-rule="evenodd" d="M33.4571 11.9432C35.1808 12.211 36.5 13.7017 36.5 15.5004C36.5 17.4886 34.8882 19.1004 32.9 19.1004C31.1013 19.1004 29.6106 17.7812 29.3429 16.0575L33.4571 11.9432Z" fill="#D30D31"/>
<path d="M33.4571 11.9432L33.0329 11.519L33.2483 11.3036L33.5493 11.3504L33.4571 11.9432ZM29.3429 16.0575L28.75 16.1496L28.7032 15.8487L28.9186 15.6333L29.3429 16.0575ZM35.9 15.5004C35.9 14.002 34.8009 12.7592 33.365 12.5361L33.5493 11.3504C35.5607 11.6629 37.1 13.4013 37.1 15.5004H35.9ZM32.9 18.5004C34.5569 18.5004 35.9 17.1572 35.9 15.5004H37.1C37.1 17.82 35.2196 19.7004 32.9 19.7004V18.5004ZM29.9357 15.9654C30.1588 17.4013 31.4016 18.5004 32.9 18.5004V19.7004C30.8009 19.7004 29.0625 18.1611 28.75 16.1496L29.9357 15.9654ZM28.9186 15.6333L33.0329 11.519L33.8814 12.3675L29.7671 16.4818L28.9186 15.6333Z" fill="#D30D31" mask="url(#path-4-inside-2_32_17548)"/>
<path d="M12.5 36.8C12.5 36.8 17.3 30.8 24.5 30.8C31.7 30.8 36.5 36.8 36.5 36.8" stroke="#D30D31" stroke-width="2.4"/>
</svg>
