<svg width="12" height="12" viewBox="0 0 12 12" fill="none" xmlns="http://www.w3.org/2000/svg">
<path d="M11.4801 9.35115L7.15125 1.37782C7.03664 1.16725 6.86738 0.991471 6.66128 0.868998C6.45518 0.746524 6.21988 0.681885 5.98014 0.681885C5.7404 0.681885 5.50509 0.746524 5.29899 0.868998C5.0929 0.991471 4.92364 1.16725 4.80903 1.37782L0.475694 9.35115C0.362274 9.55474 0.304194 9.78449 0.307243 10.0175C0.310292 10.2505 0.374364 10.4787 0.493073 10.6792C0.611781 10.8798 0.780979 11.0457 0.983802 11.1605C1.18662 11.2753 1.41599 11.3349 1.64903 11.3334H10.3068C10.5379 11.3336 10.7652 11.2737 10.9662 11.1596C11.1672 11.0455 11.3351 10.8812 11.4534 10.6826C11.5717 10.4841 11.6364 10.2582 11.6411 10.0271C11.6458 9.796 11.5903 9.56767 11.4801 9.36449V9.35115ZM5.31569 3.66226C5.31569 3.48545 5.38593 3.31588 5.51096 3.19086C5.63598 3.06584 5.80555 2.9956 5.98236 2.9956C6.15917 2.9956 6.32874 3.06584 6.45376 3.19086C6.57879 3.31588 6.64903 3.48545 6.64903 3.66226V6.72449C6.64903 6.9013 6.57879 7.07087 6.45376 7.19589C6.32874 7.32092 6.15917 7.39115 5.98236 7.39115C5.80555 7.39115 5.63598 7.32092 5.51096 7.19589C5.38593 7.07087 5.31569 6.9013 5.31569 6.72449V3.66226ZM6.00014 9.66671C5.84895 9.66671 5.70115 9.62187 5.57544 9.53788C5.44972 9.45388 5.35174 9.33449 5.29388 9.1948C5.23602 9.05512 5.22089 8.90142 5.25038 8.75313C5.27988 8.60484 5.35269 8.46863 5.45959 8.36172C5.5665 8.25481 5.70271 8.182 5.851 8.15251C5.99929 8.12301 6.15299 8.13815 6.29268 8.19601C6.43236 8.25387 6.55175 8.35185 6.63575 8.47756C6.71975 8.60327 6.76458 8.75107 6.76458 8.90226C6.76458 9.10501 6.68404 9.29945 6.54068 9.44281C6.39732 9.58617 6.20288 9.66671 6.00014 9.66671Z" fill="#D01E53"/>
</svg>
