<?xml version="1.0" standalone="no"?>
<!DOCTYPE svg PUBLIC "-//W3C//DTD SVG 20010904//EN"
 "http://www.w3.org/TR/2001/REC-SVG-20010904/DTD/svg10.dtd">
<svg version="1.0" xmlns="http://www.w3.org/2000/svg"
 width="500.000000pt" height="500.000000pt" viewBox="0 0 500.000000 500.000000"
 preserveAspectRatio="xMidYMid meet">
<metadata>
Created by potrace 1.14, written by Peter Selinger 2001-2017
</metadata>
<g transform="translate(0.000000,500.000000) scale(0.100000,-0.100000)"
fill="#000000" stroke="none">
<path d="M2146 4843 c-4 -4 -14 -8 -24 -9 -115 -17 -295 -70 -312 -92 -3 -4
-27 -18 -54 -32 -27 -13 -54 -29 -60 -35 -6 -5 -29 -23 -51 -39 -39 -29 -70
-59 -130 -127 -39 -44 -135 -194 -135 -211 0 -8 -6 -22 -14 -33 -40 -58 -55
-200 -26 -255 49 -92 157 -132 256 -94 56 21 90 64 127 160 39 101 68 146 138
214 50 49 137 103 179 112 8 2 17 6 20 10 15 19 194 29 288 17 70 -10 77 -12
124 -33 21 -9 41 -16 44 -15 4 0 10 -3 13 -8 3 -4 24 -21 46 -37 39 -29 130
-118 130 -128 0 -12 40 -78 48 -78 4 0 6 -4 3 -9 -3 -5 1 -21 8 -37 26 -51 29
-113 30 -501 l1 -383 -50 0 c-92 -1 -139 -7 -229 -30 -91 -23 -208 -68 -214
-82 -2 -4 -9 -8 -16 -8 -15 0 -129 -78 -134 -91 -2 -5 -8 -9 -13 -9 -12 0
-159 -152 -159 -165 0 -8 -43 -68 -53 -76 -5 -3 -9 -10 -10 -15 0 -5 -15 -40
-33 -79 -19 -38 -35 -79 -37 -90 -1 -11 -5 -24 -8 -30 -4 -5 -9 -26 -13 -45
-3 -19 -9 -46 -12 -60 -3 -14 -7 -64 -9 -112 -2 -48 -5 -90 -8 -95 -6 -10
-698 -9 -782 1 -32 4 -68 12 -80 18 -11 6 -22 11 -25 10 -8 -3 -112 50 -133
67 -61 51 -135 137 -143 169 -3 12 -10 22 -15 22 -5 0 -9 9 -9 20 0 11 -5 20
-11 20 -5 0 -7 5 -4 10 3 6 2 10 -2 10 -5 0 -9 8 -10 18 -1 9 -5 33 -9 52 -8
36 -10 220 -3 255 3 11 8 26 12 33 5 6 5 12 1 12 -3 0 -1 7 6 15 7 8 10 15 6
15 -3 0 9 28 26 63 38 72 150 189 205 212 21 9 40 19 43 23 3 4 39 16 80 27
69 18 115 19 555 20 526 2 520 1 584 62 64 62 78 188 27 250 -31 38 -55 57
-92 74 -39 18 -73 19 -520 18 -438 -1 -509 -4 -613 -24 -156 -31 -329 -125
-454 -248 -51 -50 -137 -159 -137 -173 0 -3 -8 -18 -18 -32 -20 -30 -71 -142
-77 -170 -2 -9 -8 -28 -13 -42 -10 -28 -25 -109 -27 -155 0 -17 -4 -35 -7 -41
-4 -5 -3 -16 2 -23 4 -8 4 -27 0 -42 -5 -16 -6 -29 -2 -29 4 0 7 -19 8 -43 1
-55 11 -134 23 -175 5 -18 10 -33 10 -35 0 -3 12 -40 21 -62 29 -76 107 -217
122 -223 4 -2 8 -8 8 -14 0 -9 153 -164 195 -197 76 -61 262 -142 360 -157 22
-3 44 -9 50 -12 7 -5 369 -13 480 -12 6 0 48 1 95 3 47 1 91 -1 98 -6 7 -5 12
-6 12 -1 0 13 139 9 152 -4 8 -8 11 -57 10 -149 -2 -76 -2 -145 -2 -153 1 -56
-2 -115 -6 -121 -2 -4 -1 -10 4 -13 4 -2 5 -34 2 -71 -3 -36 -4 -68 -2 -70 2
-2 6 -59 7 -127 2 -68 6 -134 10 -148 3 -14 8 -36 11 -50 17 -87 114 -310 136
-310 4 0 8 -4 8 -10 0 -27 193 -221 244 -245 20 -10 36 -22 36 -27 0 -5 4 -6
10 -3 5 3 10 2 10 -3 0 -9 106 -59 195 -91 89 -32 368 -48 455 -26 14 3 36 8
50 11 54 11 102 26 148 46 26 12 50 21 55 20 4 -1 7 3 7 8 0 5 4 9 8 7 5 -1
43 19 84 45 83 53 200 161 243 226 15 23 32 42 38 42 6 0 7 3 4 6 -4 4 4 21
16 38 12 17 22 33 23 36 0 3 13 32 29 65 15 33 33 70 38 83 11 24 14 121 5
164 -4 14 -19 41 -35 58 -81 91 -214 96 -298 12 -24 -23 -53 -78 -59 -107 -8
-46 -91 -181 -140 -227 -42 -40 -140 -98 -197 -117 -97 -32 -282 -32 -365 -1
-16 6 -29 11 -29 11 0 0 -10 2 -22 5 -13 4 -23 10 -23 15 0 5 -7 9 -15 9 -15
0 -115 77 -149 114 -28 32 -86 125 -86 139 0 7 -4 17 -9 22 -25 28 -34 124
-38 395 -4 308 -4 360 2 370 2 3 0 12 -5 20 -5 8 -5 22 1 32 5 10 6 18 1 18
-12 0 -3 48 11 57 5 3 42 7 81 8 69 2 154 13 167 20 3 2 20 7 38 10 84 15 238
91 331 164 47 36 164 151 155 151 -3 0 4 10 15 23 107 116 197 374 196 558
l-1 67 395 -3 c217 -1 409 -5 425 -9 49 -10 118 -38 147 -57 14 -11 31 -19 37
-19 14 0 141 -127 141 -141 0 -6 4 -7 10 -4 6 3 7 -1 4 -9 -3 -9 -1 -16 5 -16
6 0 11 -7 11 -15 0 -8 4 -15 8 -15 5 0 9 -6 9 -12 1 -7 10 -37 22 -67 11 -30
18 -58 15 -62 -3 -5 -2 -9 3 -9 13 0 6 -194 -8 -253 -7 -28 -14 -54 -14 -57
-3 -19 -61 -122 -82 -146 -14 -16 -35 -40 -47 -54 -11 -14 -38 -36 -58 -49
-21 -12 -38 -27 -38 -32 0 -4 -7 -6 -15 -3 -8 4 -15 2 -15 -4 0 -10 -57 -36
-72 -33 -5 0 -8 -3 -8 -7 0 -4 -8 -8 -17 -9 -10 0 -38 -4 -63 -7 -42 -5 -333
-10 -355 -6 -5 1 -12 2 -15 1 -3 -1 -140 -3 -305 -5 -307 -2 -346 -6 -372 -31
-8 -9 -23 -20 -34 -26 -11 -5 -17 -14 -14 -20 4 -5 2 -9 -4 -9 -20 0 -44 -88
-37 -136 11 -86 63 -145 151 -171 23 -7 920 -11 920 -4 0 1 32 3 70 5 39 2 90
9 115 16 25 7 52 14 60 15 31 7 104 36 117 46 7 6 13 8 13 3 0 -5 4 -4 8 1 4
6 29 21 56 35 27 13 54 29 60 35 6 5 29 23 51 40 48 35 132 119 160 159 11 15
26 34 33 42 16 16 105 189 116 225 11 33 13 39 15 42 3 3 11 49 14 77 1 14 6
28 10 31 14 10 15 257 1 340 -21 133 -78 279 -147 373 -81 114 -191 224 -244
249 -13 6 -23 14 -23 18 0 4 -12 12 -27 18 -16 7 -44 20 -63 31 -19 10 -55 27
-80 36 -25 9 -54 20 -65 24 -39 15 -141 33 -220 37 -82 5 -103 5 -181 3 -25
-1 -48 1 -51 4 -3 3 -13 1 -22 -4 -10 -5 -23 -5 -31 0 -8 5 -21 5 -30 0 -9 -5
-22 -5 -29 -1 -7 5 -30 5 -51 1 -21 -4 -44 -4 -51 1 -7 4 -20 4 -28 0 -9 -5
-25 -5 -36 -1 -11 4 -32 4 -47 -1 -15 -4 -30 -4 -33 1 -3 5 -11 7 -18 4 -8 -3
-41 -6 -75 -7 -76 -3 -78 2 -75 138 2 55 3 109 3 120 0 47 1 121 0 135 0 8 0
49 0 90 1 133 -8 346 -16 385 -3 17 -8 47 -11 68 -3 20 -9 37 -14 37 -5 0 -9
9 -9 21 0 20 -75 188 -89 199 -3 3 -13 17 -21 31 -53 94 -195 229 -302 288
-74 40 -123 65 -133 65 -5 1 -20 7 -32 14 -13 7 -23 10 -23 6 0 -3 -6 -2 -12
4 -7 5 -31 12 -53 15 -22 3 -47 8 -55 11 -20 8 -119 18 -150 16 -73 -5 -96 -5
-111 2 -9 4 -19 4 -23 1z m649 -2108 c-14 -130 -18 -155 -28 -155 -6 0 -8 -3
-4 -6 15 -15 -58 -144 -121 -211 -40 -42 -165 -123 -191 -123 -12 0 -21 -5
-21 -10 0 -6 -6 -10 -12 -9 -7 1 -33 -1 -58 -5 -86 -13 -149 -14 -153 -2 -6
15 0 133 8 166 3 14 7 30 8 35 2 6 6 16 10 23 5 6 6 16 3 21 -3 5 2 19 12 32
10 13 26 41 37 62 11 20 23 37 27 37 3 0 9 9 13 19 3 11 15 23 25 26 10 3 22
15 25 26 4 11 9 18 12 15 3 -3 11 0 19 7 32 29 44 37 52 37 5 0 15 7 22 15 7
9 15 13 18 10 3 -3 10 -1 16 4 26 20 110 41 184 45 29 2 55 6 58 9 4 3 15 0
25 -6 16 -10 18 -20 14 -62z"/>
<path d="M4238 4844 c-2 -1 -21 -5 -43 -8 -55 -8 -155 -39 -155 -48 0 -5 -7
-8 -15 -8 -9 0 -30 -10 -48 -22 -49 -34 -177 -166 -177 -183 0 -8 -4 -15 -10
-15 -5 0 -10 -6 -10 -14 0 -8 -9 -30 -19 -48 -19 -31 -23 -47 -37 -128 -10
-56 -11 -132 -2 -170 4 -19 11 -51 14 -70 8 -46 62 -160 76 -160 6 0 9 -3 5
-6 -6 -6 12 -30 54 -73 37 -37 88 -81 94 -81 3 0 23 -11 45 -25 22 -14 40 -22
40 -18 0 5 4 3 8 -3 11 -17 130 -46 192 -46 72 -1 152 10 203 28 67 24 147 66
147 77 0 6 3 8 6 4 3 -3 35 23 70 59 94 96 164 256 159 362 -1 17 3 32 9 32 7
0 8 3 1 8 -5 4 -11 18 -12 32 -1 14 -3 44 -5 67 -2 24 -6 43 -10 43 -5 0 -8 7
-8 15 0 9 -7 31 -15 51 -8 19 -14 37 -14 41 1 3 -3 9 -8 12 -4 3 -15 18 -23
32 -56 97 -200 211 -299 235 -9 2 -34 8 -57 13 -38 10 -151 21 -156 15z"/>
</g>
</svg>
