<svg width="24" height="24" viewBox="0 0 24 24" fill="none" xmlns="http://www.w3.org/2000/svg">
<g id="chevron down">
<path id="Path 4437" d="M19.0793 8.39961C18.8056 8.14285 18.4445 7.99994 18.0693 7.99994C17.694 7.99994 17.3329 8.14285 17.0593 8.39961L11.4993 13.6996L5.93926 8.39961C5.66564 8.14285 5.30449 7.99994 4.92926 7.99994C4.55403 7.99994 4.19289 8.14285 3.91926 8.39961C3.78702 8.52285 3.68155 8.67199 3.60945 8.83775C3.53734 9.00351 3.50012 9.18235 3.50012 9.36311C3.50012 9.54388 3.53734 9.72271 3.60945 9.88847C3.68155 10.0542 3.78702 10.2034 3.91926 10.3266L10.4963 16.5996C10.7699 16.8564 11.131 16.9993 11.5063 16.9993C11.8815 16.9993 12.2426 16.8564 12.5163 16.5996L19.0933 10.3266C19.223 10.2015 19.326 10.0513 19.3959 9.88516C19.4658 9.71901 19.5012 9.54037 19.4999 9.36011C19.4986 9.17985 19.4606 9.00174 19.3883 8.83662C19.316 8.6715 19.2109 8.52282 19.0793 8.39961Z" fill="#666666"/>
</g>
</svg>
