<svg width="24" height="24" viewBox="0 0 24 24" fill="none" xmlns="http://www.w3.org/2000/svg">
<g id="chevron up">
<path id="Path 4437" d="M4.92043 16.0998C5.19406 16.3566 5.5552 16.4995 5.93043 16.4995C6.30566 16.4995 6.66681 16.3566 6.94043 16.0998L12.5004 10.7998L18.0604 16.0998C18.3341 16.3566 18.6952 16.4995 19.0704 16.4995C19.4457 16.4995 19.8068 16.3566 20.0804 16.0998C20.2127 15.9766 20.3181 15.8275 20.3902 15.6617C20.4624 15.4959 20.4996 15.3171 20.4996 15.1363C20.4996 14.9556 20.4624 14.7767 20.3902 14.611C20.3181 14.4452 20.2127 14.2961 20.0804 14.1728L13.5034 7.89984C13.2298 7.64307 12.8687 7.50016 12.4934 7.50016C12.1182 7.50016 11.7571 7.64307 11.4834 7.89984L4.90643 14.1728C4.77665 14.2979 4.67367 14.4481 4.60376 14.6143C4.53386 14.7804 4.49848 14.9591 4.49979 15.1393C4.5011 15.3196 4.53907 15.4977 4.61138 15.6628C4.6837 15.828 4.78884 15.9766 4.92043 16.0998Z" fill="#666666"/>
</g>
</svg>
