<svg xmlns="http://www.w3.org/2000/svg" xmlns:xlink="http://www.w3.org/1999/xlink" width="1440" height="262" viewBox="0 0 1440 262">
  <defs>
    <clipPath id="clip-Berlaku_Dkonsul">
      <rect width="1440" height="262"/>
    </clipPath>
  </defs>
  <g id="Berlaku_Dkonsul" data-name="Berlaku Dkonsul" clip-path="url(#clip-Berlaku_Dkonsul)">
    <rect width="1440" height="262" fill="#ebebeb"/>
    <g id="Group_35283" data-name="Group 35283" transform="translate(0 7.837)">
      <g id="Group_35212" data-name="Group 35212" transform="translate(0 72.163)" style="mix-blend-mode: luminosity;isolation: isolate">
        <g id="logo-dkonsul-40">
          <g id="Group_33540" data-name="Group 33540" transform="translate(0 10.354)">
            <path id="Path_7481" data-name="Path 7481" d="M104.155,148.252a5.842,5.842,0,0,1-11.682,0v-.527a15.192,15.192,0,0,1-12.833,6.557c-9.6,0-18.75-7.388-18.75-20.885v-.149c0-13.5,8.99-20.885,18.75-20.885a15.933,15.933,0,0,1,12.833,6.03V103.766a5.842,5.842,0,0,1,11.682,0v44.48Zm-31.578-15v.149c0,6.711,4.609,11.159,10.065,11.159s9.989-4.448,9.989-11.159v-.149c0-6.711-4.533-11.159-9.989-11.159S72.577,126.462,72.577,133.247Z" transform="translate(-60.89 -98.04)" fill="#e51f66"/>
            <g id="Group_33539" data-name="Group 33539" transform="translate(49.867 0.005)">
              <path id="Path_7482" data-name="Path 7482" d="M159.24,103.776a5.84,5.84,0,0,1,11.677,0V128.8l14.6-13.571c1.689-1.587,3.073-2.562,5.146-2.562a5.061,5.061,0,0,1,5.146,5.124c0,1.96-1.075,3.467-2.692,4.98l-9.223,7.766,10.987,14.552a5.971,5.971,0,0,1,1.46,3.7,5.254,5.254,0,0,1-5.456,5.2,5.586,5.586,0,0,1-5.07-2.642l-10.217-13.8-4.685,4.144v6.562a5.84,5.84,0,0,1-11.677,0Z" transform="translate(-159.24 -98.05)" fill="#1da1dc"/>
              <path id="Path_7483" data-name="Path 7483" d="M235.3,148.023v-.149c0-11.611,9.527-21.034,22.36-21.034s22.208,9.273,22.208,20.885v.149c0,11.611-9.527,21.034-22.36,21.034S235.3,159.635,235.3,148.023Zm33.039,0v-.149c0-5.955-4.381-11.159-10.835-11.159s-10.678,5.05-10.678,11.009v.149c0,5.955,4.381,11.159,10.835,11.159S268.339,153.983,268.339,148.023Z" transform="translate(-196.735 -112.517)" fill="#1da1dc"/>
              <path id="Path_7484" data-name="Path 7484" d="M332.28,132.86a5.84,5.84,0,0,1,11.677,0v.453c2.687-3.393,6.145-6.482,12.062-6.482,8.833,0,13.984,5.731,13.984,15v20.885a5.84,5.84,0,0,1-11.677,0V145.451c0-5.428-2.611-8.214-7.068-8.214s-7.3,2.786-7.3,8.214v17.268a5.84,5.84,0,0,1-11.677,0V132.865Z" transform="translate(-244.542 -112.512)" fill="#1da1dc"/>
              <path id="Path_7485" data-name="Path 7485" d="M414.811,164.3a4.541,4.541,0,0,1-2.231-3.92,4.485,4.485,0,0,1,4.609-4.522,4.533,4.533,0,0,1,2.307.6,21.975,21.975,0,0,0,11.14,3.617c3.3,0,4.918-1.2,4.918-3.015v-.149c0-2.492-4-3.318-8.533-4.676-5.765-1.657-12.3-4.3-12.3-12.139v-.154c0-8.214,6.759-12.815,15.064-12.815a29.429,29.429,0,0,1,12.757,3.094,4.671,4.671,0,0,1,2.768,4.3,4.554,4.554,0,0,1-4.685,4.527,4.35,4.35,0,0,1-2.15-.527,22.305,22.305,0,0,0-8.914-2.562c-2.845,0-4.3,1.209-4.3,2.791v.149c0,2.264,3.919,3.318,8.376,4.826,5.765,1.885,12.448,4.6,12.448,11.989v.154c0,8.97-6.84,13.039-15.754,13.039a29.117,29.117,0,0,1-15.52-4.6Z" transform="translate(-284.128 -112.663)" fill="#1da1dc"/>
              <path id="Path_7486" data-name="Path 7486" d="M524.708,163.025a5.842,5.842,0,0,1-11.682,0v-.453c-2.687,3.393-6.145,6.482-12.062,6.482-8.838,0-13.984-5.726-13.984-15V133.166a5.84,5.84,0,0,1,11.677,0v17.268c0,5.428,2.611,8.218,7.068,8.218s7.3-2.791,7.3-8.218V133.166a5.842,5.842,0,0,1,11.682,0V163.02Z" transform="translate(-320.804 -112.819)" fill="#1da1dc"/>
              <path id="Path_7487" data-name="Path 7487" d="M575.47,103.776a5.84,5.84,0,0,1,11.677,0v44.481a5.84,5.84,0,0,1-11.677,0Z" transform="translate(-364.426 -98.05)" fill="#1da1dc"/>
            </g>
          </g>
          <g id="Group_33542" data-name="Group 33542" transform="translate(294.213)">
            <g id="Group_33541" data-name="Group 33541" transform="translate(0 0.01)">
              <path id="Path_7488" data-name="Path 7488" d="M712.833,143.53a4.468,4.468,0,1,1,0-8.935A11.671,11.671,0,0,0,724.6,123.049V97.722a11.671,11.671,0,0,0-11.768-11.547h-.695a11.77,11.77,0,0,0-11.348,8.467,4.576,4.576,0,0,1-5.6,3.119,4.462,4.462,0,0,1-3.179-5.5A20.874,20.874,0,0,1,712.134,77.24h.694a20.707,20.707,0,0,1,20.88,20.487v25.327a20.707,20.707,0,0,1-20.88,20.487Z" transform="translate(-666.141 -77.24)" fill="#e51f66"/>
              <path id="Path_7489" data-name="Path 7489" d="M687.843,168.415H662.03a20.707,20.707,0,0,1-20.88-20.487v-.681a20.707,20.707,0,0,1,20.88-20.487h18.8a4.468,4.468,0,1,1,0,8.935h-18.8a11.671,11.671,0,0,0-11.769,11.547v.682A11.671,11.671,0,0,0,662.03,159.47h25.813a4.468,4.468,0,1,1,0,8.935Z" transform="translate(-641.15 -102.124)" fill="#e51f66"/>
              <path id="Path_7490" data-name="Path 7490" d="M734.485,215.28h-.694a20.708,20.708,0,0,1-20.88-20.486V169.467a20.708,20.708,0,0,1,20.88-20.487,4.468,4.468,0,1,1,0,8.935,11.671,11.671,0,0,0-11.769,11.547v25.327a11.671,11.671,0,0,0,11.769,11.547h.694a11.769,11.769,0,0,0,11.347-8.467,4.57,4.57,0,0,1,5.6-3.119,4.462,4.462,0,0,1,3.179,5.5A20.873,20.873,0,0,1,734.49,215.27Z" transform="translate(-676.525 -113.29)" fill="#e51f66"/>
              <path id="Path_7491" data-name="Path 7491" d="M775.481,190.645h-18.8a4.468,4.468,0,1,1,0-8.935h18.8a11.671,11.671,0,0,0,11.769-11.547v-.681a11.671,11.671,0,0,0-11.769-11.547H749.668a4.468,4.468,0,1,1,0-8.935h25.813a20.707,20.707,0,0,1,20.88,20.487v.682a20.707,20.707,0,0,1-20.88,20.487Z" transform="translate(-692.398 -113.3)" fill="#e51f66"/>
            </g>
            <ellipse id="Ellipse_1194" data-name="Ellipse 1194" cx="12.014" cy="11.9" rx="12.014" ry="11.9" transform="translate(79.935)" fill="#1da1dc"/>
          </g>
        </g>
        <g id="logo-dkonsul-40-2" data-name="logo-dkonsul-40" transform="translate(480.912)">
          <g id="Group_33540-2" data-name="Group 33540" transform="translate(0 10.354)">
            <path id="Path_7481-2" data-name="Path 7481" d="M104.155,148.252a5.842,5.842,0,0,1-11.682,0v-.527a15.192,15.192,0,0,1-12.833,6.557c-9.6,0-18.75-7.388-18.75-20.885v-.149c0-13.5,8.99-20.885,18.75-20.885a15.933,15.933,0,0,1,12.833,6.03V103.766a5.842,5.842,0,0,1,11.682,0v44.48Zm-31.578-15v.149c0,6.711,4.609,11.159,10.065,11.159s9.989-4.448,9.989-11.159v-.149c0-6.711-4.533-11.159-9.989-11.159S72.577,126.462,72.577,133.247Z" transform="translate(-60.89 -98.04)" fill="#e51f66"/>
            <g id="Group_33539-2" data-name="Group 33539" transform="translate(49.867 0.005)">
              <path id="Path_7482-2" data-name="Path 7482" d="M159.24,103.776a5.84,5.84,0,0,1,11.677,0V128.8l14.6-13.571c1.689-1.587,3.073-2.562,5.146-2.562a5.061,5.061,0,0,1,5.146,5.124c0,1.96-1.075,3.467-2.692,4.98l-9.223,7.766,10.987,14.552a5.971,5.971,0,0,1,1.46,3.7,5.254,5.254,0,0,1-5.456,5.2,5.586,5.586,0,0,1-5.07-2.642l-10.217-13.8-4.685,4.144v6.562a5.84,5.84,0,0,1-11.677,0Z" transform="translate(-159.24 -98.05)" fill="#1da1dc"/>
              <path id="Path_7483-2" data-name="Path 7483" d="M235.3,148.023v-.149c0-11.611,9.527-21.034,22.36-21.034s22.208,9.273,22.208,20.885v.149c0,11.611-9.527,21.034-22.36,21.034S235.3,159.635,235.3,148.023Zm33.039,0v-.149c0-5.955-4.381-11.159-10.835-11.159s-10.678,5.05-10.678,11.009v.149c0,5.955,4.381,11.159,10.835,11.159S268.339,153.983,268.339,148.023Z" transform="translate(-196.735 -112.517)" fill="#1da1dc"/>
              <path id="Path_7484-2" data-name="Path 7484" d="M332.28,132.86a5.84,5.84,0,0,1,11.677,0v.453c2.687-3.393,6.145-6.482,12.062-6.482,8.833,0,13.984,5.731,13.984,15v20.885a5.84,5.84,0,0,1-11.677,0V145.451c0-5.428-2.611-8.214-7.068-8.214s-7.3,2.786-7.3,8.214v17.268a5.84,5.84,0,0,1-11.677,0V132.865Z" transform="translate(-244.542 -112.512)" fill="#1da1dc"/>
              <path id="Path_7485-2" data-name="Path 7485" d="M414.811,164.3a4.541,4.541,0,0,1-2.231-3.92,4.485,4.485,0,0,1,4.609-4.522,4.533,4.533,0,0,1,2.307.6,21.975,21.975,0,0,0,11.14,3.617c3.3,0,4.918-1.2,4.918-3.015v-.149c0-2.492-4-3.318-8.533-4.676-5.765-1.657-12.3-4.3-12.3-12.139v-.154c0-8.214,6.759-12.815,15.064-12.815a29.429,29.429,0,0,1,12.757,3.094,4.671,4.671,0,0,1,2.768,4.3,4.554,4.554,0,0,1-4.685,4.527,4.35,4.35,0,0,1-2.15-.527,22.305,22.305,0,0,0-8.914-2.562c-2.845,0-4.3,1.209-4.3,2.791v.149c0,2.264,3.919,3.318,8.376,4.826,5.765,1.885,12.448,4.6,12.448,11.989v.154c0,8.97-6.84,13.039-15.754,13.039a29.117,29.117,0,0,1-15.52-4.6Z" transform="translate(-284.128 -112.663)" fill="#1da1dc"/>
              <path id="Path_7486-2" data-name="Path 7486" d="M524.708,163.025a5.842,5.842,0,0,1-11.682,0v-.453c-2.687,3.393-6.145,6.482-12.062,6.482-8.838,0-13.984-5.726-13.984-15V133.166a5.84,5.84,0,0,1,11.677,0v17.268c0,5.428,2.611,8.218,7.068,8.218s7.3-2.791,7.3-8.218V133.166a5.842,5.842,0,0,1,11.682,0V163.02Z" transform="translate(-320.804 -112.819)" fill="#1da1dc"/>
              <path id="Path_7487-2" data-name="Path 7487" d="M575.47,103.776a5.84,5.84,0,0,1,11.677,0v44.481a5.84,5.84,0,0,1-11.677,0Z" transform="translate(-364.426 -98.05)" fill="#1da1dc"/>
            </g>
          </g>
          <g id="Group_33542-2" data-name="Group 33542" transform="translate(294.213)">
            <g id="Group_33541-2" data-name="Group 33541" transform="translate(0 0.01)">
              <path id="Path_7488-2" data-name="Path 7488" d="M712.833,143.53a4.468,4.468,0,1,1,0-8.935A11.671,11.671,0,0,0,724.6,123.049V97.722a11.671,11.671,0,0,0-11.768-11.547h-.695a11.77,11.77,0,0,0-11.348,8.467,4.576,4.576,0,0,1-5.6,3.119,4.462,4.462,0,0,1-3.179-5.5A20.874,20.874,0,0,1,712.134,77.24h.694a20.707,20.707,0,0,1,20.88,20.487v25.327a20.707,20.707,0,0,1-20.88,20.487Z" transform="translate(-666.141 -77.24)" fill="#e51f66"/>
              <path id="Path_7489-2" data-name="Path 7489" d="M687.843,168.415H662.03a20.707,20.707,0,0,1-20.88-20.487v-.681a20.707,20.707,0,0,1,20.88-20.487h18.8a4.468,4.468,0,1,1,0,8.935h-18.8a11.671,11.671,0,0,0-11.769,11.547v.682A11.671,11.671,0,0,0,662.03,159.47h25.813a4.468,4.468,0,1,1,0,8.935Z" transform="translate(-641.15 -102.124)" fill="#e51f66"/>
              <path id="Path_7490-2" data-name="Path 7490" d="M734.485,215.28h-.694a20.708,20.708,0,0,1-20.88-20.486V169.467a20.708,20.708,0,0,1,20.88-20.487,4.468,4.468,0,1,1,0,8.935,11.671,11.671,0,0,0-11.769,11.547v25.327a11.671,11.671,0,0,0,11.769,11.547h.694a11.769,11.769,0,0,0,11.347-8.467,4.57,4.57,0,0,1,5.6-3.119,4.462,4.462,0,0,1,3.179,5.5A20.873,20.873,0,0,1,734.49,215.27Z" transform="translate(-676.525 -113.29)" fill="#e51f66"/>
              <path id="Path_7491-2" data-name="Path 7491" d="M775.481,190.645h-18.8a4.468,4.468,0,1,1,0-8.935h18.8a11.671,11.671,0,0,0,11.769-11.547v-.681a11.671,11.671,0,0,0-11.769-11.547H749.668a4.468,4.468,0,1,1,0-8.935h25.813a20.707,20.707,0,0,1,20.88,20.487v.682a20.707,20.707,0,0,1-20.88,20.487Z" transform="translate(-692.398 -113.3)" fill="#e51f66"/>
            </g>
            <ellipse id="Ellipse_1194-2" data-name="Ellipse 1194" cx="12.014" cy="11.9" rx="12.014" ry="11.9" transform="translate(79.935)" fill="#1da1dc"/>
          </g>
        </g>
        <g id="logo-dkonsul-40-3" data-name="logo-dkonsul-40" transform="translate(961.824)">
          <g id="Group_33540-3" data-name="Group 33540" transform="translate(0 10.354)">
            <path id="Path_7481-3" data-name="Path 7481" d="M104.155,148.252a5.842,5.842,0,0,1-11.682,0v-.527a15.192,15.192,0,0,1-12.833,6.557c-9.6,0-18.75-7.388-18.75-20.885v-.149c0-13.5,8.99-20.885,18.75-20.885a15.933,15.933,0,0,1,12.833,6.03V103.766a5.842,5.842,0,0,1,11.682,0v44.48Zm-31.578-15v.149c0,6.711,4.609,11.159,10.065,11.159s9.989-4.448,9.989-11.159v-.149c0-6.711-4.533-11.159-9.989-11.159S72.577,126.462,72.577,133.247Z" transform="translate(-60.89 -98.04)" fill="#e51f66"/>
            <g id="Group_33539-3" data-name="Group 33539" transform="translate(49.867 0.005)">
              <path id="Path_7482-3" data-name="Path 7482" d="M159.24,103.776a5.84,5.84,0,0,1,11.677,0V128.8l14.6-13.571c1.689-1.587,3.073-2.562,5.146-2.562a5.061,5.061,0,0,1,5.146,5.124c0,1.96-1.075,3.467-2.692,4.98l-9.223,7.766,10.987,14.552a5.971,5.971,0,0,1,1.46,3.7,5.254,5.254,0,0,1-5.456,5.2,5.586,5.586,0,0,1-5.07-2.642l-10.217-13.8-4.685,4.144v6.562a5.84,5.84,0,0,1-11.677,0Z" transform="translate(-159.24 -98.05)" fill="#1da1dc"/>
              <path id="Path_7483-3" data-name="Path 7483" d="M235.3,148.023v-.149c0-11.611,9.527-21.034,22.36-21.034s22.208,9.273,22.208,20.885v.149c0,11.611-9.527,21.034-22.36,21.034S235.3,159.635,235.3,148.023Zm33.039,0v-.149c0-5.955-4.381-11.159-10.835-11.159s-10.678,5.05-10.678,11.009v.149c0,5.955,4.381,11.159,10.835,11.159S268.339,153.983,268.339,148.023Z" transform="translate(-196.735 -112.517)" fill="#1da1dc"/>
              <path id="Path_7484-3" data-name="Path 7484" d="M332.28,132.86a5.84,5.84,0,0,1,11.677,0v.453c2.687-3.393,6.145-6.482,12.062-6.482,8.833,0,13.984,5.731,13.984,15v20.885a5.84,5.84,0,0,1-11.677,0V145.451c0-5.428-2.611-8.214-7.068-8.214s-7.3,2.786-7.3,8.214v17.268a5.84,5.84,0,0,1-11.677,0V132.865Z" transform="translate(-244.542 -112.512)" fill="#1da1dc"/>
              <path id="Path_7485-3" data-name="Path 7485" d="M414.811,164.3a4.541,4.541,0,0,1-2.231-3.92,4.485,4.485,0,0,1,4.609-4.522,4.533,4.533,0,0,1,2.307.6,21.975,21.975,0,0,0,11.14,3.617c3.3,0,4.918-1.2,4.918-3.015v-.149c0-2.492-4-3.318-8.533-4.676-5.765-1.657-12.3-4.3-12.3-12.139v-.154c0-8.214,6.759-12.815,15.064-12.815a29.429,29.429,0,0,1,12.757,3.094,4.671,4.671,0,0,1,2.768,4.3,4.554,4.554,0,0,1-4.685,4.527,4.35,4.35,0,0,1-2.15-.527,22.305,22.305,0,0,0-8.914-2.562c-2.845,0-4.3,1.209-4.3,2.791v.149c0,2.264,3.919,3.318,8.376,4.826,5.765,1.885,12.448,4.6,12.448,11.989v.154c0,8.97-6.84,13.039-15.754,13.039a29.117,29.117,0,0,1-15.52-4.6Z" transform="translate(-284.128 -112.663)" fill="#1da1dc"/>
              <path id="Path_7486-3" data-name="Path 7486" d="M524.708,163.025a5.842,5.842,0,0,1-11.682,0v-.453c-2.687,3.393-6.145,6.482-12.062,6.482-8.838,0-13.984-5.726-13.984-15V133.166a5.84,5.84,0,0,1,11.677,0v17.268c0,5.428,2.611,8.218,7.068,8.218s7.3-2.791,7.3-8.218V133.166a5.842,5.842,0,0,1,11.682,0V163.02Z" transform="translate(-320.804 -112.819)" fill="#1da1dc"/>
              <path id="Path_7487-3" data-name="Path 7487" d="M575.47,103.776a5.84,5.84,0,0,1,11.677,0v44.481a5.84,5.84,0,0,1-11.677,0Z" transform="translate(-364.426 -98.05)" fill="#1da1dc"/>
            </g>
          </g>
          <g id="Group_33542-3" data-name="Group 33542" transform="translate(294.213)">
            <g id="Group_33541-3" data-name="Group 33541" transform="translate(0 0.01)">
              <path id="Path_7488-3" data-name="Path 7488" d="M712.833,143.53a4.468,4.468,0,1,1,0-8.935A11.671,11.671,0,0,0,724.6,123.049V97.722a11.671,11.671,0,0,0-11.768-11.547h-.695a11.77,11.77,0,0,0-11.348,8.467,4.576,4.576,0,0,1-5.6,3.119,4.462,4.462,0,0,1-3.179-5.5A20.874,20.874,0,0,1,712.134,77.24h.694a20.707,20.707,0,0,1,20.88,20.487v25.327a20.707,20.707,0,0,1-20.88,20.487Z" transform="translate(-666.141 -77.24)" fill="#e51f66"/>
              <path id="Path_7489-3" data-name="Path 7489" d="M687.843,168.415H662.03a20.707,20.707,0,0,1-20.88-20.487v-.681a20.707,20.707,0,0,1,20.88-20.487h18.8a4.468,4.468,0,1,1,0,8.935h-18.8a11.671,11.671,0,0,0-11.769,11.547v.682A11.671,11.671,0,0,0,662.03,159.47h25.813a4.468,4.468,0,1,1,0,8.935Z" transform="translate(-641.15 -102.124)" fill="#e51f66"/>
              <path id="Path_7490-3" data-name="Path 7490" d="M734.485,215.28h-.694a20.708,20.708,0,0,1-20.88-20.486V169.467a20.708,20.708,0,0,1,20.88-20.487,4.468,4.468,0,1,1,0,8.935,11.671,11.671,0,0,0-11.769,11.547v25.327a11.671,11.671,0,0,0,11.769,11.547h.694a11.769,11.769,0,0,0,11.347-8.467,4.57,4.57,0,0,1,5.6-3.119,4.462,4.462,0,0,1,3.179,5.5A20.873,20.873,0,0,1,734.49,215.27Z" transform="translate(-676.525 -113.29)" fill="#e51f66"/>
              <path id="Path_7491-3" data-name="Path 7491" d="M775.481,190.645h-18.8a4.468,4.468,0,1,1,0-8.935h18.8a11.671,11.671,0,0,0,11.769-11.547v-.681a11.671,11.671,0,0,0-11.769-11.547H749.668a4.468,4.468,0,1,1,0-8.935h25.813a20.707,20.707,0,0,1,20.88,20.487v.682a20.707,20.707,0,0,1-20.88,20.487Z" transform="translate(-692.398 -113.3)" fill="#e51f66"/>
            </g>
            <ellipse id="Ellipse_1194-3" data-name="Ellipse 1194" cx="12.014" cy="11.9" rx="12.014" ry="11.9" transform="translate(79.935)" fill="#1da1dc"/>
          </g>
        </g>
      </g>
    </g>
  </g>
</svg>
