<svg xmlns="http://www.w3.org/2000/svg" width="473" height="82" viewBox="0 0 473 82">
  <g id="Group_35282" data-name="Group 35282" transform="translate(5319 -8893)">
    <rect id="Rectangle_6761" data-name="Rectangle 6761" width="473" height="82" transform="translate(-5319 8893)" fill="#fff" opacity="0"/>
    <g id="Group_35210" data-name="Group 35210" transform="translate(-2903 -745)" style="mix-blend-mode: luminosity;isolation: isolate">
      <g id="logo-dkonsul-40" transform="translate(-2349 9690)">
        <g id="Group_33540" data-name="Group 33540" transform="translate(0 3.045)">
          <path id="Path_7481" data-name="Path 7481" d="M73.494,112.808a1.7,1.7,0,0,1-3.4,0v-.155a4.414,4.414,0,0,1-3.739,1.928c-2.8,0-5.462-2.173-5.462-6.143V108.4c0-3.97,2.619-6.143,5.462-6.143a4.626,4.626,0,0,1,3.739,1.773v-4.3a1.7,1.7,0,0,1,3.4,0v13.082Zm-9.2-4.413v.044a2.941,2.941,0,1,0,5.842,0V108.4a2.941,2.941,0,1,0-5.842,0Z" transform="translate(-60.89 -98.04)" fill="#e51f66"/>
          <g id="Group_33539" data-name="Group 33539" transform="translate(14.528 0.001)">
            <path id="Path_7482" data-name="Path 7482" d="M159.24,99.734a1.7,1.7,0,0,1,3.4,0V107.1L166.9,103.1a2.091,2.091,0,0,1,1.5-.754,1.482,1.482,0,0,1,1.5,1.507,2.012,2.012,0,0,1-.784,1.465l-2.687,2.284,3.2,4.28a1.766,1.766,0,0,1,.425,1.087,1.537,1.537,0,0,1-1.589,1.531,1.623,1.623,0,0,1-1.477-.777l-2.976-4.057-1.365,1.219v1.93a1.7,1.7,0,0,1-3.4,0Z" transform="translate(-159.24 -98.05)" fill="#1da1dc"/>
            <path id="Path_7483" data-name="Path 7483" d="M235.3,133.07v-.044a6.27,6.27,0,0,1,6.514-6.186,6.2,6.2,0,0,1,6.47,6.143v.044a6.27,6.27,0,0,1-6.514,6.186A6.2,6.2,0,0,1,235.3,133.07Zm9.625,0v-.044a3.172,3.172,0,0,0-3.157-3.282,3.1,3.1,0,0,0-3.111,3.238v.044a3.172,3.172,0,0,0,3.157,3.282A3.1,3.1,0,0,0,244.925,133.07Z" transform="translate(-224.065 -122.627)" fill="#1da1dc"/>
            <path id="Path_7484" data-name="Path 7484" d="M332.28,128.6a1.7,1.7,0,0,1,3.4,0v.133a4.252,4.252,0,0,1,3.514-1.907c2.573,0,4.074,1.686,4.074,4.413v6.143a1.7,1.7,0,0,1-3.4,0v-5.079c0-1.6-.761-2.416-2.059-2.416s-2.127.819-2.127,2.416v5.079a1.7,1.7,0,0,1-3.4,0V128.6Z" transform="translate(-306.72 -122.619)" fill="#1da1dc"/>
            <path id="Path_7485" data-name="Path 7485" d="M413.23,138.063a1.338,1.338,0,0,1-.65-1.153,1.347,1.347,0,0,1,2.015-1.153,6.36,6.36,0,0,0,3.245,1.064c.962,0,1.433-.354,1.433-.887v-.044c0-.733-1.164-.976-2.486-1.375-1.68-.487-3.582-1.264-3.582-3.57V130.9c0-2.416,1.969-3.769,4.389-3.769a8.507,8.507,0,0,1,3.716.91,1.375,1.375,0,0,1,.807,1.264,1.333,1.333,0,0,1-1.365,1.332,1.258,1.258,0,0,1-.626-.155,6.451,6.451,0,0,0-2.6-.754c-.829,0-1.254.356-1.254.821v.044c0,.666,1.142.976,2.44,1.419,1.68.555,3.626,1.353,3.626,3.526v.045c0,2.638-1.993,3.835-4.589,3.835a8.424,8.424,0,0,1-4.522-1.352Z" transform="translate(-375.158 -122.875)" fill="#1da1dc"/>
            <path id="Path_7486" data-name="Path 7486" d="M497.971,137.906a1.7,1.7,0,0,1-3.4,0v-.133a4.252,4.252,0,0,1-3.514,1.907c-2.575,0-4.074-1.684-4.074-4.413v-6.143a1.7,1.7,0,0,1,3.4,0V134.2c0,1.6.761,2.417,2.059,2.417s2.127-.821,2.127-2.417v-5.079a1.7,1.7,0,0,1,3.4,0V137.9Z" transform="translate(-438.568 -123.14)" fill="#1da1dc"/>
            <path id="Path_7487" data-name="Path 7487" d="M575.47,99.734a1.7,1.7,0,0,1,3.4,0v13.082a1.7,1.7,0,0,1-3.4,0Z" transform="translate(-513.987 -98.05)" fill="#1da1dc"/>
          </g>
        </g>
        <g id="Group_33542" data-name="Group 33542" transform="translate(85.713)">
          <g id="Group_33541" data-name="Group 33541" transform="translate(0 0.003)">
            <path id="Path_7488" data-name="Path 7488" d="M697.959,96.737a1.314,1.314,0,1,1,0-2.628,3.416,3.416,0,0,0,3.428-3.4V83.264a3.416,3.416,0,0,0-3.428-3.4h-.2a3.433,3.433,0,0,0-3.306,2.49,1.331,1.331,0,0,1-1.632.917,1.314,1.314,0,0,1-.926-1.617,6.089,6.089,0,0,1,5.863-4.419h.2a6.061,6.061,0,0,1,6.083,6.025v7.449a6.061,6.061,0,0,1-6.083,6.025Z" transform="translate(-684.356 -77.24)" fill="#e51f66"/>
            <path id="Path_7489" data-name="Path 7489" d="M654.753,139.011h-7.52a6.061,6.061,0,0,1-6.083-6.025v-.2a6.061,6.061,0,0,1,6.083-6.025h5.476a1.314,1.314,0,1,1,0,2.628h-5.476a3.416,3.416,0,0,0-3.428,3.4v.2a3.416,3.416,0,0,0,3.428,3.4h7.52a1.314,1.314,0,1,1,0,2.628Z" transform="translate(-641.15 -119.514)" fill="#e51f66"/>
            <path id="Path_7490" data-name="Path 7490" d="M719.2,168.48h-.2a6.061,6.061,0,0,1-6.083-6.025v-7.449a6.061,6.061,0,0,1,6.083-6.025,1.314,1.314,0,1,1,0,2.628,3.416,3.416,0,0,0-3.429,3.4v7.449a3.416,3.416,0,0,0,3.429,3.4h.2a3.433,3.433,0,0,0,3.306-2.49,1.33,1.33,0,0,1,1.632-.917,1.314,1.314,0,0,1,.926,1.617,6.089,6.089,0,0,1-5.863,4.419Z" transform="translate(-702.31 -138.483)" fill="#e51f66"/>
            <path id="Path_7491" data-name="Path 7491" d="M753.958,161.249h-5.476a1.314,1.314,0,1,1,0-2.628h5.476a3.416,3.416,0,0,0,3.429-3.4v-.2a3.416,3.416,0,0,0-3.429-3.4h-7.52a1.314,1.314,0,1,1,0-2.628h7.52a6.061,6.061,0,0,1,6.083,6.025v.2a6.061,6.061,0,0,1-6.083,6.025Z" transform="translate(-729.754 -138.5)" fill="#e51f66"/>
          </g>
          <circle id="Ellipse_1194" data-name="Ellipse 1194" cx="3.5" cy="3.5" r="3.5" transform="translate(23.287)" fill="#1da1dc"/>
        </g>
      </g>
      <g id="logo-dkonsul-40-2" data-name="logo-dkonsul-40" transform="translate(-2209 9690)">
        <g id="Group_33540-2" data-name="Group 33540" transform="translate(0 3.045)">
          <path id="Path_7481-2" data-name="Path 7481" d="M73.494,112.808a1.7,1.7,0,0,1-3.4,0v-.155a4.414,4.414,0,0,1-3.739,1.928c-2.8,0-5.462-2.173-5.462-6.143V108.4c0-3.97,2.619-6.143,5.462-6.143a4.626,4.626,0,0,1,3.739,1.773v-4.3a1.7,1.7,0,0,1,3.4,0v13.082Zm-9.2-4.413v.044a2.941,2.941,0,1,0,5.842,0V108.4a2.941,2.941,0,1,0-5.842,0Z" transform="translate(-60.89 -98.04)" fill="#e51f66"/>
          <g id="Group_33539-2" data-name="Group 33539" transform="translate(14.528 0.001)">
            <path id="Path_7482-2" data-name="Path 7482" d="M159.24,99.734a1.7,1.7,0,0,1,3.4,0V107.1L166.9,103.1a2.091,2.091,0,0,1,1.5-.754,1.482,1.482,0,0,1,1.5,1.507,2.012,2.012,0,0,1-.784,1.465l-2.687,2.284,3.2,4.28a1.766,1.766,0,0,1,.425,1.087,1.537,1.537,0,0,1-1.589,1.531,1.623,1.623,0,0,1-1.477-.777l-2.976-4.057-1.365,1.219v1.93a1.7,1.7,0,0,1-3.4,0Z" transform="translate(-159.24 -98.05)" fill="#1da1dc"/>
            <path id="Path_7483-2" data-name="Path 7483" d="M235.3,133.07v-.044a6.27,6.27,0,0,1,6.514-6.186,6.2,6.2,0,0,1,6.47,6.143v.044a6.27,6.27,0,0,1-6.514,6.186A6.2,6.2,0,0,1,235.3,133.07Zm9.625,0v-.044a3.172,3.172,0,0,0-3.157-3.282,3.1,3.1,0,0,0-3.111,3.238v.044a3.172,3.172,0,0,0,3.157,3.282A3.1,3.1,0,0,0,244.925,133.07Z" transform="translate(-224.065 -122.627)" fill="#1da1dc"/>
            <path id="Path_7484-2" data-name="Path 7484" d="M332.28,128.6a1.7,1.7,0,0,1,3.4,0v.133a4.252,4.252,0,0,1,3.514-1.907c2.573,0,4.074,1.686,4.074,4.413v6.143a1.7,1.7,0,0,1-3.4,0v-5.079c0-1.6-.761-2.416-2.059-2.416s-2.127.819-2.127,2.416v5.079a1.7,1.7,0,0,1-3.4,0V128.6Z" transform="translate(-306.72 -122.619)" fill="#1da1dc"/>
            <path id="Path_7485-2" data-name="Path 7485" d="M413.23,138.063a1.338,1.338,0,0,1-.65-1.153,1.347,1.347,0,0,1,2.015-1.153,6.36,6.36,0,0,0,3.245,1.064c.962,0,1.433-.354,1.433-.887v-.044c0-.733-1.164-.976-2.486-1.375-1.68-.487-3.582-1.264-3.582-3.57V130.9c0-2.416,1.969-3.769,4.389-3.769a8.507,8.507,0,0,1,3.716.91,1.375,1.375,0,0,1,.807,1.264,1.333,1.333,0,0,1-1.365,1.332,1.258,1.258,0,0,1-.626-.155,6.451,6.451,0,0,0-2.6-.754c-.829,0-1.254.356-1.254.821v.044c0,.666,1.142.976,2.44,1.419,1.68.555,3.626,1.353,3.626,3.526v.045c0,2.638-1.993,3.835-4.589,3.835a8.424,8.424,0,0,1-4.522-1.352Z" transform="translate(-375.158 -122.875)" fill="#1da1dc"/>
            <path id="Path_7486-2" data-name="Path 7486" d="M497.971,137.906a1.7,1.7,0,0,1-3.4,0v-.133a4.252,4.252,0,0,1-3.514,1.907c-2.575,0-4.074-1.684-4.074-4.413v-6.143a1.7,1.7,0,0,1,3.4,0V134.2c0,1.6.761,2.417,2.059,2.417s2.127-.821,2.127-2.417v-5.079a1.7,1.7,0,0,1,3.4,0V137.9Z" transform="translate(-438.568 -123.14)" fill="#1da1dc"/>
            <path id="Path_7487-2" data-name="Path 7487" d="M575.47,99.734a1.7,1.7,0,0,1,3.4,0v13.082a1.7,1.7,0,0,1-3.4,0Z" transform="translate(-513.987 -98.05)" fill="#1da1dc"/>
          </g>
        </g>
        <g id="Group_33542-2" data-name="Group 33542" transform="translate(85.713)">
          <g id="Group_33541-2" data-name="Group 33541" transform="translate(0 0.003)">
            <path id="Path_7488-2" data-name="Path 7488" d="M697.959,96.737a1.314,1.314,0,1,1,0-2.628,3.416,3.416,0,0,0,3.428-3.4V83.264a3.416,3.416,0,0,0-3.428-3.4h-.2a3.433,3.433,0,0,0-3.306,2.49,1.331,1.331,0,0,1-1.632.917,1.314,1.314,0,0,1-.926-1.617,6.089,6.089,0,0,1,5.863-4.419h.2a6.061,6.061,0,0,1,6.083,6.025v7.449a6.061,6.061,0,0,1-6.083,6.025Z" transform="translate(-684.356 -77.24)" fill="#e51f66"/>
            <path id="Path_7489-2" data-name="Path 7489" d="M654.753,139.011h-7.52a6.061,6.061,0,0,1-6.083-6.025v-.2a6.061,6.061,0,0,1,6.083-6.025h5.476a1.314,1.314,0,1,1,0,2.628h-5.476a3.416,3.416,0,0,0-3.428,3.4v.2a3.416,3.416,0,0,0,3.428,3.4h7.52a1.314,1.314,0,1,1,0,2.628Z" transform="translate(-641.15 -119.514)" fill="#e51f66"/>
            <path id="Path_7490-2" data-name="Path 7490" d="M719.2,168.48h-.2a6.061,6.061,0,0,1-6.083-6.025v-7.449a6.061,6.061,0,0,1,6.083-6.025,1.314,1.314,0,1,1,0,2.628,3.416,3.416,0,0,0-3.429,3.4v7.449a3.416,3.416,0,0,0,3.429,3.4h.2a3.433,3.433,0,0,0,3.306-2.49,1.33,1.33,0,0,1,1.632-.917,1.314,1.314,0,0,1,.926,1.617,6.089,6.089,0,0,1-5.863,4.419Z" transform="translate(-702.31 -138.483)" fill="#e51f66"/>
            <path id="Path_7491-2" data-name="Path 7491" d="M753.958,161.249h-5.476a1.314,1.314,0,1,1,0-2.628h5.476a3.416,3.416,0,0,0,3.429-3.4v-.2a3.416,3.416,0,0,0-3.429-3.4h-7.52a1.314,1.314,0,1,1,0-2.628h7.52a6.061,6.061,0,0,1,6.083,6.025v.2a6.061,6.061,0,0,1-6.083,6.025Z" transform="translate(-729.754 -138.5)" fill="#e51f66"/>
          </g>
          <circle id="Ellipse_1194-2" data-name="Ellipse 1194" cx="3.5" cy="3.5" r="3.5" transform="translate(23.287)" fill="#1da1dc"/>
        </g>
      </g>
      <g id="logo-dkonsul-40-3" data-name="logo-dkonsul-40" transform="translate(-2069 9690)">
        <g id="Group_33540-3" data-name="Group 33540" transform="translate(0 3.045)">
          <path id="Path_7481-3" data-name="Path 7481" d="M73.494,112.808a1.7,1.7,0,0,1-3.4,0v-.155a4.414,4.414,0,0,1-3.739,1.928c-2.8,0-5.462-2.173-5.462-6.143V108.4c0-3.97,2.619-6.143,5.462-6.143a4.626,4.626,0,0,1,3.739,1.773v-4.3a1.7,1.7,0,0,1,3.4,0v13.082Zm-9.2-4.413v.044a2.941,2.941,0,1,0,5.842,0V108.4a2.941,2.941,0,1,0-5.842,0Z" transform="translate(-60.89 -98.04)" fill="#e51f66"/>
          <g id="Group_33539-3" data-name="Group 33539" transform="translate(14.528 0.001)">
            <path id="Path_7482-3" data-name="Path 7482" d="M159.24,99.734a1.7,1.7,0,0,1,3.4,0V107.1L166.9,103.1a2.091,2.091,0,0,1,1.5-.754,1.482,1.482,0,0,1,1.5,1.507,2.012,2.012,0,0,1-.784,1.465l-2.687,2.284,3.2,4.28a1.766,1.766,0,0,1,.425,1.087,1.537,1.537,0,0,1-1.589,1.531,1.623,1.623,0,0,1-1.477-.777l-2.976-4.057-1.365,1.219v1.93a1.7,1.7,0,0,1-3.4,0Z" transform="translate(-159.24 -98.05)" fill="#1da1dc"/>
            <path id="Path_7483-3" data-name="Path 7483" d="M235.3,133.07v-.044a6.27,6.27,0,0,1,6.514-6.186,6.2,6.2,0,0,1,6.47,6.143v.044a6.27,6.27,0,0,1-6.514,6.186A6.2,6.2,0,0,1,235.3,133.07Zm9.625,0v-.044a3.172,3.172,0,0,0-3.157-3.282,3.1,3.1,0,0,0-3.111,3.238v.044a3.172,3.172,0,0,0,3.157,3.282A3.1,3.1,0,0,0,244.925,133.07Z" transform="translate(-224.065 -122.627)" fill="#1da1dc"/>
            <path id="Path_7484-3" data-name="Path 7484" d="M332.28,128.6a1.7,1.7,0,0,1,3.4,0v.133a4.252,4.252,0,0,1,3.514-1.907c2.573,0,4.074,1.686,4.074,4.413v6.143a1.7,1.7,0,0,1-3.4,0v-5.079c0-1.6-.761-2.416-2.059-2.416s-2.127.819-2.127,2.416v5.079a1.7,1.7,0,0,1-3.4,0V128.6Z" transform="translate(-306.72 -122.619)" fill="#1da1dc"/>
            <path id="Path_7485-3" data-name="Path 7485" d="M413.23,138.063a1.338,1.338,0,0,1-.65-1.153,1.347,1.347,0,0,1,2.015-1.153,6.36,6.36,0,0,0,3.245,1.064c.962,0,1.433-.354,1.433-.887v-.044c0-.733-1.164-.976-2.486-1.375-1.68-.487-3.582-1.264-3.582-3.57V130.9c0-2.416,1.969-3.769,4.389-3.769a8.507,8.507,0,0,1,3.716.91,1.375,1.375,0,0,1,.807,1.264,1.333,1.333,0,0,1-1.365,1.332,1.258,1.258,0,0,1-.626-.155,6.451,6.451,0,0,0-2.6-.754c-.829,0-1.254.356-1.254.821v.044c0,.666,1.142.976,2.44,1.419,1.68.555,3.626,1.353,3.626,3.526v.045c0,2.638-1.993,3.835-4.589,3.835a8.424,8.424,0,0,1-4.522-1.352Z" transform="translate(-375.158 -122.875)" fill="#1da1dc"/>
            <path id="Path_7486-3" data-name="Path 7486" d="M497.971,137.906a1.7,1.7,0,0,1-3.4,0v-.133a4.252,4.252,0,0,1-3.514,1.907c-2.575,0-4.074-1.684-4.074-4.413v-6.143a1.7,1.7,0,0,1,3.4,0V134.2c0,1.6.761,2.417,2.059,2.417s2.127-.821,2.127-2.417v-5.079a1.7,1.7,0,0,1,3.4,0V137.9Z" transform="translate(-438.568 -123.14)" fill="#1da1dc"/>
            <path id="Path_7487-3" data-name="Path 7487" d="M575.47,99.734a1.7,1.7,0,0,1,3.4,0v13.082a1.7,1.7,0,0,1-3.4,0Z" transform="translate(-513.987 -98.05)" fill="#1da1dc"/>
          </g>
        </g>
        <g id="Group_33542-3" data-name="Group 33542" transform="translate(85.713)">
          <g id="Group_33541-3" data-name="Group 33541" transform="translate(0 0.003)">
            <path id="Path_7488-3" data-name="Path 7488" d="M697.959,96.737a1.314,1.314,0,1,1,0-2.628,3.416,3.416,0,0,0,3.428-3.4V83.264a3.416,3.416,0,0,0-3.428-3.4h-.2a3.433,3.433,0,0,0-3.306,2.49,1.331,1.331,0,0,1-1.632.917,1.314,1.314,0,0,1-.926-1.617,6.089,6.089,0,0,1,5.863-4.419h.2a6.061,6.061,0,0,1,6.083,6.025v7.449a6.061,6.061,0,0,1-6.083,6.025Z" transform="translate(-684.356 -77.24)" fill="#e51f66"/>
            <path id="Path_7489-3" data-name="Path 7489" d="M654.753,139.011h-7.52a6.061,6.061,0,0,1-6.083-6.025v-.2a6.061,6.061,0,0,1,6.083-6.025h5.476a1.314,1.314,0,1,1,0,2.628h-5.476a3.416,3.416,0,0,0-3.428,3.4v.2a3.416,3.416,0,0,0,3.428,3.4h7.52a1.314,1.314,0,1,1,0,2.628Z" transform="translate(-641.15 -119.514)" fill="#e51f66"/>
            <path id="Path_7490-3" data-name="Path 7490" d="M719.2,168.48h-.2a6.061,6.061,0,0,1-6.083-6.025v-7.449a6.061,6.061,0,0,1,6.083-6.025,1.314,1.314,0,1,1,0,2.628,3.416,3.416,0,0,0-3.429,3.4v7.449a3.416,3.416,0,0,0,3.429,3.4h.2a3.433,3.433,0,0,0,3.306-2.49,1.33,1.33,0,0,1,1.632-.917,1.314,1.314,0,0,1,.926,1.617,6.089,6.089,0,0,1-5.863,4.419Z" transform="translate(-702.31 -138.483)" fill="#e51f66"/>
            <path id="Path_7491-3" data-name="Path 7491" d="M753.958,161.249h-5.476a1.314,1.314,0,1,1,0-2.628h5.476a3.416,3.416,0,0,0,3.429-3.4v-.2a3.416,3.416,0,0,0-3.429-3.4h-7.52a1.314,1.314,0,1,1,0-2.628h7.52a6.061,6.061,0,0,1,6.083,6.025v.2a6.061,6.061,0,0,1-6.083,6.025Z" transform="translate(-729.754 -138.5)" fill="#e51f66"/>
          </g>
          <circle id="Ellipse_1194-3" data-name="Ellipse 1194" cx="3.5" cy="3.5" r="3.5" transform="translate(23.287)" fill="#1da1dc"/>
        </g>
      </g>
      <path id="img-txt-tidakberlaku-24" d="M8-6.574H4.7V0H1.734V-17.062h6a6.983,6.983,0,0,1,4.559,1.324A4.683,4.683,0,0,1,13.9-11.906a4.8,4.8,0,0,1-.826,2.865,5.256,5.256,0,0,1-2.3,1.775L14.6-.152V0H11.426ZM4.7-8.953H7.746a3.389,3.389,0,0,0,2.344-.756,2.636,2.636,0,0,0,.844-2.068,2.806,2.806,0,0,0-.779-2.121,3.311,3.311,0,0,0-2.326-.773H4.7ZM28.484-7.617H21.476v5.25h8.191V0H18.511V-17.062H29.585v2.391H21.476v4.711h7.008ZM42.8-4.395a2.06,2.06,0,0,0-.791-1.734,9.517,9.517,0,0,0-2.854-1.23,13.779,13.779,0,0,1-3.281-1.383,4.379,4.379,0,0,1-2.332-3.82,4.158,4.158,0,0,1,1.682-3.4A6.806,6.806,0,0,1,39.588-17.3a7.373,7.373,0,0,1,3.176.656,5.213,5.213,0,0,1,2.191,1.869,4.794,4.794,0,0,1,.8,2.689H42.8a2.674,2.674,0,0,0-.838-2.092,3.458,3.458,0,0,0-2.4-.756,3.612,3.612,0,0,0-2.256.621,2.068,2.068,0,0,0-.8,1.734,1.871,1.871,0,0,0,.867,1.564,9.99,9.99,0,0,0,2.859,1.219,13.153,13.153,0,0,1,3.2,1.348A5.089,5.089,0,0,1,45.2-6.709a4.517,4.517,0,0,1,.563,2.291,4.061,4.061,0,0,1-1.635,3.393A7.091,7.091,0,0,1,39.694.234a8.335,8.335,0,0,1-3.4-.686,5.719,5.719,0,0,1-2.414-1.893,4.716,4.716,0,0,1-.861-2.812h2.965a2.76,2.76,0,0,0,.961,2.25,4.208,4.208,0,0,0,2.754.8,3.656,3.656,0,0,0,2.326-.627A2.023,2.023,0,0,0,42.8-4.395ZM60.138-7.617H53.13v5.25h8.191V0H50.166V-17.062H61.24v2.391H53.13v4.711h7.008ZM68.5-6.34V0H65.536V-17.062h6.527A6.605,6.605,0,0,1,76.6-15.574a5,5,0,0,1,1.682,3.938,4.836,4.836,0,0,1-1.646,3.9A6.925,6.925,0,0,1,72.028-6.34Zm0-2.379h3.563a3.509,3.509,0,0,0,2.414-.744,2.735,2.735,0,0,0,.832-2.15,2.951,2.951,0,0,0-.844-2.209,3.252,3.252,0,0,0-2.32-.85H68.5Zm31.924,1.1H93.417v5.25h8.191V0H90.452V-17.062h11.074v2.391H93.417v4.711h7.008Zm8.362,5.25h7.746V0H105.823V-17.062h2.965Zm21.792-5.25h-7.008v5.25h8.191V0H120.607V-17.062h11.074v2.391h-8.109v4.711h7.008Zm10.3.246L138.942-5.32V0h-2.965V-17.062h2.965v8l1.641-2.027,4.992-5.977h3.586L142.821-9.5l6.7,9.5h-3.516Zm24.359-7.3h-5.32V0h-2.941V-14.672H151.7v-2.391h13.535Zm10.308,8.1h-3.3V0h-2.965V-17.062h6a6.983,6.983,0,0,1,4.559,1.324,4.683,4.683,0,0,1,1.605,3.832,4.8,4.8,0,0,1-.826,2.865,5.256,5.256,0,0,1-2.3,1.775L182.14-.152V0h-3.176Zm-3.3-2.379h3.047a3.389,3.389,0,0,0,2.344-.756,2.636,2.636,0,0,0,.844-2.068,2.806,2.806,0,0,0-.779-2.121,3.311,3.311,0,0,0-2.326-.773h-3.129Zm27.429.867a10.468,10.468,0,0,1-.867,4.4,6.557,6.557,0,0,1-2.479,2.906A6.817,6.817,0,0,1,192.612.234a6.834,6.834,0,0,1-3.7-1.014,6.658,6.658,0,0,1-2.508-2.889,10.141,10.141,0,0,1-.9-4.324v-.961a10.379,10.379,0,0,1,.885-4.406,6.65,6.65,0,0,1,2.5-2.924,6.8,6.8,0,0,1,3.7-1.014,6.856,6.856,0,0,1,3.7,1,6.565,6.565,0,0,1,2.49,2.883,10.356,10.356,0,0,1,.891,4.377ZM196.7-8.977a7.459,7.459,0,0,0-1.072-4.348,3.508,3.508,0,0,0-3.041-1.512,3.5,3.5,0,0,0-3.006,1.506,7.315,7.315,0,0,0-1.107,4.26v.984a7.4,7.4,0,0,0,1.1,4.348A3.528,3.528,0,0,0,192.612-2.2a3.487,3.487,0,0,0,3.029-1.5A7.562,7.562,0,0,0,196.7-8.086ZM217.955,0H214.99l-7.605-12.105V0H204.42V-17.062h2.965L215.013-4.91V-17.062h2.941Zm8.433,0h-2.953V-17.062h2.953ZM236.73-7.371,234.8-5.32V0h-2.965V-17.062H234.8v8l1.641-2.027,4.992-5.977h3.586L238.676-9.5l6.7,9.5h-3.516Zm31.432-7.3h-5.32V0H259.9V-14.672h-5.273v-2.391h13.535ZM275.33,0h-2.953V-17.062h2.953Zm5.445,0V-17.062h5.039a7.9,7.9,0,0,1,4.014,1.008A6.872,6.872,0,0,1,292.54-13.2a9.076,9.076,0,0,1,.961,4.242V-8.1a9.039,9.039,0,0,1-.967,4.266A6.789,6.789,0,0,1,289.78-1a8.27,8.27,0,0,1-4.1,1Zm2.965-14.672v12.3h1.934a4.452,4.452,0,0,0,3.58-1.459,6.355,6.355,0,0,0,1.271-4.189v-.949a6.521,6.521,0,0,0-1.207-4.242,4.279,4.279,0,0,0-3.5-1.465Zm23.82,10.7h-6.609L299.566,0h-3.082l6.445-17.062h2.66L312.047,0h-3.094Zm-5.777-2.391h4.945l-2.473-7.078Zm18.9-1.008L318.745-5.32V0H315.78V-17.062h2.965v8l1.641-2.027,4.992-5.977h3.586L322.624-9.5l6.7,9.5h-3.516ZM340.486,0V-17.062h5.848a7.139,7.139,0,0,1,4.406,1.16,4.086,4.086,0,0,1,1.512,3.457,3.685,3.685,0,0,1-.633,2.109,4.073,4.073,0,0,1-1.852,1.453,3.766,3.766,0,0,1,2.139,1.412,4.113,4.113,0,0,1,.756,2.49,4.542,4.542,0,0,1-1.541,3.691A6.7,6.7,0,0,1,346.709,0Zm2.965-7.7v5.332h3.293a3.187,3.187,0,0,0,2.18-.691,2.427,2.427,0,0,0,.785-1.922A2.435,2.435,0,0,0,346.99-7.7Zm0-2.18h2.906a3.361,3.361,0,0,0,2.162-.627,2.148,2.148,0,0,0,.779-1.775,2.177,2.177,0,0,0-.721-1.828,3.639,3.639,0,0,0-2.244-.562h-2.883ZM367.4-7.617h-7.008v5.25h8.191V0H357.427V-17.062H368.5v2.391h-8.109v4.711H367.4Zm11.667,1.043h-3.3V0H372.8V-17.062h6a6.983,6.983,0,0,1,4.559,1.324,4.683,4.683,0,0,1,1.605,3.832,4.8,4.8,0,0,1-.826,2.865,5.256,5.256,0,0,1-2.3,1.775l3.832,7.113V0h-3.176Zm-3.3-2.379h3.047a3.389,3.389,0,0,0,2.344-.756A2.636,2.636,0,0,0,382-11.777a2.806,2.806,0,0,0-.779-2.121,3.311,3.311,0,0,0-2.326-.773h-3.129Zm16.777,6.586h7.746V0H389.573V-17.062h2.965Zm21.593-1.605h-6.609L406.139,0h-3.082L409.5-17.062h2.66L418.62,0h-3.094Zm-5.777-2.391H413.3l-2.473-7.078Zm18.9-1.008L425.318-5.32V0h-2.965V-17.062h2.965v8l1.641-2.027,4.992-5.977h3.586L429.2-9.5,435.9,0h-3.516Zm24.511-9.691v11.4a5.541,5.541,0,0,1-1.74,4.307A6.61,6.61,0,0,1,445.388.234a6.658,6.658,0,0,1-4.652-1.564,5.568,5.568,0,0,1-1.723-4.342V-17.062h2.953V-5.648a3.626,3.626,0,0,0,.867,2.613,3.383,3.383,0,0,0,2.555.9q3.422,0,3.422-3.609v-11.32Z" transform="translate(-2406 9660)" fill="#666" style="mix-blend-mode: luminosity;isolation: isolate"/>
    </g>
  </g>
</svg>
